Dinish-CondensedSemiBold.ufo
<glyph name="quotedbl" format="2">
  <advance width="335"/>
  <unicode hex="0022"/>
  <outline>
    <contour>
      <point x="34" y="428.333" type="line"/>
      <point x="134" y="428.333" type="line"/>
      <point x="134" y="707" type="line"/>
      <point x="34" y="707" type="line"/>
    </contour>
    <contour>
      <point x="201" y="428.333" type="line"/>
      <point x="301.667" y="428.333" type="line"/>
      <point x="301.667" y="707" type="line"/>
      <point x="201" y="707" type="line"/>
    </contour>
  </outline>
</glyph>
<glyph name="numbersign" format="2">
  <advance width="473"/>
  <unicode hex="0023"/>
  <outline>
    <contour>
      <point x="59" y="0" type="line"/>
      <point x="144.333" y="0" type="line"/>
      <point x="167.667" y="221.333" type="line"/>
      <point x="268.667" y="221.333" type="line"/>
      <point x="245.333" y="0" type="line"/>
      <point x="329.667" y="0" type="line"/>
      <point x="352.667" y="221.333" type="line"/>
      <point x="436.667" y="221.333" type="line"/>
      <point x="436.667" y="298" type="line"/>
      <point x="361.667" y="298" type="line"/>
      <point x="375.333" y="425.333" type="line"/>
      <point x="457" y="425.333" type="line"/>
      <point x="457" y="502" type="line"/>
      <point x="382.667" y="502" type="line"/>
      <point x="405" y="707" type="line"/>
      <point x="319.333" y="707" type="line"/>
      <point x="298.333" y="502" type="line"/>
      <point x="197.333" y="502" type="line"/>
      <point x="218.667" y="707" type="line"/>
      <point x="134" y="707" type="line"/>
      <point x="112.667" y="502" type="line"/>
      <point x="37.333" y="502" type="line"/>
      <point x="37.333" y="425.333" type="line"/>
      <point x="104.333" y="425.333" type="line"/>
      <point x="90.667" y="298" type="line"/>
      <point x="16" y="298" type="line"/>
      <point x="16" y="221.333" type="line"/>
      <point x="82.667" y="221.333" type="line"/>
    </contour>
    <contour>
      <point x="175.333" y="298" type="line"/>
      <point x="189.333" y="425.333" type="line"/>
      <point x="290" y="425.333" type="line"/>
      <point x="276" y="298" type="line"/>
    </contour>
  </outline>
</glyph>
<glyph name="dollar" format="2">
  <advance width="419"/>
  <unicode hex="0024"/>
  <outline>
    <contour>
      <point x="169" y="-55.333" type="line"/>
      <point x="245" y="-55.333" type="line"/>
      <point x="245" y="32.667" type="line"/>
      <point x="326.117" y="48.638"/>
      <point x="371.333" y="112.623"/>
      <point x="371.333" y="211.333" type="curve" smooth="yes"/>
      <point x="371.333" y="309.478"/>
      <point x="333.758" y="364.803"/>
      <point x="242.333" y="401.333" type="curve" smooth="yes"/>
      <point x="192.333" y="421.333" type="line" smooth="yes"/>
      <point x="149.386" y="438.511"/>
      <point x="130.333" y="465.524"/>
      <point x="130.333" y="509.333" type="curve" smooth="yes"/>
      <point x="130.333" y="559.362"/>
      <point x="154.205" y="586.34"/>
      <point x="198.589" y="586.34" type="curve" smooth="yes"/>
      <point x="244.08" y="586.34"/>
      <point x="264.123" y="559.958"/>
      <point x="266.333" y="496.667" type="curve"/>
      <point x="364.333" y="496.667" type="line"/>
      <point x="361.003" y="594.972"/>
      <point x="319.107" y="657.527"/>
      <point x="245" y="674.667" type="curve"/>
      <point x="245" y="772.333" type="line"/>
      <point x="169" y="772.333" type="line"/>
      <point x="169" y="677.667" type="line"/>
      <point x="78.429" y="664.437"/>
      <point x="27" y="600.814"/>
      <point x="27" y="502" type="curve" smooth="yes"/>
      <point x="27" y="412.58"/>
      <point x="58.445" y="365.96"/>
      <point x="145.333" y="326.667" type="curve" smooth="yes"/>
      <point x="195.861" y="303.821" type="line"/>
      <point x="248.237" y="278.403"/>
      <point x="267" y="252.824"/>
      <point x="267" y="206.333" type="curve" smooth="yes"/>
      <point x="267" y="145.528"/>
      <point x="244.558" y="117.603"/>
      <point x="195.702" y="117.603" type="curve" smooth="yes"/>
      <point x="150.214" y="117.603"/>
      <point x="127.075" y="147.911"/>
      <point x="123.667" y="212" type="curve"/>
      <point x="21.667" y="212" type="line"/>
      <point x="26.33" y="99.194"/>
      <point x="76.042" y="37.229"/>
      <point x="169" y="28.333" type="curve"/>
    </contour>
  </outline>
</glyph>
<glyph name="percent" format="2">
  <advance width="756"/>
  <unicode hex="0025"/>
  <outline>
    <contour>
      <point x="208.667" y="0" type="line"/>
      <point x="286" y="0" type="line"/>
      <point x="548" y="712.333" type="line"/>
      <point x="470.667" y="712.333" type="line"/>
    </contour>
    <contour>
      <point x="143.667" y="271.333" type="curve" smooth="yes"/>
      <point x="218.962" y="271.333"/>
      <point x="255.667" y="310.354"/>
      <point x="255.667" y="391.333" type="curve" smooth="yes"/>
      <point x="255.667" y="594" type="line" smooth="yes"/>
      <point x="255.667" y="674.041"/>
      <point x="218.556" y="713.333"/>
      <point x="143.667" y="713.333" type="curve" smooth="yes"/>
      <point x="69.592" y="713.333"/>
      <point x="32.667" y="674.133"/>
      <point x="32.667" y="594" type="curve" smooth="yes"/>
      <point x="32.667" y="391.333" type="line" smooth="yes"/>
      <point x="32.667" y="311.062"/>
      <point x="69.848" y="271.333"/>
    </contour>
    <contour>
      <point x="143.667" y="343.333" type="curve" smooth="yes"/>
      <point x="118.579" y="343.274"/>
      <point x="112" y="363.455"/>
      <point x="112" y="399.333" type="curve" smooth="yes"/>
      <point x="112" y="586" type="line" smooth="yes"/>
      <point x="112" y="620.024"/>
      <point x="116.775" y="641.333"/>
      <point x="143.667" y="641.333" type="curve" smooth="yes"/>
      <point x="170.781" y="641.333"/>
      <point x="176.667" y="620.409"/>
      <point x="176.667" y="586" type="curve" smooth="yes"/>
      <point x="176.667" y="399.333" type="line" smooth="yes"/>
      <point x="176.667" y="362.781"/>
      <point x="168.383" y="343.393"/>
    </contour>
    <contour>
      <point x="611.667" y="-8.33367" type="curve" smooth="yes"/>
      <point x="686.962" y="-8.33367"/>
      <point x="723.667" y="30.6873"/>
      <point x="723.667" y="111.666" type="curve" smooth="yes"/>
      <point x="723.667" y="314.333" type="line" smooth="yes"/>
      <point x="723.667" y="394.374"/>
      <point x="686.556" y="433.666"/>
      <point x="611.667" y="433.666" type="curve" smooth="yes"/>
      <point x="537.592" y="433.666"/>
      <point x="500.667" y="394.466"/>
      <point x="500.667" y="314.333" type="curve" smooth="yes"/>
      <point x="500.667" y="111.666" type="line" smooth="yes"/>
      <point x="500.667" y="31.3953"/>
      <point x="537.848" y="-8.33367"/>
    </contour>
    <contour>
      <point x="611.667" y="63.6663" type="curve" smooth="yes"/>
      <point x="586.579" y="63.6073"/>
      <point x="580" y="83.7883"/>
      <point x="580" y="119.666" type="curve" smooth="yes"/>
      <point x="580" y="306.333" type="line" smooth="yes"/>
      <point x="580" y="340.357"/>
      <point x="584.775" y="361.666"/>
      <point x="611.667" y="361.666" type="curve" smooth="yes"/>
      <point x="638.781" y="361.666"/>
      <point x="644.667" y="340.742"/>
      <point x="644.667" y="306.333" type="curve" smooth="yes"/>
      <point x="644.667" y="119.666" type="line" smooth="yes"/>
      <point x="644.667" y="83.1143"/>
      <point x="636.383" y="63.7263"/>
    </contour>
  </outline>
</glyph>
<glyph name="ampersand" format="2">
  <advance width="528"/>
  <unicode hex="0026"/>
  <outline>
    <contour>
      <point x="357" y="242.667" type="line"/>
      <point x="283.667" y="366.667" type="line"/>
      <point x="356.621" y="445.548"/>
      <point x="387.667" y="505.339"/>
      <point x="387.667" y="565.667" type="curve" smooth="yes"/>
      <point x="387.667" y="656.404"/>
      <point x="327.477" y="717"/>
      <point x="236.667" y="717" type="curve" smooth="yes"/>
      <point x="146.275" y="717"/>
      <point x="84.667" y="656.176"/>
      <point x="84.667" y="565.667" type="curve" smooth="yes"/>
      <point x="84.667" y="500.767"/>
      <point x="119.329" y="436.139"/>
      <point x="160.667" y="379.333" type="curve"/>
      <point x="76.144" y="286.444"/>
      <point x="43" y="223.005"/>
      <point x="43" y="153.667" type="curve" smooth="yes"/>
      <point x="43" y="54.192"/>
      <point x="104.563" y="-10"/>
      <point x="200" y="-10" type="curve" smooth="yes"/>
      <point x="264.295" y="-10"/>
      <point x="311.969" y="13.725"/>
      <point x="349.333" y="65" type="curve"/>
      <point x="360.429" y="47.932" type="line" smooth="yes"/>
      <point x="383.145" y="14.802"/>
      <point x="398.82" y="-0.333"/>
      <point x="440" y="-0.333" type="curve" smooth="yes"/>
      <point x="484" y="-0.333" type="line"/>
      <point x="484" y="91.667" type="line"/>
      <point x="472.333" y="91.667" type="line" smooth="yes"/>
      <point x="453.985" y="91.667"/>
      <point x="441.194" y="101.681"/>
      <point x="430.667" y="119.667" type="curve" smooth="yes"/>
      <point x="409" y="156.667" type="line"/>
      <point x="482" y="272.667" type="line"/>
      <point x="407" y="324" type="line"/>
    </contour>
    <contour>
      <point x="231" y="454" type="curve"/>
      <point x="209.371" y="485.849"/>
      <point x="185.667" y="533.601"/>
      <point x="185.667" y="570.667" type="curve" smooth="yes"/>
      <point x="185.667" y="605.462"/>
      <point x="202.098" y="633.667"/>
      <point x="237.333" y="633.667" type="curve" smooth="yes"/>
      <point x="269.164" y="633.667"/>
      <point x="287.667" y="610.339"/>
      <point x="287.667" y="570.667" type="curve" smooth="yes"/>
      <point x="287.667" y="532.263"/>
      <point x="272.753" y="501.622"/>
    </contour>
    <contour>
      <point x="299.333" y="148.667" type="line"/>
      <point x="268.978" y="104.402"/>
      <point x="243.268" y="86"/>
      <point x="211.333" y="86" type="curve" smooth="yes"/>
      <point x="167.764" y="86"/>
      <point x="147.333" y="119.657"/>
      <point x="147.333" y="163" type="curve" smooth="yes"/>
      <point x="147.333" y="205.121"/>
      <point x="165.871" y="242.635"/>
      <point x="212" y="294.333" type="curve"/>
    </contour>
  </outline>
</glyph>
<glyph name="quotesingle" format="2">
  <advance width="168"/>
  <unicode hex="0027"/>
  <outline>
    <contour>
      <point x="34" y="428.333" type="line"/>
      <point x="134" y="428.333" type="line"/>
      <point x="134" y="707" type="line"/>
      <point x="34" y="707" type="line"/>
    </contour>
  </outline>
</glyph>
<glyph name="parenleft" format="2">
  <advance width="274"/>
  <unicode hex="0028"/>
  <outline>
    <contour>
      <point x="231.333" y="-86" type="line"/>
      <point x="174.799" y="48.816"/>
      <point x="144.667" y="195.019"/>
      <point x="144.667" y="336" type="curve" smooth="yes"/>
      <point x="144.667" y="476.758"/>
      <point x="174.706" y="622.532"/>
      <point x="231.333" y="758" type="curve"/>
      <point x="143.333" y="758" type="line"/>
      <point x="77.431" y="632.19"/>
      <point x="43" y="485.989"/>
      <point x="43" y="336" type="curve" smooth="yes"/>
      <point x="43" y="186.94"/>
      <point x="78.22" y="38.906"/>
      <point x="143.333" y="-86" type="curve"/>
    </contour>
  </outline>
</glyph>
<glyph name="parenright" format="2">
  <advance width="274"/>
  <unicode hex="0029"/>
  <outline>
    <contour>
      <point x="130.667" y="-86" type="line"/>
      <point x="196.236" y="40.695"/>
      <point x="231.333" y="186.697"/>
      <point x="231.333" y="336" type="curve" smooth="yes"/>
      <point x="231.333" y="485.525"/>
      <point x="196.134" y="631.95"/>
      <point x="130.667" y="758" type="curve"/>
      <point x="43" y="758" type="line"/>
      <point x="100.39" y="621.206"/>
      <point x="129.667" y="477.203"/>
      <point x="129.667" y="336" type="curve" smooth="yes"/>
      <point x="129.667" y="191.589"/>
      <point x="100.524" y="48.201"/>
      <point x="43" y="-86" type="curve"/>
    </contour>
  </outline>
</glyph>
<glyph name="asterisk" format="2">
  <advance width="348"/>
  <unicode hex="002A"/>
  <outline>
    <contour>
      <point x="71.667" y="468.333" type="line"/>
      <point x="143" y="510" type="line"/>
      <point x="143" y="407" type="line"/>
      <point x="205.333" y="407" type="line"/>
      <point x="205.333" y="508.667" type="line"/>
      <point x="276.667" y="467" type="line"/>
      <point x="305" y="515.667" type="line"/>
      <point x="229.333" y="559.667" type="line"/>
      <point x="304" y="602.333" type="line"/>
      <point x="276.667" y="650.333" type="line"/>
      <point x="205.333" y="608.667" type="line"/>
      <point x="205.333" y="707" type="line"/>
      <point x="143" y="707" type="line"/>
      <point x="143" y="610.333" type="line"/>
      <point x="71.667" y="652" type="line"/>
      <point x="43" y="602.333" type="line"/>
      <point x="117.667" y="559" type="line"/>
      <point x="43.667" y="516.333" type="line"/>
    </contour>
  </outline>
</glyph>
<glyph name="plus" format="2">
  <advance width="429"/>
  <unicode hex="002B"/>
  <outline>
    <contour>
      <point x="35.667" y="233" type="line"/>
      <point x="166" y="233" type="line"/>
      <point x="166" y="103" type="line"/>
      <point x="263.667" y="103" type="line"/>
      <point x="263.667" y="233" type="line"/>
      <point x="394" y="233" type="line"/>
      <point x="394" y="331.333" type="line"/>
      <point x="263.667" y="331.333" type="line"/>
      <point x="263.667" y="461.667" type="line"/>
      <point x="166" y="461.667" type="line"/>
      <point x="166" y="331.333" type="line"/>
      <point x="35.667" y="331.333" type="line"/>
    </contour>
  </outline>
</glyph>
<glyph name="zero" format="2">
  <advance width="416"/>
  <unicode hex="0030"/>
  <outline>
    <contour>
      <point x="208.333" y="-9.667" type="curve" smooth="yes"/>
      <point x="318.111" y="-9.667"/>
      <point x="373" y="55.111"/>
      <point x="373" y="186" type="curve" smooth="yes"/>
      <point x="373" y="521.667" type="line" smooth="yes"/>
      <point x="373" y="652.556"/>
      <point x="318.333" y="717.333"/>
      <point x="208.333" y="717.333" type="curve" smooth="yes"/>
      <point x="98.11" y="717.333"/>
      <point x="43.667" y="652.333"/>
      <point x="43.667" y="521.667" type="curve" smooth="yes"/>
      <point x="43.667" y="186" type="line" smooth="yes"/>
      <point x="43.667" y="55.111"/>
      <point x="98.111" y="-9.667"/>
    </contour>
    <contour>
      <point x="208.333" y="87.667" type="curve" smooth="yes"/>
      <point x="162.196" y="87.925"/>
      <point x="152.667" y="136.461"/>
      <point x="152.667" y="190.333" type="curve" smooth="yes"/>
      <point x="152.667" y="517" type="line" smooth="yes"/>
      <point x="152.667" y="572.2"/>
      <point x="161.039" y="619.258"/>
      <point x="208.333" y="619" type="curve" smooth="yes"/>
      <point x="255.505" y="618.742"/>
      <point x="265" y="572.985"/>
      <point x="265" y="517" type="curve" smooth="yes"/>
      <point x="265" y="190.333" type="line" smooth="yes"/>
      <point x="265" y="136.477"/>
      <point x="253.473" y="87.409"/>
    </contour>
  </outline>
</glyph>
<glyph name="three" format="2">
  <advance width="410"/>
  <unicode hex="0033"/>
  <outline>
    <contour>
      <point x="38.667" y="198" type="line"/>
      <point x="38.667" y="148.333" type="line" smooth="yes"/>
      <point x="38.667" y="48"/>
      <point x="98.155" y="-9.667"/>
      <point x="201.667" y="-9.667" type="curve" smooth="yes"/>
      <point x="306.815" y="-9.667"/>
      <point x="367" y="51.472"/>
      <point x="367" y="158.333" type="curve" smooth="yes"/>
      <point x="367" y="231" type="line" smooth="yes"/>
      <point x="367" y="311.121"/>
      <point x="348.008" y="347.175"/>
      <point x="294" y="369.667" type="curve"/>
      <point x="345.21" y="392.078"/>
      <point x="365.667" y="429.561"/>
      <point x="365.667" y="501" type="curve" smooth="yes"/>
      <point x="365.667" y="553" type="line" smooth="yes"/>
      <point x="365.667" y="657.32"/>
      <point x="306.683" y="716.667"/>
      <point x="203" y="716.667" type="curve" smooth="yes"/>
      <point x="100.092" y="716.667"/>
      <point x="39.333" y="657.531"/>
      <point x="39.333" y="557.333" type="curve" smooth="yes"/>
      <point x="39.333" y="510" type="line"/>
      <point x="145.333" y="510" type="line"/>
      <point x="145.333" y="552.333" type="line" smooth="yes"/>
      <point x="145.333" y="595.49"/>
      <point x="164.643" y="618.333"/>
      <point x="201" y="618.333" type="curve" smooth="yes"/>
      <point x="238.647" y="618.333"/>
      <point x="257.333" y="594.371"/>
      <point x="257.333" y="545.667" type="curve" smooth="yes"/>
      <point x="257.333" y="488" type="line" smooth="yes"/>
      <point x="257.333" y="434.041"/>
      <point x="240.444" y="413.333"/>
      <point x="196.667" y="413.333" type="curve" smooth="yes"/>
      <point x="167.333" y="413.333" type="line"/>
      <point x="167.333" y="316" type="line"/>
      <point x="195.333" y="316" type="line" smooth="yes"/>
      <point x="241.036" y="316"/>
      <point x="258.333" y="294.22"/>
      <point x="258.333" y="236" type="curve" smooth="yes"/>
      <point x="258.333" y="161.333" type="line" smooth="yes"/>
      <point x="258.333" y="110.41"/>
      <point x="240.518" y="87.667"/>
      <point x="201.333" y="87.667" type="curve" smooth="yes"/>
      <point x="164.869" y="87.667"/>
      <point x="144.667" y="111.389"/>
      <point x="144.667" y="154.333" type="curve" smooth="yes"/>
      <point x="144.667" y="198" type="line"/>
    </contour>
  </outline>
</glyph>
<glyph name="four" format="2">
  <advance width="433"/>
  <unicode hex="0034"/>
  <outline>
    <contour>
      <point x="31" y="126" type="line"/>
      <point x="244" y="126" type="line"/>
      <point x="244" y="0" type="line"/>
      <point x="353" y="0" type="line"/>
      <point x="353" y="126" type="line"/>
      <point x="403" y="126" type="line"/>
      <point x="403" y="223.667" type="line"/>
      <point x="353" y="223.667" type="line"/>
      <point x="353" y="389.333" type="line"/>
      <point x="244" y="389.333" type="line"/>
      <point x="244" y="223.667" type="line"/>
      <point x="139.333" y="223.667" type="line"/>
      <point x="282.667" y="707" type="line"/>
      <point x="173.667" y="707" type="line"/>
      <point x="31" y="223.667" type="line"/>
    </contour>
  </outline>
</glyph>
<glyph name="five" format="2">
  <advance width="412"/>
  <unicode hex="0035"/>
  <outline>
    <contour>
      <point x="43.667" y="186" type="line"/>
      <point x="43.667" y="158" type="line" smooth="yes"/>
      <point x="43.667" y="49.807"/>
      <point x="101.367" y="-9.667"/>
      <point x="206.333" y="-9.667" type="curve" smooth="yes"/>
      <point x="313.908" y="-9.667"/>
      <point x="369.333" y="49.353"/>
      <point x="369.333" y="164" type="curve" smooth="yes"/>
      <point x="369.333" y="293" type="line" smooth="yes"/>
      <point x="369.333" y="403.444"/>
      <point x="324.111" y="458.667"/>
      <point x="233.667" y="458.667" type="curve" smooth="yes"/>
      <point x="200.013" y="458.667"/>
      <point x="171.683" y="448.505"/>
      <point x="151.667" y="429.333" type="curve"/>
      <point x="151.667" y="607" type="line"/>
      <point x="367.333" y="607" type="line"/>
      <point x="367.333" y="707" type="line"/>
      <point x="51.667" y="707" type="line"/>
      <point x="51.667" y="322.333" type="line"/>
      <point x="149.667" y="322.333" type="line"/>
      <point x="162.014" y="349.948"/>
      <point x="180.052" y="363"/>
      <point x="205.667" y="363" type="curve" smooth="yes"/>
      <point x="242.81" y="363"/>
      <point x="260.667" y="339.063"/>
      <point x="260.667" y="289.333" type="curve" smooth="yes"/>
      <point x="260.667" y="164.333" type="line" smooth="yes"/>
      <point x="260.667" y="111.159"/>
      <point x="243.383" y="87"/>
      <point x="205.333" y="87" type="curve"/>
      <point x="167.846" y="87.222"/>
      <point x="150" y="111.227"/>
      <point x="150" y="161.667" type="curve" smooth="yes"/>
      <point x="150" y="186" type="line"/>
    </contour>
  </outline>
</glyph>
<glyph name="six" format="2">
  <advance width="407"/>
  <unicode hex="0036"/>
  <outline>
    <contour>
      <point x="199.333" y="707" type="line"/>
      <point x="73.667" y="418" type="line" smooth="yes"/>
      <point x="47.792" y="357.622"/>
      <point x="39.333" y="320.669"/>
      <point x="39.333" y="264.333" type="curve" smooth="yes"/>
      <point x="39.333" y="160.333" type="line" smooth="yes"/>
      <point x="39.333" y="52.601"/>
      <point x="99.119" y="-9.667"/>
      <point x="204.333" y="-9.667" type="curve" smooth="yes"/>
      <point x="307.407" y="-9.667"/>
      <point x="368.667" y="52.765"/>
      <point x="368.667" y="157" type="curve" smooth="yes"/>
      <point x="368.667" y="278" type="line" smooth="yes"/>
      <point x="368.667" y="374.019"/>
      <point x="317.649" y="432.667"/>
      <point x="234.333" y="432.667" type="curve" smooth="yes"/>
      <point x="215.667" y="432.667"/>
      <point x="199.333" y="429.417"/>
      <point x="189.667" y="423.333" type="curve"/>
      <point x="311" y="707" type="line"/>
    </contour>
    <contour>
      <point x="148.333" y="156.333" type="curve" smooth="yes"/>
      <point x="148.333" y="274.667" type="line" smooth="yes"/>
      <point x="148.333" y="315.056"/>
      <point x="168.062" y="337.333"/>
      <point x="204.333" y="337.333" type="curve"/>
      <point x="240.515" y="336.667"/>
      <point x="260" y="313.381"/>
      <point x="260" y="269.333" type="curve" smooth="yes"/>
      <point x="260" y="156.667" type="line" smooth="yes"/>
      <point x="260" y="113.005"/>
      <point x="239.905" y="87.667"/>
      <point x="204.333" y="87.667" type="curve"/>
      <point x="167.815" y="88.333"/>
      <point x="148.333" y="111.711"/>
    </contour>
  </outline>
</glyph>
<glyph name="seven" format="2">
  <advance width="383"/>
  <unicode hex="0037"/>
  <outline>
    <contour>
      <point x="69.667" y="0" type="line"/>
      <point x="178.333" y="0" type="line"/>
      <point x="357.333" y="608.667" type="line"/>
      <point x="357.333" y="609.012"/>
      <point x="357.333" y="704.364"/>
      <point x="357.333" y="707" type="curve"/>
      <point x="26.667" y="707" type="line"/>
      <point x="26.667" y="608.667" type="line"/>
      <point x="248.667" y="608.667" type="line"/>
    </contour>
  </outline>
</glyph>
<glyph name="eight" format="2">
  <advance width="417"/>
  <unicode hex="0038"/>
  <outline>
    <contour>
      <point x="107.333" y="370.333" type="curve"/>
      <point x="64.889" y="344.333"/>
      <point x="43.667" y="300.444"/>
      <point x="43.667" y="238.667" type="curve" smooth="yes"/>
      <point x="43.667" y="164.333" type="line" smooth="yes"/>
      <point x="43.667" y="52.916"/>
      <point x="102.979" y="-9.667"/>
      <point x="208.667" y="-9.667" type="curve" smooth="yes"/>
      <point x="314.357" y="-9.667"/>
      <point x="373.667" y="52.898"/>
      <point x="373.667" y="164.333" type="curve" smooth="yes"/>
      <point x="373.667" y="238.667" type="line" smooth="yes"/>
      <point x="373.667" y="301.551"/>
      <point x="352.625" y="345.304"/>
      <point x="310.333" y="370.333" type="curve"/>
      <point x="347.74" y="390.717"/>
      <point x="372.333" y="438.341"/>
      <point x="372.333" y="490.333" type="curve" smooth="yes"/>
      <point x="372.333" y="556.667" type="line" smooth="yes"/>
      <point x="372.333" y="655.417"/>
      <point x="309.703" y="716.667"/>
      <point x="208.667" y="716.667" type="curve" smooth="yes"/>
      <point x="109.219" y="716.667"/>
      <point x="45" y="653.885"/>
      <point x="45" y="556.667" type="curve" smooth="yes"/>
      <point x="45" y="490.333" type="line" smooth="yes"/>
      <point x="45" y="437.338"/>
      <point x="69.352" y="390.428"/>
    </contour>
    <contour>
      <point x="152.667" y="486.333" type="curve" smooth="yes"/>
      <point x="152.667" y="556" type="line" smooth="yes"/>
      <point x="152.667" y="597.702"/>
      <point x="172.585" y="620.667"/>
      <point x="208.667" y="620.667" type="curve" smooth="yes"/>
      <point x="245.004" y="620.667"/>
      <point x="265" y="597.753"/>
      <point x="265" y="556" type="curve" smooth="yes"/>
      <point x="265" y="486.333" type="line" smooth="yes"/>
      <point x="265" y="437.47"/>
      <point x="246.427" y="413.667"/>
      <point x="208.667" y="413.667" type="curve" smooth="yes"/>
      <point x="171.625" y="413.667"/>
      <point x="152.667" y="438.149"/>
    </contour>
    <contour>
      <point x="151.333" y="164.333" type="curve" smooth="yes"/>
      <point x="151.333" y="245.333" type="line" smooth="yes"/>
      <point x="151.333" y="295.02"/>
      <point x="170.39" y="319.667"/>
      <point x="208.667" y="319.667" type="curve" smooth="yes"/>
      <point x="247" y="319.667"/>
      <point x="266.333" y="294.737"/>
      <point x="266.333" y="245.333" type="curve" smooth="yes"/>
      <point x="266.333" y="164.333" type="line" smooth="yes"/>
      <point x="266.333" y="109.182"/>
      <point x="248.752" y="85.333"/>
      <point x="208.667" y="85.333" type="curve" smooth="yes"/>
      <point x="169.844" y="85.333"/>
      <point x="151.333" y="110.667"/>
    </contour>
  </outline>
</glyph>
<glyph name="nine" format="2">
  <advance width="407"/>
  <unicode hex="0039"/>
  <outline>
    <contour>
      <point x="97.333" y="0" type="line"/>
      <point x="209" y="0" type="line"/>
      <point x="335.333" y="288.667" type="line" smooth="yes"/>
      <point x="360.83" y="346.079"/>
      <point x="368.667" y="382.99"/>
      <point x="368.667" y="442" type="curve" smooth="yes"/>
      <point x="368.667" y="546.667" type="line" smooth="yes"/>
      <point x="368.667" y="656.039"/>
      <point x="310.756" y="716.667"/>
      <point x="205" y="716.667" type="curve" smooth="yes"/>
      <point x="100.396" y="716.667"/>
      <point x="39.333" y="655.379"/>
      <point x="39.333" y="550" type="curve" smooth="yes"/>
      <point x="39.333" y="428.667" type="line" smooth="yes"/>
      <point x="39.333" y="332.307"/>
      <point x="90.46" y="273.667"/>
      <point x="173.667" y="273.667" type="curve" smooth="yes"/>
      <point x="193.413" y="273.667"/>
      <point x="209.324" y="276.91"/>
      <point x="219" y="283" type="curve"/>
    </contour>
    <contour>
      <point x="148.333" y="436.667" type="curve" smooth="yes"/>
      <point x="148.333" y="550.333" type="line" smooth="yes"/>
      <point x="148.333" y="595.183"/>
      <point x="167.823" y="618.333"/>
      <point x="205" y="618.333" type="curve" smooth="yes"/>
      <point x="241.278" y="618.333"/>
      <point x="260" y="595.044"/>
      <point x="260" y="550.667" type="curve" smooth="yes"/>
      <point x="260" y="432" type="line" smooth="yes"/>
      <point x="260" y="392.158"/>
      <point x="239.832" y="369.333"/>
      <point x="205" y="369.333" type="curve" smooth="yes"/>
      <point x="167.823" y="369.333"/>
      <point x="148.333" y="392.483"/>
    </contour>
  </outline>
</glyph>
<glyph name="colon" format="2">
  <advance width="174"/>
  <unicode hex="003A"/>
  <outline>
    <contour>
      <point x="34" y="0" type="line"/>
      <point x="140.667" y="0" type="line"/>
      <point x="140.667" y="120.333" type="line"/>
      <point x="34" y="120.333" type="line"/>
    </contour>
    <contour>
      <point x="34" y="346" type="line"/>
      <point x="140.667" y="346" type="line"/>
      <point x="140.667" y="466.333" type="line"/>
      <point x="34" y="466.333" type="line"/>
    </contour>
  </outline>
</glyph>
<glyph name="semicolon" format="2">
  <advance width="174"/>
  <unicode hex="003B"/>
  <outline>
    <contour>
      <point x="34" y="346" type="line"/>
      <point x="140.667" y="346" type="line"/>
      <point x="140.667" y="466.333" type="line"/>
      <point x="34" y="466.333" type="line"/>
    </contour>
    <contour>
      <point x="39.333" y="-157.333" type="line"/>
      <point x="140" y="-75.333" type="line"/>
      <point x="140" y="122.333" type="line"/>
      <point x="39.333" y="122.333" type="line"/>
    </contour>
  </outline>
</glyph>
<glyph name="less" format="2">
  <advance width="429"/>
  <unicode hex="003C"/>
  <outline>
    <contour>
      <point x="35.667" y="242" type="line"/>
      <point x="385.333" y="100" type="line"/>
      <point x="385.333" y="190.667" type="line"/>
      <point x="148.667" y="283" type="line"/>
      <point x="385.333" y="375" type="line"/>
      <point x="385.333" y="465.333" type="line"/>
      <point x="35.667" y="323.667" type="line"/>
    </contour>
  </outline>
</glyph>
<glyph name="equal" format="2">
  <advance width="429"/>
  <unicode hex="003D"/>
  <outline>
    <contour>
      <point x="35.667" y="336.667" type="line"/>
      <point x="385.333" y="336.667" type="line"/>
      <point x="385.333" y="423" type="line"/>
      <point x="35.667" y="423" type="line"/>
    </contour>
    <contour>
      <point x="35.667" y="141" type="line"/>
      <point x="385.333" y="141" type="line"/>
      <point x="385.333" y="228" type="line"/>
      <point x="35.667" y="228" type="line"/>
    </contour>
  </outline>
</glyph>
<glyph name="greater" format="2">
  <advance width="429"/>
  <unicode hex="003E"/>
  <outline>
    <contour>
      <point x="35.667" y="100" type="line"/>
      <point x="385.333" y="242" type="line"/>
      <point x="385.333" y="323.667" type="line"/>
      <point x="35.667" y="465.333" type="line"/>
      <point x="35.667" y="375" type="line"/>
      <point x="271.667" y="283" type="line"/>
      <point x="35.667" y="190.667" type="line"/>
    </contour>
  </outline>
</glyph>
<glyph name="question" format="2">
  <advance width="380"/>
  <unicode hex="003F"/>
  <outline>
    <contour>
      <point x="136.333" y="196" type="line"/>
      <point x="236.667" y="196" type="line"/>
      <point x="236.667" y="247.667" type="line" smooth="yes"/>
      <point x="236.667" y="292.015"/>
      <point x="242.344" y="312.746"/>
      <point x="263.333" y="344.333" type="curve" smooth="yes"/>
      <point x="302.667" y="404" type="line" smooth="yes"/>
      <point x="334.962" y="452.631"/>
      <point x="350" y="492.293"/>
      <point x="350" y="548.667" type="curve" smooth="yes"/>
      <point x="350" y="654.295"/>
      <point x="289.541" y="716.333"/>
      <point x="186.667" y="716.333" type="curve" smooth="yes"/>
      <point x="77.111" y="716.333"/>
      <point x="23.667" y="650.222"/>
      <point x="23.667" y="514" type="curve"/>
      <point x="127.667" y="514" type="line"/>
      <point x="127.667" y="571.237"/>
      <point x="142.584" y="622"/>
      <point x="186.333" y="622" type="curve" smooth="yes"/>
      <point x="228.897" y="622"/>
      <point x="244.333" y="591.76"/>
      <point x="244.333" y="546.667" type="curve" smooth="yes"/>
      <point x="244.333" y="507.619"/>
      <point x="237.635" y="482.575"/>
      <point x="214" y="444.667" type="curve" smooth="yes"/>
      <point x="175.667" y="383" type="line" smooth="yes"/>
      <point x="143.551" y="331.63"/>
      <point x="136.333" y="304.04"/>
      <point x="136.333" y="248.667" type="curve" smooth="yes"/>
    </contour>
    <contour>
      <point x="135.333" y="0" type="line"/>
      <point x="237.333" y="0" type="line"/>
      <point x="237.333" y="119.667" type="line"/>
      <point x="135.333" y="119.667" type="line"/>
    </contour>
  </outline>
</glyph>
<glyph name="at" format="2">
  <advance width="738"/>
  <unicode hex="0040"/>
  <outline>
    <contour>
      <point x="536.667" y="-1.333" type="line"/>
      <point x="484.346" y="-37.03"/>
      <point x="435.586" y="-51.667"/>
      <point x="369" y="-51.667" type="curve" smooth="yes"/>
      <point x="215.25" y="-51.667"/>
      <point x="133.667" y="40.363"/>
      <point x="133.667" y="214" type="curve" smooth="yes"/>
      <point x="133.667" y="375.667" type="line" smooth="yes"/>
      <point x="133.667" y="542.169"/>
      <point x="216.169" y="632"/>
      <point x="369" y="632" type="curve" smooth="yes"/>
      <point x="520.039" y="632"/>
      <point x="606" y="543.379"/>
      <point x="606" y="387.667" type="curve" smooth="yes"/>
      <point x="606" y="209.333" type="line" smooth="yes"/>
      <point x="606" y="161.096"/>
      <point x="591.243" y="139.667"/>
      <point x="558" y="139.667" type="curve" smooth="yes"/>
      <point x="528.983" y="139.667"/>
      <point x="511.333" y="160.468"/>
      <point x="511.333" y="194.667" type="curve" smooth="yes"/>
      <point x="511.333" y="505.333" type="line"/>
      <point x="416" y="505.333" type="line"/>
      <point x="416" y="466.333" type="line"/>
      <point x="397.47" y="498.934"/>
      <point x="372.267" y="513.333"/>
      <point x="334" y="513.333" type="curve" smooth="yes"/>
      <point x="261.117" y="513.333"/>
      <point x="226.333" y="466.594"/>
      <point x="226.333" y="368.667" type="curve" smooth="yes"/>
      <point x="226.333" y="210.667" type="line" smooth="yes"/>
      <point x="226.333" y="107.928"/>
      <point x="262.895" y="57"/>
      <point x="336.667" y="57" type="curve" smooth="yes"/>
      <point x="390.219" y="57"/>
      <point x="423.091" y="78.891"/>
      <point x="439.333" y="125.333" type="curve"/>
      <point x="459.931" y="81.472"/>
      <point x="502.054" y="57"/>
      <point x="557" y="57" type="curve" smooth="yes"/>
      <point x="646.089" y="57"/>
      <point x="694.667" y="114.859"/>
      <point x="694.667" y="221" type="curve" smooth="yes"/>
      <point x="694.667" y="382" type="line" smooth="yes"/>
      <point x="694.667" y="583.941"/>
      <point x="566.086" y="715.667"/>
      <point x="369" y="715.667" type="curve" smooth="yes"/>
      <point x="170.801" y="715.667"/>
      <point x="43" y="582.638"/>
      <point x="43" y="376.333" type="curve" smooth="yes"/>
      <point x="43" y="207" type="line" smooth="yes"/>
      <point x="43" y="-4.778"/>
      <point x="167.122" y="-135"/>
      <point x="369" y="-135" type="curve" smooth="yes"/>
      <point x="449.344" y="-135"/>
      <point x="519.436" y="-113.031"/>
      <point x="583" y="-68" type="curve"/>
    </contour>
    <contour>
      <point x="368.667" y="141.667" type="curve" smooth="yes"/>
      <point x="336.016" y="141.667"/>
      <point x="321" y="162.877"/>
      <point x="321" y="209" type="curve" smooth="yes"/>
      <point x="321" y="365" type="line" smooth="yes"/>
      <point x="321" y="408.485"/>
      <point x="336.442" y="429.333"/>
      <point x="368.667" y="429.333" type="curve" smooth="yes"/>
      <point x="401.638" y="429.333"/>
      <point x="417.333" y="408.481"/>
      <point x="417.333" y="364.667" type="curve" smooth="yes"/>
      <point x="417.333" y="211.333" type="line" smooth="yes"/>
      <point x="417.333" y="163.897"/>
      <point x="401.812" y="141.667"/>
    </contour>
  </outline>
</glyph>
<glyph name="A" format="2">
  <advance width="488"/>
  <unicode hex="0041"/>
  <anchor x="244.667" y="766.667" name="top"/>
  <anchor x="244.667" y="660.333" name="t.ring"/>
  <anchor x="244.667" y="-86" name="bottom"/>
  <anchor x="476.667" y="0" name="b.cedilla"/>
  <outline>
    <contour>
      <point x="7" y="0" type="line"/>
      <point x="120.333" y="0" type="line"/>
      <point x="154.667" y="151.333" type="line"/>
      <point x="333.667" y="151.333" type="line"/>
      <point x="367.333" y="0" type="line"/>
      <point x="481" y="0" type="line"/>
      <point x="296.667" y="707" type="line"/>
      <point x="192" y="707" type="line"/>
    </contour>
    <contour>
      <point x="175.333" y="248.333" type="line"/>
      <point x="244.667" y="556" type="line"/>
      <point x="313" y="248.333" type="line"/>
    </contour>
  </outline>
</glyph>
<glyph name="B" format="2">
  <advance width="471"/>
  <unicode hex="0042"/>
  <anchor x="202.333" y="766.667" name="top"/>
  <anchor x="202.333" y="-86" name="bottom"/>
  <outline>
    <contour>
      <point x="123.153" y="0" type="line"/>
      <point x="237" y="0" type="line" smooth="yes"/>
      <point x="370.573" y="0"/>
      <point x="428" y="60.514"/>
      <point x="428" y="201.667" type="curve" smooth="yes"/>
      <point x="428" y="296.333"/>
      <point x="402.222" y="346.111"/>
      <point x="342" y="369.667" type="curve"/>
      <point x="398" y="393.222"/>
      <point x="424.333" y="441.111"/>
      <point x="424.333" y="518" type="curve" smooth="yes"/>
      <point x="424.333" y="650.256"/>
      <point x="367.552" y="707"/>
      <point x="236.667" y="707" type="curve" smooth="yes"/>
      <point x="123.153" y="707" type="line"/>
      <point x="123.153" y="609.333" type="line"/>
      <point x="226.333" y="609.333" type="line" smooth="yes"/>
      <point x="291.437" y="609.333"/>
      <point x="315.333" y="582.844"/>
      <point x="315.333" y="511.333" type="curve" smooth="yes"/>
      <point x="315.333" y="443.555"/>
      <point x="288.667" y="415"/>
      <point x="226" y="415" type="curve" smooth="yes"/>
      <point x="123.153" y="415" type="line"/>
      <point x="123.153" y="320.333" type="line"/>
      <point x="225.667" y="320.333" type="line" smooth="yes"/>
      <point x="290.111" y="320.333"/>
      <point x="319" y="286.222"/>
      <point x="319" y="209.333" type="curve" smooth="yes"/>
      <point x="319" y="128.825"/>
      <point x="292.942" y="97.667"/>
      <point x="225.667" y="97.667" type="curve" smooth="yes"/>
      <point x="123.153" y="97.667" type="line"/>
    </contour>
    <contour>
      <point x="49" y="0" type="line"/>
      <point x="157.333" y="-0.003" type="line"/>
      <point x="157.333" y="707.152" type="line"/>
      <point x="49" y="707" type="line"/>
    </contour>
  </outline>
</glyph>
<glyph name="C" format="2">
  <advance width="482"/>
  <unicode hex="0043"/>
  <anchor x="242.667" y="766.667" name="top"/>
  <anchor x="213.667" y="0" name="b.cedilla"/>
  <anchor x="236" y="-86" name="bottom"/>
  <outline>
    <contour>
      <point x="329.667" y="213.333" type="line"/>
      <point x="329.667" y="198.333" type="line" smooth="yes"/>
      <point x="329.667" y="127.854"/>
      <point x="298.961" y="89.667"/>
      <point x="243" y="89.667" type="curve" smooth="yes"/>
      <point x="182.548" y="89.667"/>
      <point x="152.667" y="129.444"/>
      <point x="152.667" y="207.667" type="curve" smooth="yes"/>
      <point x="152.667" y="493.333" type="line" smooth="yes"/>
      <point x="152.667" y="577.19"/>
      <point x="182.323" y="618"/>
      <point x="243" y="618" type="curve" smooth="yes"/>
      <point x="298.432" y="618"/>
      <point x="329.667" y="578.413"/>
      <point x="329.667" y="508.667" type="curve" smooth="yes"/>
      <point x="329.667" y="492.333" type="line"/>
      <point x="438.667" y="492.333" type="line"/>
      <point x="438.667" y="510" type="line" smooth="yes"/>
      <point x="438.667" y="641.127"/>
      <point x="367.778" y="716.667"/>
      <point x="244.667" y="716.667" type="curve" smooth="yes"/>
      <point x="118.456" y="716.667"/>
      <point x="43.667" y="639.87"/>
      <point x="43.667" y="509" type="curve" smooth="yes"/>
      <point x="43.667" y="198.667" type="line" smooth="yes"/>
      <point x="43.667" y="67.183"/>
      <point x="115.705" y="-8"/>
      <point x="240.333" y="-8" type="curve" smooth="yes"/>
      <point x="364.222" y="-8"/>
      <point x="437.333" y="68.545"/>
      <point x="437.333" y="197.333" type="curve" smooth="yes"/>
      <point x="437.333" y="213.333" type="line"/>
    </contour>
  </outline>
</glyph>
<glyph name="D" format="2">
  <advance width="479"/>
  <unicode hex="0044"/>
  <anchor x="202.333" y="766.667" name="top"/>
  <anchor x="201.667" y="-86" name="bottom"/>
  <outline>
    <contour>
      <point x="49" y="0" type="line"/>
      <point x="236.333" y="0" type="line" smooth="yes"/>
      <point x="361.025" y="0"/>
      <point x="435" y="76.919"/>
      <point x="435" y="206.667" type="curve" smooth="yes"/>
      <point x="435" y="500.333" type="line" smooth="yes"/>
      <point x="435" y="631.636"/>
      <point x="364.556" y="707"/>
      <point x="241" y="707" type="curve" smooth="yes"/>
      <point x="49" y="707" type="line"/>
    </contour>
    <contour>
      <point x="157.333" y="97.667" type="line"/>
      <point x="157.333" y="608.667" type="line"/>
      <point x="239" y="608.667" type="line" smooth="yes"/>
      <point x="295.638" y="608.667"/>
      <point x="326" y="565.106"/>
      <point x="326" y="483" type="curve" smooth="yes"/>
      <point x="326" y="215.667" type="line" smooth="yes"/>
      <point x="326" y="139.261"/>
      <point x="295.333" y="97.667"/>
      <point x="239" y="97.667" type="curve" smooth="yes"/>
    </contour>
  </outline>
</glyph>
<glyph name="E" format="2">
  <advance width="393"/>
  <unicode hex="0045"/>
  <anchor x="223.333" y="766.667" name="top"/>
  <anchor x="223.333" y="-86" name="bottom"/>
  <anchor x="364" y="0" name="b.cedilla"/>
  <outline>
    <contour>
      <point x="49" y="0" type="line"/>
      <point x="364" y="0" type="line"/>
      <point x="364" y="97.667" type="line"/>
      <point x="157" y="97.667" type="line"/>
      <point x="157" y="310.667" type="line"/>
      <point x="335.333" y="310.667" type="line"/>
      <point x="335.333" y="408.333" type="line"/>
      <point x="157" y="408.333" type="line"/>
      <point x="157" y="608.667" type="line"/>
      <point x="364" y="608.667" type="line"/>
      <point x="364" y="707" type="line"/>
      <point x="49" y="707" type="line"/>
    </contour>
  </outline>
</glyph>
<glyph name="F" format="2">
  <advance width="388"/>
  <unicode hex="0046"/>
  <anchor x="220.333" y="766.667" name="top"/>
  <anchor x="236" y="-86" name="bottom"/>
  <outline>
    <contour>
      <point x="137.64" y="307" type="line"/>
      <point x="336.333" y="307" type="line"/>
      <point x="336.333" y="405.333" type="line"/>
      <point x="137.64" y="405.333" type="line"/>
    </contour>
    <contour>
      <point x="138.153" y="608.667" type="line"/>
      <point x="364" y="608.667" type="line"/>
      <point x="364" y="707" type="line"/>
      <point x="138.153" y="707" type="line"/>
    </contour>
    <contour>
      <point x="49" y="0" type="line"/>
      <point x="158" y="0" type="line"/>
      <point x="158" y="707.039" type="line"/>
      <point x="49" y="707" type="line"/>
    </contour>
  </outline>
</glyph>
<glyph name="G" format="2">
  <advance width="482"/>
  <unicode hex="0047"/>
  <anchor x="246" y="766.667" name="top"/>
  <anchor x="246" y="-86" name="bottom"/>
  <outline>
    <contour>
      <point x="241.667" y="285.333" type="line"/>
      <point x="329.667" y="285.333" type="line"/>
      <point x="329.667" y="202.667" type="line" smooth="yes"/>
      <point x="329.667" y="129.192"/>
      <point x="299.312" y="89.667"/>
      <point x="242.667" y="89.667" type="curve" smooth="yes"/>
      <point x="182.437" y="89.667"/>
      <point x="152.667" y="129.444"/>
      <point x="152.667" y="207.667" type="curve" smooth="yes"/>
      <point x="152.667" y="493.333" type="line" smooth="yes"/>
      <point x="152.667" y="576.889"/>
      <point x="182.444" y="618"/>
      <point x="242.667" y="618" type="curve" smooth="yes"/>
      <point x="296.623" y="618"/>
      <point x="329.667" y="579.998"/>
      <point x="329.667" y="518.667" type="curve" smooth="yes"/>
      <point x="329.667" y="500.667" type="line"/>
      <point x="438.667" y="500.667" type="line"/>
      <point x="438.667" y="518.667" type="line" smooth="yes"/>
      <point x="438.667" y="642.374"/>
      <point x="366.472" y="716.667"/>
      <point x="244.667" y="716.667" type="curve" smooth="yes"/>
      <point x="118.456" y="716.667"/>
      <point x="43.667" y="639.87"/>
      <point x="43.667" y="509" type="curve" smooth="yes"/>
      <point x="43.667" y="198.667" type="line" smooth="yes"/>
      <point x="43.667" y="66.924"/>
      <point x="115.347" y="-8"/>
      <point x="240" y="-8" type="curve" smooth="yes"/>
      <point x="363.456" y="-8"/>
      <point x="438.667" y="70.02"/>
      <point x="438.667" y="198.333" type="curve" smooth="yes"/>
      <point x="438.667" y="372" type="line"/>
      <point x="241.667" y="372" type="line"/>
    </contour>
  </outline>
</glyph>
<glyph name="H" format="2">
  <advance width="477"/>
  <unicode hex="0048"/>
  <anchor x="238.333" y="766.667" name="top"/>
  <anchor x="238" y="-86" name="bottom"/>
  <outline>
    <contour>
      <point x="137.64" y="311" type="line"/>
      <point x="339.36" y="311" type="line"/>
      <point x="339.36" y="408.333" type="line"/>
      <point x="137.64" y="408.333" type="line"/>
    </contour>
    <contour>
      <point x="319" y="0" type="line"/>
      <point x="428" y="0" type="line"/>
      <point x="428" y="707" type="line"/>
      <point x="319" y="707" type="line"/>
    </contour>
    <contour>
      <point x="49" y="0" type="line"/>
      <point x="158" y="0" type="line"/>
      <point x="158" y="707" type="line"/>
      <point x="49" y="707" type="line"/>
    </contour>
  </outline>
</glyph>
<glyph name="I" format="2">
  <advance width="215"/>
  <unicode hex="0049"/>
  <anchor x="108.333" y="766.667" name="top"/>
  <anchor x="163" y="0" name="b.cedilla"/>
  <anchor x="108.333" y="-86" name="bottom"/>
  <outline>
    <contour>
      <point x="53.664" y="0" type="line"/>
      <point x="163.003" y="0" type="line"/>
      <point x="163.003" y="707" type="line"/>
      <point x="53.664" y="707" type="line"/>
    </contour>
  </outline>
</glyph>
<glyph name="J" format="2">
  <advance width="271"/>
  <unicode hex="004A"/>
  <anchor x="163" y="766.667" name="top"/>
  <anchor x="236" y="-86" name="bottom"/>
  <outline>
    <contour>
      <point x="19.667" y="0" type="line"/>
      <point x="48" y="0" type="line" smooth="yes"/>
      <point x="160.219" y="0"/>
      <point x="217.333" y="53.549"/>
      <point x="217.333" y="158.667" type="curve" smooth="yes"/>
      <point x="217.333" y="707" type="line"/>
      <point x="108.333" y="707" type="line"/>
      <point x="108.333" y="170.667" type="line" smooth="yes"/>
      <point x="108.333" y="122.457"/>
      <point x="85.811" y="98.333"/>
      <point x="40.667" y="98.333" type="curve" smooth="yes"/>
      <point x="19.667" y="98.333" type="line"/>
    </contour>
  </outline>
</glyph>
<glyph name="K" format="2">
  <advance width="471"/>
  <unicode hex="004B"/>
  <anchor x="231.333" y="766.667" name="top"/>
  <anchor x="240" y="-86" name="bottom"/>
  <outline>
    <contour>
      <point x="49" y="0" type="line"/>
      <point x="157.333" y="0" type="line"/>
      <point x="157.333" y="169.667" type="line"/>
      <point x="225.333" y="296.333" type="line"/>
      <point x="350" y="0" type="line"/>
      <point x="466.667" y="0" type="line"/>
      <point x="288.333" y="417" type="line"/>
      <point x="443" y="707" type="line"/>
      <point x="332.667" y="707" type="line"/>
      <point x="157.333" y="353.667" type="line"/>
      <point x="157.333" y="707" type="line"/>
      <point x="49" y="707" type="line"/>
    </contour>
  </outline>
</glyph>
<glyph name="L" format="2">
  <advance width="383"/>
  <unicode hex="004C"/>
  <anchor x="103.333" y="766.667" name="top"/>
  <anchor x="206" y="-86" name="bottom"/>
  <anchor x="290" y="397" name="dot"/>
  <outline>
    <contour>
      <point x="49" y="0" type="line"/>
      <point x="364" y="0" type="line"/>
      <point x="364" y="97.667" type="line"/>
      <point x="158" y="97.667" type="line"/>
      <point x="158" y="707" type="line"/>
      <point x="49" y="707" type="line"/>
    </contour>
  </outline>
</glyph>
<glyph name="M" format="2">
  <advance width="593"/>
  <unicode hex="004D"/>
  <anchor x="297" y="766.667" name="top"/>
  <anchor x="236" y="-86" name="bottom"/>
  <outline>
    <contour>
      <point x="49" y="0" type="line"/>
      <point x="158" y="0" type="line"/>
      <point x="158" y="454" type="line"/>
      <point x="266" y="146" type="line"/>
      <point x="327.667" y="146" type="line"/>
      <point x="436" y="457" type="line"/>
      <point x="436" y="0" type="line"/>
      <point x="545" y="0" type="line"/>
      <point x="545" y="707" type="line"/>
      <point x="436" y="707" type="line"/>
      <point x="297" y="312.667" type="line"/>
      <point x="158" y="707" type="line"/>
      <point x="49" y="707" type="line"/>
    </contour>
  </outline>
</glyph>
<glyph name="N" format="2">
  <advance width="495"/>
  <unicode hex="004E"/>
  <anchor x="248" y="766.667" name="top"/>
  <anchor x="248" y="-86" name="bottom"/>
  <outline>
    <contour>
      <point x="49" y="0" type="line"/>
      <point x="158" y="0" type="line"/>
      <point x="158" y="432.333" type="line"/>
      <point x="336.667" y="0" type="line"/>
      <point x="445.667" y="0" type="line"/>
      <point x="445.667" y="707" type="line"/>
      <point x="336.667" y="707" type="line"/>
      <point x="336.667" y="263" type="line"/>
      <point x="158" y="707" type="line"/>
      <point x="49" y="707" type="line"/>
    </contour>
  </outline>
</glyph>
<glyph name="O" format="2">
  <advance width="482"/>
  <unicode hex="004F"/>
  <anchor x="244.333" y="766.667" name="top"/>
  <anchor x="244.333" y="-86" name="bottom"/>
  <anchor x="208" y="0" name="b.cedilla"/>
  <outline>
    <contour>
      <point x="239.667" y="-8" type="curve" smooth="yes"/>
      <point x="363.135" y="-8"/>
      <point x="438.667" y="70.365"/>
      <point x="438.667" y="198.667" type="curve" smooth="yes"/>
      <point x="438.667" y="509" type="line" smooth="yes"/>
      <point x="438.667" y="640.763"/>
      <point x="367.654" y="716.667"/>
      <point x="244.333" y="716.667" type="curve" smooth="yes"/>
      <point x="118.036" y="716.667"/>
      <point x="43.667" y="640.205"/>
      <point x="43.667" y="509" type="curve" smooth="yes"/>
      <point x="43.667" y="198.667" type="line" smooth="yes"/>
      <point x="43.667" y="66.994"/>
      <point x="115.287" y="-8"/>
    </contour>
    <contour>
      <point x="242.667" y="89.667" type="curve" smooth="yes"/>
      <point x="182.437" y="89.667"/>
      <point x="152.667" y="129.444"/>
      <point x="152.667" y="207.667" type="curve" smooth="yes"/>
      <point x="152.667" y="493.333" type="line" smooth="yes"/>
      <point x="152.667" y="577.111"/>
      <point x="182.274" y="618"/>
      <point x="242.667" y="618" type="curve" smooth="yes"/>
      <point x="300.055" y="618"/>
      <point x="329.667" y="575.331"/>
      <point x="329.667" y="493.333" type="curve" smooth="yes"/>
      <point x="329.667" y="207.667" type="line" smooth="yes"/>
      <point x="329.667" y="133.649"/>
      <point x="297.361" y="89.667"/>
    </contour>
  </outline>
</glyph>
<glyph name="P" format="2">
  <advance width="446"/>
  <unicode hex="0050"/>
  <anchor x="230.667" y="766.667" name="top"/>
  <anchor x="236" y="-86" name="bottom"/>
  <outline>
    <contour>
      <point x="49" y="0" type="line"/>
      <point x="157.333" y="0" type="line"/>
      <point x="157.333" y="273.667" type="line"/>
      <point x="237" y="273.667" type="line" smooth="yes"/>
      <point x="366.556" y="273.667"/>
      <point x="426.667" y="342.111"/>
      <point x="426.667" y="489.667" type="curve" smooth="yes"/>
      <point x="426.667" y="640.132"/>
      <point x="367.827" y="707"/>
      <point x="237" y="707" type="curve" smooth="yes"/>
      <point x="49" y="707" type="line"/>
    </contour>
    <contour>
      <point x="157.333" y="372" type="line"/>
      <point x="157.333" y="609.333" type="line"/>
      <point x="233" y="609.333" type="line" smooth="yes"/>
      <point x="292.132" y="609.333"/>
      <point x="318" y="572.64"/>
      <point x="318" y="489.667" type="curve" smooth="yes"/>
      <point x="318" y="408.019"/>
      <point x="291.807" y="372"/>
      <point x="233" y="372" type="curve" smooth="yes"/>
    </contour>
  </outline>
</glyph>
<glyph name="Q" format="2">
  <advance width="482"/>
  <unicode hex="0051"/>
  <anchor x="241" y="766.667" name="top"/>
  <anchor x="236" y="-86" name="bottom"/>
  <outline>
    <contour>
      <point x="240.947" y="-8.12" type="curve" smooth="yes"/>
      <point x="363.646" y="-8.12"/>
      <point x="438.667" y="70.242"/>
      <point x="438.667" y="198.667" type="curve" smooth="yes"/>
      <point x="438.667" y="509" type="line" smooth="yes"/>
      <point x="438.667" y="640.783"/>
      <point x="367.635" y="716.667"/>
      <point x="244.333" y="716.667" type="curve" smooth="yes"/>
      <point x="117.827" y="716.667"/>
      <point x="43.667" y="639.997"/>
      <point x="43.667" y="509" type="curve" smooth="yes"/>
      <point x="43.667" y="198.667" type="line" smooth="yes"/>
      <point x="43.667" y="67.428"/>
      <point x="115.746" y="-8.12"/>
    </contour>
    <contour>
      <point x="242.667" y="89.667" type="curve" smooth="yes"/>
      <point x="182.726" y="89.667"/>
      <point x="152.667" y="129.07"/>
      <point x="152.667" y="207.667" type="curve" smooth="yes"/>
      <point x="152.667" y="493.333" type="line" smooth="yes"/>
      <point x="152.667" y="577.05"/>
      <point x="182.232" y="618"/>
      <point x="242.667" y="618" type="curve" smooth="yes"/>
      <point x="299.982" y="618"/>
      <point x="329.667" y="575.441"/>
      <point x="329.667" y="493.333" type="curve" smooth="yes"/>
      <point x="329.667" y="207.667" type="line" smooth="yes"/>
      <point x="329.667" y="131.275"/>
      <point x="299.01" y="89.667"/>
    </contour>
    <contour>
      <point x="306" y="-147.333" type="line"/>
      <point x="397" y="-114" type="line"/>
      <point x="341.916" y="31.702" type="line"/>
      <point x="247.941" y="7.378" type="line"/>
    </contour>
  </outline>
</glyph>
<glyph name="R" format="2">
  <advance width="473"/>
  <unicode hex="0052"/>
  <anchor x="228" y="766.667" name="top"/>
  <anchor x="228" y="-86" name="bottom"/>
  <outline>
    <contour>
      <point x="49" y="0" type="line"/>
      <point x="158" y="0" type="line"/>
      <point x="158" y="292.333" type="line"/>
      <point x="236" y="292.333" type="line"/>
      <point x="334.333" y="0" type="line"/>
      <point x="448.667" y="0" type="line"/>
      <point x="336.667" y="311.667" type="line"/>
      <point x="397.778" y="339.889"/>
      <point x="426.667" y="400.556"/>
      <point x="426.667" y="499.667" type="curve" smooth="yes"/>
      <point x="426.667" y="645.332"/>
      <point x="371.309" y="707"/>
      <point x="240" y="707" type="curve" smooth="yes"/>
      <point x="49" y="707" type="line"/>
    </contour>
    <contour>
      <point x="158" y="389" type="line"/>
      <point x="158" y="609.333" type="line"/>
      <point x="238.333" y="609.333" type="line" smooth="yes"/>
      <point x="294.42" y="609.333"/>
      <point x="317.667" y="577.137"/>
      <point x="317.667" y="499.667" type="curve" smooth="yes"/>
      <point x="317.667" y="422.436"/>
      <point x="293.222" y="389"/>
      <point x="238.333" y="389" type="curve" smooth="yes"/>
    </contour>
  </outline>
</glyph>
<glyph name="S" format="2">
  <advance width="436"/>
  <unicode hex="0053"/>
  <anchor x="216.667" y="766.667" name="top"/>
  <anchor x="193.333" y="0" name="b.cedilla"/>
  <anchor x="216.667" y="-86" name="bottom"/>
  <outline>
    <contour>
      <point x="21.667" y="199.333" type="line"/>
      <point x="23.893" y="64.449"/>
      <point x="90.196" y="-7.667"/>
      <point x="212" y="-7.667" type="curve" smooth="yes"/>
      <point x="336.143" y="-7.667"/>
      <point x="405.667" y="64.687"/>
      <point x="405.667" y="193.667" type="curve" smooth="yes"/>
      <point x="405.667" y="300.526"/>
      <point x="365.174" y="359.902"/>
      <point x="264.333" y="402" type="curve" smooth="yes"/>
      <point x="219.667" y="420.667" type="line" smooth="yes"/>
      <point x="158.895" y="445.945"/>
      <point x="135" y="475.929"/>
      <point x="135" y="529.333" type="curve" smooth="yes"/>
      <point x="135" y="591.111"/>
      <point x="162.51" y="622.667"/>
      <point x="216.333" y="622.667" type="curve" smooth="yes"/>
      <point x="269.889" y="622.667"/>
      <point x="296.111" y="589.556"/>
      <point x="299.667" y="517.333" type="curve"/>
      <point x="399.667" y="517.333" type="line"/>
      <point x="395.274" y="647.434"/>
      <point x="331.104" y="717.667"/>
      <point x="216.667" y="717.667" type="curve" smooth="yes"/>
      <point x="101.374" y="717.667"/>
      <point x="28.667" y="642.726"/>
      <point x="28.667" y="524" type="curve" smooth="yes"/>
      <point x="28.667" y="427.196"/>
      <point x="66.503" y="372.682"/>
      <point x="161" y="331.333" type="curve" smooth="yes"/>
      <point x="206.667" y="311.333" type="line" smooth="yes"/>
      <point x="275.159" y="281.808"/>
      <point x="299" y="250.904"/>
      <point x="299" y="192" type="curve" smooth="yes"/>
      <point x="299" y="120.333"/>
      <point x="272.207" y="86.333"/>
      <point x="215" y="86.333" type="curve" smooth="yes"/>
      <point x="157.252" y="86.333"/>
      <point x="126.945" y="124.656"/>
      <point x="125" y="199.333" type="curve"/>
    </contour>
  </outline>
</glyph>
<glyph name="T" format="2">
  <advance width="377"/>
  <unicode hex="0054"/>
  <anchor x="188.667" y="-86" name="bottom"/>
  <anchor x="188.667" y="766.667" name="top"/>
  <anchor x="156" y="0" name="b.cedilla"/>
  <outline>
    <contour>
      <point x="135.333" y="0" type="line"/>
      <point x="243" y="0" type="line"/>
      <point x="243" y="608.667" type="line"/>
      <point x="373" y="608.667" type="line"/>
      <point x="373" y="707" type="line"/>
      <point x="4.667" y="707" type="line"/>
      <point x="4.667" y="608.667" type="line"/>
      <point x="135.333" y="608.667" type="line"/>
    </contour>
  </outline>
</glyph>
<glyph name="U" format="2">
  <advance width="478"/>
  <unicode hex="0055"/>
  <anchor x="239.333" y="766.667" name="top"/>
  <anchor x="239.333" y="-86" name="bottom"/>
  <anchor x="284" y="0" name="b.cedilla"/>
  <outline>
    <contour>
      <point x="49" y="707" type="line"/>
      <point x="49" y="183.333" type="line" smooth="yes"/>
      <point x="49" y="71.294"/>
      <point x="127.879" y="-8"/>
      <point x="239.333" y="-8" type="curve" smooth="yes"/>
      <point x="352.081" y="-8"/>
      <point x="428.667" y="69.12"/>
      <point x="428.667" y="183.333" type="curve" smooth="yes"/>
      <point x="428.667" y="707" type="line"/>
      <point x="319.333" y="707" type="line"/>
      <point x="319.333" y="186.667" type="line" smooth="yes"/>
      <point x="319.333" y="129.295"/>
      <point x="296.259" y="89.667"/>
      <point x="239.333" y="89.667" type="curve" smooth="yes"/>
      <point x="186.53" y="89.667"/>
      <point x="158.333" y="124.087"/>
      <point x="158.333" y="186.667" type="curve" smooth="yes"/>
      <point x="158.333" y="707" type="line"/>
    </contour>
  </outline>
</glyph>
<glyph name="V" format="2">
  <advance width="450"/>
  <unicode hex="0056"/>
  <anchor x="225" y="766.667" name="top"/>
  <anchor x="225" y="-86" name="bottom"/>
  <outline>
    <contour>
      <point x="170.333" y="0" type="line"/>
      <point x="281" y="0" type="line"/>
      <point x="444" y="707" type="line"/>
      <point x="324.667" y="707" type="line"/>
      <point x="225" y="157.667" type="line"/>
      <point x="125.667" y="707" type="line"/>
      <point x="7" y="707" type="line"/>
    </contour>
  </outline>
</glyph>
<glyph name="W" format="2">
  <advance width="683"/>
  <unicode hex="0057"/>
  <anchor x="342" y="766.667" name="top"/>
  <anchor x="342" y="-86" name="bottom"/>
  <outline>
    <contour>
      <point x="137.333" y="0" type="line"/>
      <point x="254" y="0" type="line"/>
      <point x="342" y="488" type="line"/>
      <point x="429.333" y="0" type="line"/>
      <point x="546.667" y="0" type="line"/>
      <point x="676.667" y="707" type="line"/>
      <point x="568" y="707" type="line"/>
      <point x="488.333" y="156.333" type="line"/>
      <point x="411" y="707" type="line"/>
      <point x="275.667" y="707" type="line"/>
      <point x="198.333" y="156.333" type="line"/>
      <point x="118.333" y="707" type="line"/>
      <point x="7" y="707" type="line"/>
    </contour>
  </outline>
</glyph>
<glyph name="X" format="2">
  <advance width="424"/>
  <unicode hex="0058"/>
  <anchor x="214" y="766.667" name="top"/>
  <anchor x="236" y="-86" name="bottom"/>
  <outline>
    <contour>
      <point x="7" y="0" type="line"/>
      <point x="117.667" y="0" type="line"/>
      <point x="213" y="262.333" type="line"/>
      <point x="307.333" y="0" type="line"/>
      <point x="418.333" y="0" type="line"/>
      <point x="267.667" y="367.333" type="line"/>
      <point x="407" y="707" type="line"/>
      <point x="296.333" y="707" type="line"/>
      <point x="213.333" y="470.333" type="line"/>
      <point x="128.667" y="707" type="line"/>
      <point x="18.333" y="707" type="line"/>
      <point x="157.333" y="367" type="line"/>
    </contour>
  </outline>
</glyph>
<glyph name="Y" format="2">
  <advance width="416"/>
  <unicode hex="0059"/>
  <anchor x="208.333" y="766.667" name="top"/>
  <anchor x="208.333" y="-86" name="bottom"/>
  <outline>
    <contour>
      <point x="154.667" y="0" type="line"/>
      <point x="262.667" y="0" type="line"/>
      <point x="262.667" y="281.333" type="line"/>
      <point x="410" y="707" type="line"/>
      <point x="290" y="707" type="line"/>
      <point x="208.333" y="418.333" type="line"/>
      <point x="126.333" y="707" type="line"/>
      <point x="7" y="707" type="line"/>
      <point x="154.667" y="283.333" type="line"/>
    </contour>
  </outline>
</glyph>
<glyph name="Z" format="2">
  <advance width="376"/>
  <unicode hex="005A"/>
  <anchor x="195" y="766.667" name="top"/>
  <anchor x="193.667" y="-86" name="bottom"/>
  <outline>
    <contour>
      <point x="25" y="0" type="line"/>
      <point x="354.333" y="0" type="line"/>
      <point x="354.333" y="98.333" type="line"/>
      <point x="131.667" y="98.333" type="line"/>
      <point x="349" y="608.667" type="line"/>
      <point x="349" y="707" type="line"/>
      <point x="35.333" y="707" type="line"/>
      <point x="35.333" y="608.667" type="line"/>
      <point x="242" y="608.667" type="line"/>
      <point x="25" y="98.333" type="line"/>
    </contour>
  </outline>
</glyph>
<glyph name="asciicircum" format="2">
  <advance width="429"/>
  <unicode hex="005E"/>
  <outline>
    <contour>
      <point x="33" y="286.333" type="line"/>
      <point x="117" y="286.333" type="line"/>
      <point x="211.667" y="586.667" type="line"/>
      <point x="306" y="286.333" type="line"/>
      <point x="390.333" y="286.333" type="line"/>
      <point x="254" y="712.333" type="line"/>
      <point x="169" y="712.333" type="line"/>
    </contour>
  </outline>
</glyph>
<glyph name="underscore" format="2">
  <advance width="432"/>
  <unicode hex="005F"/>
  <outline>
    <contour>
      <point x="0" y="-115.333" type="line"/>
      <point x="432" y="-115.333" type="line"/>
      <point x="432" y="-51" type="line"/>
      <point x="0" y="-51" type="line"/>
    </contour>
  </outline>
</glyph>
<glyph name="grave" format="2">
  <advance width="512"/>
  <unicode hex="0060"/>
  <outline>
    <contour>
      <point x="270.333" y="599.333" type="line"/>
      <point x="357.667" y="599.333" type="line"/>
      <point x="258.667" y="736" type="line"/>
      <point x="149.333" y="736" type="line"/>
    </contour>
  </outline>
</glyph>
<glyph name="a" format="2">
  <advance width="413"/>
  <unicode hex="0061"/>
  <anchor x="213" y="599.333" name="top"/>
  <anchor x="213" y="578" name="t.ring"/>
  <anchor x="213" y="-86" name="bottom"/>
  <anchor x="365.333" y="0" name="b.cedilla"/>
  <outline>
    <contour>
      <point x="269.333" y="0" type="line"/>
      <point x="365.333" y="0" type="line"/>
      <point x="365.333" y="379.333" type="line" smooth="yes"/>
      <point x="365.333" y="484.966"/>
      <point x="306.657" y="545.333"/>
      <point x="204.333" y="545.333" type="curve" smooth="yes"/>
      <point x="106.599" y="545.333"/>
      <point x="48" y="487.504"/>
      <point x="48" y="391" type="curve" smooth="yes"/>
      <point x="48" y="385.333" type="line"/>
      <point x="143.333" y="385.333" type="line"/>
      <point x="143.333" y="393.333" type="line" smooth="yes"/>
      <point x="143.333" y="431.893"/>
      <point x="164.895" y="454.667"/>
      <point x="202.333" y="454.667" type="curve" smooth="yes"/>
      <point x="245.346" y="454.667"/>
      <point x="263" y="428.712"/>
      <point x="263" y="386.333" type="curve" smooth="yes"/>
      <point x="263" y="312" type="line"/>
      <point x="258.223" y="312"/>
      <point x="210.445" y="312"/>
      <point x="205.667" y="312" type="curve" smooth="yes"/>
      <point x="95.257" y="312"/>
      <point x="34.333" y="256.461"/>
      <point x="34.333" y="156" type="curve" smooth="yes"/>
      <point x="34.333" y="50.168"/>
      <point x="82.426" y="-8"/>
      <point x="170" y="-8" type="curve" smooth="yes"/>
      <point x="216.43" y="-8"/>
      <point x="242.811" y="11.175"/>
      <point x="269.333" y="46.333" type="curve"/>
    </contour>
    <contour>
      <point x="263" y="239.333" type="line"/>
      <point x="263" y="158.667" type="line" smooth="yes"/>
      <point x="263" y="110.816"/>
      <point x="238.309" y="80.667"/>
      <point x="199" y="80.667" type="curve" smooth="yes"/>
      <point x="158.11" y="80.667"/>
      <point x="137" y="107.889"/>
      <point x="137" y="159.667" type="curve" smooth="yes"/>
      <point x="137" y="213.667"/>
      <point x="162.889" y="239.333"/>
      <point x="217.333" y="239.333" type="curve" smooth="yes"/>
    </contour>
  </outline>
</glyph>
<glyph name="b" format="2">
  <advance width="420"/>
  <unicode hex="0062"/>
  <anchor x="250" y="590" name="top"/>
  <anchor x="250" y="-86" name="bottom"/>
  <outline>
    <contour>
      <point x="48" y="0" type="line"/>
      <point x="148" y="0" type="line"/>
      <point x="148" y="41.333" type="line"/>
      <point x="173.778" y="7.556"/>
      <point x="203.667" y="-8"/>
      <point x="243.667" y="-8" type="curve" smooth="yes"/>
      <point x="329.395" y="-8"/>
      <point x="377.667" y="55.768"/>
      <point x="377.667" y="168.641" type="curve" smooth="yes"/>
      <point x="377.667" y="368.281" type="line" smooth="yes"/>
      <point x="377.667" y="482.013"/>
      <point x="329.926" y="545.255"/>
      <point x="244.667" y="545.255" type="curve" smooth="yes"/>
      <point x="202.887" y="545.255"/>
      <point x="169.778" y="525.726"/>
      <point x="150.667" y="491.333" type="curve"/>
      <point x="150.667" y="707" type="line"/>
      <point x="48" y="707" type="line"/>
    </contour>
    <contour>
      <point x="213.333" y="83.333" type="curve" smooth="yes"/>
      <point x="170.901" y="83.333"/>
      <point x="149.333" y="117.231"/>
      <point x="149.333" y="183.742" type="curve" smooth="yes"/>
      <point x="149.333" y="352.178" type="line" smooth="yes"/>
      <point x="149.333" y="418.685"/>
      <point x="171.41" y="453.255"/>
      <point x="213.333" y="453.255" type="curve" smooth="yes"/>
      <point x="254.444" y="453.255"/>
      <point x="275" y="419.896"/>
      <point x="275" y="352.512" type="curve" smooth="yes"/>
      <point x="275" y="184.076" type="line" smooth="yes"/>
      <point x="275" y="116.804"/>
      <point x="254.371" y="83.333"/>
    </contour>
  </outline>
</glyph>
<glyph name="c" format="2">
  <advance width="417"/>
  <unicode hex="0063"/>
  <anchor x="205" y="599.333" name="top"/>
  <anchor x="183" y="0" name="b.cedilla"/>
  <anchor x="236" y="-86" name="bottom"/>
  <outline>
    <contour>
      <point x="274.667" y="183.667" type="line"/>
      <point x="274.667" y="167.667" type="line" smooth="yes"/>
      <point x="274.667" y="111.222"/>
      <point x="253" y="83.333"/>
      <point x="210.333" y="83.333" type="curve" smooth="yes"/>
      <point x="166.937" y="83.333"/>
      <point x="145.667" y="116.311"/>
      <point x="145.667" y="184" type="curve" smooth="yes"/>
      <point x="145.667" y="352.333" type="line" smooth="yes"/>
      <point x="145.667" y="420.179"/>
      <point x="166.926" y="453"/>
      <point x="211.333" y="453" type="curve" smooth="yes"/>
      <point x="253.778" y="453"/>
      <point x="274.667" y="425.222"/>
      <point x="274.667" y="370.333" type="curve" smooth="yes"/>
      <point x="274.667" y="352.667" type="line"/>
      <point x="374.667" y="352.667" type="line"/>
      <point x="374.667" y="371.667" type="line" smooth="yes"/>
      <point x="374.667" y="485.829"/>
      <point x="318.548" y="545.333"/>
      <point x="211" y="545.333" type="curve" smooth="yes"/>
      <point x="97.842" y="545.333"/>
      <point x="43" y="482.772"/>
      <point x="43" y="354.333" type="curve" smooth="yes"/>
      <point x="43" y="182" type="line" smooth="yes"/>
      <point x="43" y="55.089"/>
      <point x="98.6" y="-8"/>
      <point x="211.333" y="-8" type="curve" smooth="yes"/>
      <point x="318.444" y="-8"/>
      <point x="374.667" y="52.524"/>
      <point x="374.667" y="168" type="curve" smooth="yes"/>
      <point x="374.667" y="183.667" type="line"/>
    </contour>
  </outline>
</glyph>
<glyph name="d" format="2">
  <advance width="420"/>
  <unicode hex="0064"/>
  <anchor x="175.667" y="590" name="top"/>
  <anchor x="191" y="-86" name="bottom"/>
  <outline>
    <contour>
      <point x="273.333" y="0" type="line"/>
      <point x="372.333" y="0" type="line"/>
      <point x="372.333" y="707" type="line"/>
      <point x="270.667" y="707" type="line"/>
      <point x="270.667" y="491.333" type="line"/>
      <point x="250.889" y="526.667"/>
      <point x="218.222" y="545.333"/>
      <point x="176" y="545.333" type="curve" smooth="yes"/>
      <point x="91.359" y="545.333"/>
      <point x="43" y="481.163"/>
      <point x="43" y="368.333" type="curve" smooth="yes"/>
      <point x="43" y="168.667" type="line" smooth="yes"/>
      <point x="43" y="57.216"/>
      <point x="92.413" y="-8"/>
      <point x="177.333" y="-8" type="curve" smooth="yes"/>
      <point x="216.222" y="-8"/>
      <point x="248.222" y="8.222"/>
      <point x="273.333" y="41.333" type="curve"/>
    </contour>
    <contour>
      <point x="208" y="83.333" type="curve" smooth="yes"/>
      <point x="157.036" y="83.333"/>
      <point x="145.667" y="130.836"/>
      <point x="145.667" y="184" type="curve" smooth="yes"/>
      <point x="145.667" y="352.333" type="line" smooth="yes"/>
      <point x="145.667" y="418.333"/>
      <point x="166.889" y="453"/>
      <point x="207.333" y="453" type="curve" smooth="yes"/>
      <point x="250.222" y="453"/>
      <point x="272" y="418.889"/>
      <point x="272" y="352" type="curve" smooth="yes"/>
      <point x="272" y="183.667" type="line" smooth="yes"/>
      <point x="272" y="117.448"/>
      <point x="250.261" y="83.333"/>
    </contour>
  </outline>
</glyph>
<glyph name="e" format="2">
  <advance width="419"/>
  <unicode hex="0065"/>
  <anchor x="209.333" y="599.333" name="top"/>
  <anchor x="211.667" y="-86" name="bottom"/>
  <anchor x="268.333" y="0" name="b.cedilla"/>
  <outline>
    <contour>
      <point x="145.667" y="233.333" type="line"/>
      <point x="377" y="233.333" type="line"/>
      <point x="377" y="341" type="line" smooth="yes"/>
      <point x="377" y="474.118"/>
      <point x="317.828" y="545.333"/>
      <point x="208" y="545.333" type="curve" smooth="yes"/>
      <point x="99.058" y="545.333"/>
      <point x="43" y="476.364"/>
      <point x="43" y="341" type="curve" smooth="yes"/>
      <point x="43" y="196" type="line" smooth="yes"/>
      <point x="43" y="58.889"/>
      <point x="98.111" y="-8"/>
      <point x="211" y="-8" type="curve" smooth="yes"/>
      <point x="316.564" y="-8"/>
      <point x="374" y="51.505"/>
      <point x="374" y="162.333" type="curve" smooth="yes"/>
      <point x="374" y="167.333" type="line"/>
      <point x="274.333" y="167.333" type="line"/>
      <point x="274.333" y="162.667" type="line" smooth="yes"/>
      <point x="274.333" y="108.444"/>
      <point x="253.667" y="81.333"/>
      <point x="211.667" y="81.333" type="curve" smooth="yes"/>
      <point x="167.462" y="81.333"/>
      <point x="145.667" y="113.734"/>
      <point x="145.667" y="179.667" type="curve" smooth="yes"/>
    </contour>
    <contour>
      <point x="145.667" y="308.333" type="line"/>
      <point x="145.667" y="352.333" type="line" smooth="yes"/>
      <point x="145.667" y="419.066"/>
      <point x="167.398" y="453"/>
      <point x="209.667" y="453" type="curve" smooth="yes"/>
      <point x="253.242" y="453"/>
      <point x="274.667" y="419.869"/>
      <point x="274.667" y="353" type="curve" smooth="yes"/>
      <point x="274.667" y="308.333" type="line"/>
    </contour>
  </outline>
</glyph>
<glyph name="f" format="2">
  <advance width="293"/>
  <unicode hex="0066"/>
  <anchor x="155.667" y="766.667" name="top"/>
  <anchor x="236" y="-86" name="bottom"/>
  <outline>
    <contour>
      <point x="89" y="0" type="line"/>
      <point x="191" y="0" type="line"/>
      <point x="191" y="463.667" type="line"/>
      <point x="269.333" y="463.667" type="line"/>
      <point x="269.333" y="537" type="line"/>
      <point x="191" y="537" type="line"/>
      <point x="191" y="568" type="line" smooth="yes"/>
      <point x="191" y="613.53"/>
      <point x="207.248" y="632.333"/>
      <point x="252.667" y="632.333" type="curve" smooth="yes"/>
      <point x="269.333" y="632.333" type="line"/>
      <point x="269.333" y="707" type="line"/>
      <point x="226.667" y="707" type="line" smooth="yes"/>
      <point x="135.32" y="707"/>
      <point x="89" y="660.212"/>
      <point x="89" y="570" type="curve" smooth="yes"/>
      <point x="89" y="537" type="line"/>
      <point x="32" y="537" type="line"/>
      <point x="32" y="463.667" type="line"/>
      <point x="89" y="463.667" type="line"/>
    </contour>
  </outline>
</glyph>
<glyph name="g" format="2">
  <advance width="420"/>
  <unicode hex="0067"/>
  <anchor x="198" y="599.333" name="top"/>
  <anchor x="236" y="-86" name="bottom"/>
  <outline>
    <contour>
      <point x="51" y="-22.667" type="line"/>
      <point x="53.013" y="-115.874"/>
      <point x="110.353" y="-170"/>
      <point x="208.667" y="-170" type="curve" smooth="yes"/>
      <point x="312.079" y="-170"/>
      <point x="372.333" y="-103.899"/>
      <point x="372.333" y="9.333" type="curve" smooth="yes"/>
      <point x="372.333" y="537" type="line"/>
      <point x="270.667" y="537" type="line"/>
      <point x="270.667" y="491.333" type="line"/>
      <point x="251" y="526.667"/>
      <point x="218.333" y="545.333"/>
      <point x="176" y="545.333" type="curve" smooth="yes"/>
      <point x="91.784" y="545.333"/>
      <point x="43" y="480.736"/>
      <point x="43" y="368.667" type="curve" smooth="yes"/>
      <point x="43" y="215.333" type="line" smooth="yes"/>
      <point x="43" y="104.151"/>
      <point x="92.46" y="39"/>
      <point x="177.333" y="39" type="curve" smooth="yes"/>
      <point x="216.436" y="39"/>
      <point x="248.385" y="55.084"/>
      <point x="273.333" y="88" type="curve"/>
      <point x="273.333" y="0" type="line" smooth="yes"/>
      <point x="273.333" y="-54.536"/>
      <point x="252.013" y="-81.667"/>
      <point x="209.333" y="-81.667" type="curve" smooth="yes"/>
      <point x="171.379" y="-81.667"/>
      <point x="147.976" y="-60.108"/>
      <point x="147.333" y="-22.667" type="curve"/>
    </contour>
    <contour>
      <point x="208" y="130.333" type="curve"/>
      <point x="166.129" y="130.333"/>
      <point x="145.667" y="163.415"/>
      <point x="145.667" y="231.333" type="curve" smooth="yes"/>
      <point x="145.667" y="352.667" type="line" smooth="yes"/>
      <point x="145.667" y="418.461"/>
      <point x="166.878" y="453"/>
      <point x="207.333" y="453" type="curve" smooth="yes"/>
      <point x="250.278" y="453"/>
      <point x="272" y="419.08"/>
      <point x="272" y="352.333" type="curve" smooth="yes"/>
      <point x="272" y="231.333" type="line" smooth="yes"/>
      <point x="272" y="165.005"/>
      <point x="250.338" y="131"/>
    </contour>
  </outline>
</glyph>
<glyph name="h" format="2">
  <advance width="421"/>
  <unicode hex="0068"/>
  <anchor x="216" y="766.667" name="top"/>
  <anchor x="216" y="-86" name="bottom"/>
  <outline>
    <contour>
      <point x="48" y="0" type="line"/>
      <point x="150.667" y="0" type="line"/>
      <point x="150.667" y="383.333" type="line" smooth="yes"/>
      <point x="150.667" y="424.764"/>
      <point x="169.954" y="453"/>
      <point x="211" y="453" type="curve" smooth="yes"/>
      <point x="251.092" y="453"/>
      <point x="271.333" y="424.123"/>
      <point x="271.333" y="383.333" type="curve" smooth="yes"/>
      <point x="271.333" y="0" type="line"/>
      <point x="374" y="0" type="line"/>
      <point x="374" y="385" type="line" smooth="yes"/>
      <point x="374" y="490.972"/>
      <point x="328.883" y="545.333"/>
      <point x="241.333" y="545.333" type="curve" smooth="yes"/>
      <point x="205.952" y="545.333"/>
      <point x="173.643" y="528.337"/>
      <point x="150.667" y="498.333" type="curve"/>
      <point x="150.667" y="707" type="line"/>
      <point x="48" y="707" type="line"/>
    </contour>
  </outline>
</glyph>
<glyph name="i" format="2">
  <advance width="208"/>
  <unicode hex="0069"/>
  <anchor x="155.333" y="0" name="b.cedilla"/>
  <anchor x="104" y="-86" name="bottom"/>
  <outline>
    <contour>
      <point x="53" y="0" type="line"/>
      <point x="155.333" y="0" type="line"/>
      <point x="155.333" y="537" type="line"/>
      <point x="53" y="537" type="line"/>
    </contour>
    <contour>
      <point x="53" y="609" type="line"/>
      <point x="155.667" y="609" type="line"/>
      <point x="155.667" y="706.667" type="line"/>
      <point x="53" y="706.667" type="line"/>
    </contour>
  </outline>
</glyph>
<glyph name="j" format="2">
  <advance width="206"/>
  <unicode hex="006A"/>
  <outline>
    <contour>
      <point x="51.333" y="609" type="line"/>
      <point x="154.333" y="609" type="line"/>
      <point x="154.333" y="706.667" type="line"/>
      <point x="51.333" y="706.667" type="line"/>
    </contour>
    <contour>
      <point x="-25.333" y="-160" type="line"/>
      <point x="-14.667" y="-160" type="line" smooth="yes"/>
      <point x="97.111" y="-160"/>
      <point x="154.333" y="-106.111"/>
      <point x="154.333" y="-1" type="curve" smooth="yes"/>
      <point x="154.333" y="537" type="line"/>
      <point x="51.333" y="537" type="line"/>
      <point x="51.333" y="4.667" type="line" smooth="yes"/>
      <point x="51.333" y="-44.001"/>
      <point x="29.556" y="-67.667"/>
      <point x="-16" y="-67.667" type="curve" smooth="yes"/>
      <point x="-25.333" y="-67.667" type="line"/>
    </contour>
  </outline>
</glyph>
<glyph name="k" format="2">
  <advance width="425"/>
  <unicode hex="006B"/>
  <anchor x="203" y="766.667" name="top"/>
  <anchor x="219.667" y="-86" name="bottom"/>
  <outline>
    <contour>
      <point x="48" y="0" type="line"/>
      <point x="150.667" y="0" type="line"/>
      <point x="150.667" y="707" type="line"/>
      <point x="48" y="707" type="line"/>
    </contour>
    <contour>
      <point x="142.186" y="141.527" type="line"/>
      <point x="404" y="537" type="line"/>
      <point x="295.667" y="537" type="line"/>
      <point x="142.716" y="285.528" type="line"/>
    </contour>
    <contour>
      <point x="300" y="0" type="line"/>
      <point x="413.667" y="0" type="line"/>
      <point x="258.661" y="341.988" type="line"/>
      <point x="196.036" y="244.816" type="line"/>
    </contour>
  </outline>
</glyph>
<glyph name="l" format="2">
  <advance width="243"/>
  <unicode hex="006C"/>
  <anchor x="99.333" y="766.667" name="top"/>
  <anchor x="146.667" y="-86" name="bottom"/>
  <anchor x="250.667" y="397" name="dot"/>
  <outline>
    <contour>
      <point x="227" y="0" type="line"/>
      <point x="227" y="91.333" type="line"/>
      <point x="218.667" y="91.333" type="line" smooth="yes"/>
      <point x="173.778" y="91.333"/>
      <point x="151" y="115.667"/>
      <point x="151" y="164.333" type="curve" smooth="yes"/>
      <point x="151" y="707" type="line"/>
      <point x="48" y="707" type="line"/>
      <point x="48" y="158.667" type="line" smooth="yes"/>
      <point x="48" y="53.9"/>
      <point x="105.47" y="0"/>
      <point x="217.333" y="0" type="curve" smooth="yes"/>
    </contour>
  </outline>
</glyph>
<glyph name="m" format="2">
  <advance width="644"/>
  <unicode hex="006D"/>
  <anchor x="325" y="599.333" name="top"/>
  <anchor x="236" y="-86" name="bottom"/>
  <outline>
    <contour>
      <point x="48" y="0" type="line"/>
      <point x="151" y="0" type="line"/>
      <point x="151" y="383.333" type="line" smooth="yes"/>
      <point x="151" y="424.656"/>
      <point x="170.253" y="453"/>
      <point x="211" y="453" type="curve" smooth="yes"/>
      <point x="250.898" y="453"/>
      <point x="271.333" y="423.901"/>
      <point x="271.333" y="383.333" type="curve" smooth="yes"/>
      <point x="271.333" y="0" type="line"/>
      <point x="374" y="0" type="line"/>
      <point x="374" y="383.667" type="line" smooth="yes"/>
      <point x="374" y="423.891"/>
      <point x="394.738" y="453"/>
      <point x="434.667" y="453" type="curve" smooth="yes"/>
      <point x="475.168" y="453"/>
      <point x="494" y="424.853"/>
      <point x="494" y="383.333" type="curve" smooth="yes"/>
      <point x="494" y="0" type="line"/>
      <point x="597" y="0" type="line"/>
      <point x="597" y="385" type="line" smooth="yes"/>
      <point x="597" y="493.874"/>
      <point x="552.979" y="545.333"/>
      <point x="460.667" y="545.333" type="curve" smooth="yes"/>
      <point x="418.915" y="545.333"/>
      <point x="376.791" y="522.579"/>
      <point x="350.333" y="485.667" type="curve"/>
      <point x="327.258" y="523.785"/>
      <point x="287.158" y="545.333"/>
      <point x="242" y="545.333" type="curve" smooth="yes"/>
      <point x="203.559" y="545.333"/>
      <point x="170.439" y="527.406"/>
      <point x="147" y="494.333" type="curve"/>
      <point x="147" y="537" type="line"/>
      <point x="48" y="537" type="line"/>
    </contour>
  </outline>
</glyph>
<glyph name="n" format="2">
  <advance width="421"/>
  <unicode hex="006E"/>
  <anchor x="208" y="599.333" name="top"/>
  <anchor x="208" y="-86" name="bottom"/>
  <anchor x="0" y="760" name="dot"/>
  <outline>
    <contour>
      <point x="48" y="0" type="line"/>
      <point x="150.667" y="0" type="line"/>
      <point x="150.667" y="383.333" type="line" smooth="yes"/>
      <point x="150.667" y="424.542"/>
      <point x="170.148" y="453"/>
      <point x="211" y="453" type="curve" smooth="yes"/>
      <point x="251.092" y="453"/>
      <point x="271.333" y="424.123"/>
      <point x="271.333" y="383.333" type="curve" smooth="yes"/>
      <point x="271.333" y="0" type="line"/>
      <point x="374" y="0" type="line"/>
      <point x="374" y="385" type="line" smooth="yes"/>
      <point x="374" y="490.083"/>
      <point x="328.024" y="545.333"/>
      <point x="241.333" y="545.333" type="curve" smooth="yes"/>
      <point x="203.458" y="545.333"/>
      <point x="170.058" y="527.322"/>
      <point x="146.667" y="494.333" type="curve"/>
      <point x="146.667" y="537" type="line"/>
      <point x="48" y="537" type="line"/>
    </contour>
  </outline>
</glyph>
<glyph name="o" format="2">
  <advance width="419"/>
  <unicode hex="006F"/>
  <anchor x="211" y="599.333" name="top"/>
  <anchor x="211" y="-86" name="bottom"/>
  <anchor x="180.667" y="0" name="b.cedilla"/>
  <outline>
    <contour>
      <point x="211" y="-8" type="curve" smooth="yes"/>
      <point x="323.277" y="-8"/>
      <point x="377.333" y="57.369"/>
      <point x="377.333" y="172" type="curve" smooth="yes"/>
      <point x="377.333" y="364.333" type="line" smooth="yes"/>
      <point x="377.333" y="479.958"/>
      <point x="323.371" y="545.333"/>
      <point x="211" y="545.333" type="curve" smooth="yes"/>
      <point x="97.842" y="545.333"/>
      <point x="43" y="479.439"/>
      <point x="43" y="364.333" type="curve" smooth="yes"/>
      <point x="43" y="172" type="line" smooth="yes"/>
      <point x="43" y="58.553"/>
      <point x="98.602" y="-8"/>
    </contour>
    <contour>
      <point x="210" y="83.333" type="curve" smooth="yes"/>
      <point x="166.947" y="83.333"/>
      <point x="145.667" y="113.139"/>
      <point x="145.667" y="187.333" type="curve" smooth="yes"/>
      <point x="145.667" y="362.333" type="line" smooth="yes"/>
      <point x="145.667" y="423.195"/>
      <point x="166.947" y="453"/>
      <point x="210" y="453" type="curve" smooth="yes"/>
      <point x="253.443" y="453"/>
      <point x="274.667" y="423.126"/>
      <point x="274.667" y="362.333" type="curve" smooth="yes"/>
      <point x="274.667" y="187.333" type="line" smooth="yes"/>
      <point x="274.667" y="113.892"/>
      <point x="252.965" y="83.333"/>
    </contour>
  </outline>
</glyph>
<glyph name="p" format="2">
  <advance width="420"/>
  <unicode hex="0070"/>
  <anchor x="219.333" y="599.333" name="top"/>
  <anchor x="236" y="-86" name="bottom"/>
  <outline>
    <contour>
      <point x="48" y="-160" type="line"/>
      <point x="150.667" y="-160" type="line"/>
      <point x="150.667" y="37.667" type="line"/>
      <point x="173.667" y="7.333"/>
      <point x="204.667" y="-8"/>
      <point x="243.667" y="-8" type="curve" smooth="yes"/>
      <point x="329.333" y="-8"/>
      <point x="377.667" y="55.667"/>
      <point x="377.667" y="168.667" type="curve" smooth="yes"/>
      <point x="377.667" y="368.333" type="line" smooth="yes"/>
      <point x="377.667" y="482"/>
      <point x="330" y="545.333"/>
      <point x="244.667" y="545.333" type="curve" smooth="yes"/>
      <point x="203.667" y="545.333"/>
      <point x="171" y="527"/>
      <point x="148" y="491.333" type="curve"/>
      <point x="148" y="537" type="line"/>
      <point x="48" y="537" type="line"/>
    </contour>
    <contour>
      <point x="213.333" y="83.333" type="curve" smooth="yes"/>
      <point x="171" y="83.333"/>
      <point x="149.333" y="117.333"/>
      <point x="149.333" y="183.667" type="curve" smooth="yes"/>
      <point x="149.333" y="352" type="line" smooth="yes"/>
      <point x="149.333" y="418.333"/>
      <point x="171.333" y="453"/>
      <point x="213.333" y="453" type="curve" smooth="yes"/>
      <point x="254.333" y="453"/>
      <point x="275" y="419.667"/>
      <point x="275" y="352.333" type="curve" smooth="yes"/>
      <point x="275" y="184" type="line" smooth="yes"/>
      <point x="275" y="116.667"/>
      <point x="254.333" y="83.333"/>
    </contour>
  </outline>
</glyph>
<glyph name="q" format="2">
  <advance width="420"/>
  <unicode hex="0071"/>
  <anchor x="202.667" y="599.333" name="top"/>
  <anchor x="236" y="-86" name="bottom"/>
  <outline>
    <contour>
      <point x="270.667" y="-160" type="line"/>
      <point x="372.333" y="-160" type="line"/>
      <point x="372.333" y="537" type="line"/>
      <point x="273.333" y="537" type="line"/>
      <point x="273.333" y="491.333" type="line"/>
      <point x="248.889" y="527.333"/>
      <point x="217" y="545.333"/>
      <point x="176.333" y="545.333" type="curve" smooth="yes"/>
      <point x="91.359" y="545.333"/>
      <point x="43" y="481.322"/>
      <point x="43" y="368.333" type="curve" smooth="yes"/>
      <point x="43" y="168.667" type="line" smooth="yes"/>
      <point x="43" y="56.603"/>
      <point x="91.94" y="-8"/>
      <point x="177.333" y="-8" type="curve" smooth="yes"/>
      <point x="216.222" y="-8"/>
      <point x="247.556" y="7.444"/>
      <point x="270.667" y="37.667" type="curve"/>
    </contour>
    <contour>
      <point x="208" y="83.333" type="curve" smooth="yes"/>
      <point x="165.829" y="83.333"/>
      <point x="145.667" y="115.955"/>
      <point x="145.667" y="184" type="curve" smooth="yes"/>
      <point x="145.667" y="352.333" type="line" smooth="yes"/>
      <point x="145.667" y="418.333"/>
      <point x="166.889" y="453"/>
      <point x="207.333" y="453" type="curve" smooth="yes"/>
      <point x="250.222" y="453"/>
      <point x="272" y="418.889"/>
      <point x="272" y="352" type="curve" smooth="yes"/>
      <point x="272" y="183.667" type="line" smooth="yes"/>
      <point x="272" y="117.448"/>
      <point x="250.261" y="83.333"/>
    </contour>
  </outline>
</glyph>
<glyph name="r" format="2">
  <advance width="307"/>
  <unicode hex="0072"/>
  <anchor x="180.667" y="599.333" name="top"/>
  <anchor x="180.333" y="-86" name="bottom"/>
  <outline>
    <contour>
      <point x="48" y="0" type="line"/>
      <point x="150.667" y="0" type="line"/>
      <point x="150.667" y="352" type="line" smooth="yes"/>
      <point x="150.667" y="411.556"/>
      <point x="185.889" y="446.333"/>
      <point x="238.333" y="446.333" type="curve" smooth="yes"/>
      <point x="255" y="446.333"/>
      <point x="272.667" y="443.111"/>
      <point x="291.333" y="436.667" type="curve"/>
      <point x="291.333" y="542.667" type="line"/>
      <point x="280.444" y="545.333"/>
      <point x="268.111" y="546.667"/>
      <point x="254.333" y="546.667" type="curve" smooth="yes"/>
      <point x="208.111" y="546.667"/>
      <point x="172" y="528.778"/>
      <point x="146.667" y="485.667" type="curve"/>
      <point x="146.667" y="537" type="line"/>
      <point x="48" y="537" type="line"/>
    </contour>
  </outline>
</glyph>
<glyph name="s" format="2">
  <advance width="398"/>
  <unicode hex="0073"/>
  <anchor x="199.667" y="599.333" name="top"/>
  <anchor x="176" y="0" name="b.cedilla"/>
  <anchor x="200" y="-86" name="bottom"/>
  <outline>
    <contour>
      <point x="34.333" y="157.333" type="line"/>
      <point x="34.333" y="151.333" type="line" smooth="yes"/>
      <point x="34.333" y="53.413"/>
      <point x="97.727" y="-8"/>
      <point x="200" y="-8" type="curve" smooth="yes"/>
      <point x="302.625" y="-8"/>
      <point x="367.667" y="52.716"/>
      <point x="367.667" y="149" type="curve" smooth="yes"/>
      <point x="367.667" y="223.444"/>
      <point x="336.084" y="267.687"/>
      <point x="258.333" y="301" type="curve" smooth="yes"/>
      <point x="192" y="329.333" type="line" smooth="yes"/>
      <point x="152.604" y="346.204"/>
      <point x="137.333" y="366.167"/>
      <point x="137.333" y="398.667" type="curve" smooth="yes"/>
      <point x="137.333" y="437.024"/>
      <point x="160.354" y="459.667"/>
      <point x="199.333" y="459.667" type="curve" smooth="yes"/>
      <point x="240.589" y="459.667"/>
      <point x="263.667" y="432.418"/>
      <point x="263.667" y="385" type="curve" smooth="yes"/>
      <point x="263.667" y="379" type="line"/>
      <point x="361.667" y="379" type="line"/>
      <point x="361.667" y="390" type="line" smooth="yes"/>
      <point x="361.667" y="483.793"/>
      <point x="297.871" y="545.333"/>
      <point x="200.333" y="545.333" type="curve" smooth="yes"/>
      <point x="103.302" y="545.333"/>
      <point x="38" y="484.409"/>
      <point x="38" y="393.667" type="curve" smooth="yes"/>
      <point x="38" y="323.031"/>
      <point x="70.539" y="278.387"/>
      <point x="144.333" y="246.333" type="curve" smooth="yes"/>
      <point x="208" y="219" type="line" smooth="yes"/>
      <point x="250.541" y="200.863"/>
      <point x="267.333" y="179.958"/>
      <point x="267.333" y="146" type="curve" smooth="yes"/>
      <point x="267.333" y="101.192"/>
      <point x="244.782" y="78.333"/>
      <point x="202" y="78.333" type="curve" smooth="yes"/>
      <point x="157.793" y="78.333"/>
      <point x="131.667" y="105.3"/>
      <point x="131.667" y="151.333" type="curve" smooth="yes"/>
      <point x="131.667" y="157.333" type="line"/>
    </contour>
  </outline>
</glyph>
<glyph name="t" format="2">
  <advance width="307"/>
  <unicode hex="0074"/>
  <anchor x="176" y="-86" name="bottom"/>
  <anchor x="136.667" y="766.667" name="top"/>
  <outline>
    <contour>
      <point x="266.667" y="0" type="line"/>
      <point x="266.667" y="91" type="line"/>
      <point x="259.333" y="91" type="line" smooth="yes"/>
      <point x="211.558" y="91"/>
      <point x="187.667" y="115.108"/>
      <point x="187.667" y="164" type="curve" smooth="yes"/>
      <point x="187.667" y="463.667" type="line"/>
      <point x="278.667" y="463.667" type="line"/>
      <point x="278.667" y="537" type="line"/>
      <point x="187.667" y="537" type="line"/>
      <point x="187.667" y="680" type="line"/>
      <point x="85" y="637.333" type="line"/>
      <point x="85" y="537" type="line"/>
      <point x="22" y="537" type="line"/>
      <point x="22" y="463.667" type="line"/>
      <point x="85" y="463.667" type="line"/>
      <point x="85" y="158.333" type="line" smooth="yes"/>
      <point x="85" y="52.777"/>
      <point x="143.444" y="0"/>
      <point x="258.333" y="0" type="curve" smooth="yes"/>
    </contour>
  </outline>
</glyph>
<glyph name="u" format="2">
  <advance width="421"/>
  <unicode hex="0075"/>
  <anchor x="212" y="599.333" name="top"/>
  <anchor x="212" y="-86" name="bottom"/>
  <anchor x="249" y="0" name="b.cedilla"/>
  <outline>
    <contour>
      <point x="48" y="537" type="line"/>
      <point x="48" y="175" type="line" smooth="yes"/>
      <point x="48" y="59.382"/>
      <point x="88.064" y="-8"/>
      <point x="211" y="-8" type="curve" smooth="yes"/>
      <point x="335.757" y="-8"/>
      <point x="374" y="57.604"/>
      <point x="374" y="175" type="curve" smooth="yes"/>
      <point x="374" y="537" type="line"/>
      <point x="271.333" y="537" type="line"/>
      <point x="271.333" y="187.391" type="line" smooth="yes"/>
      <point x="271.333" y="125.25"/>
      <point x="264.892" y="83.333"/>
      <point x="211.333" y="83.333" type="curve" smooth="yes"/>
      <point x="157.775" y="83.333"/>
      <point x="150.667" y="126.285"/>
      <point x="150.667" y="187.391" type="curve" smooth="yes"/>
      <point x="150.667" y="537" type="line"/>
    </contour>
  </outline>
</glyph>
<glyph name="v" format="2">
  <advance width="405"/>
  <unicode hex="0076"/>
  <anchor x="203.333" y="599.333" name="top"/>
  <anchor x="203.333" y="-86" name="bottom"/>
  <outline>
    <contour>
      <point x="149" y="0" type="line"/>
      <point x="256" y="0" type="line"/>
      <point x="393.667" y="537" type="line"/>
      <point x="280.333" y="537" type="line"/>
      <point x="203.333" y="163" type="line"/>
      <point x="125" y="537" type="line"/>
      <point x="12.333" y="537" type="line"/>
    </contour>
  </outline>
</glyph>
<glyph name="w" format="2">
  <advance width="612"/>
  <unicode hex="0077"/>
  <anchor x="305.333" y="599.333" name="top"/>
  <anchor x="305.333" y="-86" name="bottom"/>
  <anchor x="305.333" y="578" name="t.ring"/>
  <outline>
    <contour>
      <point x="134.333" y="0" type="line"/>
      <point x="233.667" y="0" type="line"/>
      <point x="305.333" y="354" type="line"/>
      <point x="377.667" y="0" type="line"/>
      <point x="476.667" y="0" type="line"/>
      <point x="599.667" y="537" type="line"/>
      <point x="486.333" y="537" type="line"/>
      <point x="423.667" y="163.667" type="line"/>
      <point x="348" y="537" type="line"/>
      <point x="262.667" y="537" type="line"/>
      <point x="188.333" y="163.667" type="line"/>
      <point x="125" y="537" type="line"/>
      <point x="12.333" y="537" type="line"/>
    </contour>
  </outline>
</glyph>
<glyph name="x" format="2">
  <advance width="378"/>
  <unicode hex="0078"/>
  <anchor x="185.667" y="599.333" name="top"/>
  <anchor x="236" y="-86" name="bottom"/>
  <outline>
    <contour>
      <point x="12.333" y="0" type="line"/>
      <point x="118.333" y="0" type="line"/>
      <point x="185.667" y="167" type="line"/>
      <point x="260.333" y="0" type="line"/>
      <point x="366" y="0" type="line"/>
      <point x="240" y="282" type="line"/>
      <point x="358.667" y="537" type="line"/>
      <point x="252.333" y="537" type="line"/>
      <point x="193.333" y="387.333" type="line"/>
      <point x="125.667" y="537" type="line"/>
      <point x="20.333" y="537" type="line"/>
      <point x="135.667" y="279" type="line"/>
    </contour>
  </outline>
</glyph>
<glyph name="y" format="2">
  <advance width="405"/>
  <unicode hex="0079"/>
  <anchor x="204" y="599.333" name="top"/>
  <anchor x="340" y="-106" name="dot"/>
  <anchor x="204" y="578" name="t.ring"/>
  <outline>
    <contour>
      <point x="48.667" y="-160.667" type="line"/>
      <point x="54.667" y="-160.667" type="line" smooth="yes"/>
      <point x="170.473" y="-160.667"/>
      <point x="221.879" y="-128.689"/>
      <point x="244" y="-42.667" type="curve" smooth="yes"/>
      <point x="393.667" y="537" type="line"/>
      <point x="285" y="537" type="line"/>
      <point x="207" y="183" type="line"/>
      <point x="125" y="537" type="line"/>
      <point x="12.333" y="537" type="line"/>
      <point x="161" y="-24" type="line"/>
      <point x="157.574" y="-32.659" type="line"/>
      <point x="145.914" y="-58.361"/>
      <point x="122.493" y="-69.667"/>
      <point x="83" y="-69.667" type="curve" smooth="yes"/>
      <point x="48.667" y="-69.667" type="line"/>
    </contour>
  </outline>
</glyph>
<glyph name="z" format="2">
  <advance width="390"/>
  <unicode hex="007A"/>
  <anchor x="186" y="599.333" name="top"/>
  <anchor x="186" y="-86" name="bottom"/>
  <outline>
    <contour>
      <point x="43" y="0" type="line"/>
      <point x="347.333" y="0" type="line"/>
      <point x="347.333" y="87.667" type="line"/>
      <point x="149.333" y="87.667" type="line"/>
      <point x="347.333" y="448.667" type="line"/>
      <point x="347.333" y="537" type="line"/>
      <point x="43" y="537" type="line"/>
      <point x="43" y="448.667" type="line"/>
      <point x="243.667" y="448.667" type="line"/>
      <point x="43" y="87.667" type="line"/>
    </contour>
  </outline>
</glyph>
<glyph name="braceleft" format="2">
  <advance width="327"/>
  <unicode hex="007B"/>
  <outline>
    <contour>
      <point x="281.667" y="-86" type="line"/>
      <point x="281.667" y="6.333" type="line"/>
      <point x="259.333" y="6.333" type="line" smooth="yes"/>
      <point x="229.703" y="6.333"/>
      <point x="215.667" y="25.327"/>
      <point x="215.667" y="55" type="curve" smooth="yes"/>
      <point x="215.667" y="204.667" type="line" smooth="yes"/>
      <point x="215.667" y="270.697"/>
      <point x="202.286" y="315.598"/>
      <point x="154.667" y="339" type="curve"/>
      <point x="202.903" y="358.303"/>
      <point x="215.667" y="406.096"/>
      <point x="215.667" y="472.333" type="curve" smooth="yes"/>
      <point x="215.667" y="617" type="line" smooth="yes"/>
      <point x="215.667" y="648.778"/>
      <point x="230.667" y="665"/>
      <point x="259.333" y="665" type="curve" smooth="yes"/>
      <point x="281.667" y="665" type="line"/>
      <point x="281.667" y="758" type="line"/>
      <point x="229.667" y="758" type="line" smooth="yes"/>
      <point x="153" y="758"/>
      <point x="112.333" y="714.692"/>
      <point x="112.333" y="634.667" type="curve" smooth="yes"/>
      <point x="112.333" y="461" type="line" smooth="yes"/>
      <point x="112.333" y="404.399"/>
      <point x="95.092" y="384.333"/>
      <point x="45" y="384.333" type="curve"/>
      <point x="45" y="292.667" type="line"/>
      <point x="94.913" y="292.667"/>
      <point x="112.333" y="272.575"/>
      <point x="112.333" y="217.333" type="curve" smooth="yes"/>
      <point x="112.333" y="37.333" type="line" smooth="yes"/>
      <point x="112.333" y="-42.822"/>
      <point x="152.883" y="-86"/>
      <point x="229.667" y="-86" type="curve" smooth="yes"/>
    </contour>
  </outline>
</glyph>
<glyph name="asciitilde" format="2">
  <advance width="429"/>
  <unicode hex="007E"/>
  <outline>
    <contour>
      <point x="94.667" y="207.333" type="line"/>
      <point x="109.369" y="237.482"/>
      <point x="125.868" y="259.667"/>
      <point x="153.667" y="259.667" type="curve" smooth="yes"/>
      <point x="189.791" y="259.667"/>
      <point x="225.303" y="211.667"/>
      <point x="278.667" y="211.667" type="curve" smooth="yes"/>
      <point x="327.778" y="211.667"/>
      <point x="362.778" y="240.333"/>
      <point x="396.333" y="309" type="curve"/>
      <point x="330" y="349" type="line"/>
      <point x="316.096" y="317.885"/>
      <point x="299.493" y="295.667"/>
      <point x="271.333" y="295.667" type="curve" smooth="yes"/>
      <point x="235.555" y="295.667"/>
      <point x="197.797" y="344"/>
      <point x="144.667" y="344" type="curve" smooth="yes"/>
      <point x="97.611" y="344"/>
      <point x="60.448" y="313.336"/>
      <point x="27.667" y="246.667" type="curve"/>
    </contour>
  </outline>
</glyph>
<glyph name="exclamdown" format="2">
  <advance width="211"/>
  <unicode hex="00A1"/>
  <outline>
    <contour>
      <point x="54.333" y="414.667" type="line"/>
      <point x="160" y="414.667" type="line"/>
      <point x="160" y="537" type="line"/>
      <point x="54.333" y="537" type="line"/>
    </contour>
    <contour>
      <point x="48.667" y="-160" type="line"/>
      <point x="166.333" y="-160" type="line"/>
      <point x="143.333" y="320.333" type="line"/>
      <point x="71.333" y="320.333" type="line"/>
    </contour>
  </outline>
</glyph>
<glyph name="cent" format="2">
  <advance width="441"/>
  <unicode hex="00A2"/>
  <outline>
    <contour>
      <point x="196.667" y="-102" type="line"/>
      <point x="255" y="-102" type="line"/>
      <point x="255" y="-4" type="line"/>
      <point x="332.661" y="10.365"/>
      <point x="374.667" y="70.751"/>
      <point x="374.667" y="168" type="curve" smooth="yes"/>
      <point x="374.667" y="183.667" type="line"/>
      <point x="274.667" y="183.667" type="line"/>
      <point x="274.667" y="167.667" type="line" smooth="yes"/>
      <point x="274.667" y="111.685"/>
      <point x="252.689" y="82.957"/>
      <point x="209.925" y="82.957" type="curve" smooth="yes"/>
      <point x="167.835" y="82.957"/>
      <point x="145.667" y="117.803"/>
      <point x="145.667" y="184" type="curve" smooth="yes"/>
      <point x="145.667" y="352.333" type="line" smooth="yes"/>
      <point x="145.667" y="419.26"/>
      <point x="167.536" y="453.317"/>
      <point x="210.562" y="453.317" type="curve" smooth="yes"/>
      <point x="253.323" y="453.317"/>
      <point x="274.667" y="425.69"/>
      <point x="274.667" y="370.333" type="curve" smooth="yes"/>
      <point x="274.667" y="352.667" type="line"/>
      <point x="374.667" y="352.667" type="line"/>
      <point x="374.667" y="371.667" type="line" smooth="yes"/>
      <point x="374.667" y="468.591"/>
      <point x="333.902" y="526.313"/>
      <point x="255" y="541.333" type="curve"/>
      <point x="255" y="642.333" type="line"/>
      <point x="196.667" y="642.333" type="line"/>
      <point x="196.667" y="545" type="line"/>
      <point x="94.912" y="541.757"/>
      <point x="43" y="477.326"/>
      <point x="43" y="354.333" type="curve" smooth="yes"/>
      <point x="43" y="182" type="line" smooth="yes"/>
      <point x="43" y="59.082"/>
      <point x="94.384" y="-4.333"/>
      <point x="196.667" y="-7.667" type="curve"/>
    </contour>
  </outline>
</glyph>
<glyph name="sterling" format="2">
  <advance width="417"/>
  <unicode hex="00A3"/>
  <outline>
    <contour>
      <point x="39.333" y="0" type="line"/>
      <point x="390" y="0" type="line"/>
      <point x="390" y="98.667" type="line"/>
      <point x="157.333" y="98.667" type="line"/>
      <point x="183.154" y="121.942"/>
      <point x="193.667" y="149.208"/>
      <point x="193.667" y="193" type="curve" smooth="yes"/>
      <point x="193.667" y="300.667" type="line"/>
      <point x="315.667" y="300.667" type="line"/>
      <point x="315.667" y="399" type="line"/>
      <point x="193.667" y="399" type="line"/>
      <point x="193.667" y="564.667" type="line" smooth="yes"/>
      <point x="193.667" y="607.791"/>
      <point x="208.947" y="627.333"/>
      <point x="242.667" y="627.333" type="curve" smooth="yes"/>
      <point x="275.321" y="627.333"/>
      <point x="289.333" y="604.55"/>
      <point x="289.333" y="551.333" type="curve"/>
      <point x="393" y="551.333" type="line"/>
      <point x="393" y="660.187"/>
      <point x="340.356" y="717"/>
      <point x="239.333" y="717" type="curve" smooth="yes"/>
      <point x="138.505" y="717"/>
      <point x="84.333" y="659.714"/>
      <point x="84.333" y="553.333" type="curve" smooth="yes"/>
      <point x="84.333" y="399" type="line"/>
      <point x="21.667" y="399" type="line"/>
      <point x="21.667" y="300.667" type="line"/>
      <point x="84.333" y="300.667" type="line"/>
      <point x="84.333" y="194.667" type="line" smooth="yes"/>
      <point x="84.333" y="137.018"/>
      <point x="73.47" y="114.251"/>
      <point x="39.333" y="100.667" type="curve"/>
    </contour>
  </outline>
</glyph>
<glyph name="currency" format="2">
  <advance width="589"/>
  <unicode hex="00A4"/>
  <outline>
    <contour>
      <point x="116" y="79.667" type="line"/>
      <point x="183.667" y="146.667" type="line"/>
      <point x="216.778" y="126.667"/>
      <point x="253.889" y="116.667"/>
      <point x="294.333" y="116.667" type="curve" smooth="yes"/>
      <point x="333.898" y="116.667"/>
      <point x="370.333" y="126"/>
      <point x="404.333" y="146.667" type="curve"/>
      <point x="472.667" y="78.667" type="line"/>
      <point x="541.333" y="146.667" type="line"/>
      <point x="472.667" y="216" type="line"/>
      <point x="492.444" y="248.444"/>
      <point x="502.333" y="284.111"/>
      <point x="502.333" y="323.667" type="curve" smooth="yes"/>
      <point x="502.333" y="364.111"/>
      <point x="492.333" y="400.444"/>
      <point x="471.667" y="432.667" type="curve"/>
      <point x="540.333" y="500.333" type="line"/>
      <point x="472.333" y="568.667" type="line"/>
      <point x="403.333" y="501" type="line"/>
      <point x="369.778" y="521"/>
      <point x="333.444" y="531"/>
      <point x="294.333" y="531" type="curve" smooth="yes"/>
      <point x="254.325" y="531"/>
      <point x="217.222" y="521.667"/>
      <point x="183.667" y="501" type="curve"/>
      <point x="117" y="568.667" type="line"/>
      <point x="48.333" y="500.333" type="line"/>
      <point x="117" y="431.667" type="line"/>
      <point x="97" y="399"/>
      <point x="87" y="363.444"/>
      <point x="87" y="323.667" type="curve" smooth="yes"/>
      <point x="87" y="284.778"/>
      <point x="96.889" y="249.111"/>
      <point x="116" y="216" type="curve"/>
      <point x="48" y="148" type="line"/>
    </contour>
    <contour>
      <point x="294.333" y="210.333" type="curve" smooth="yes"/>
      <point x="230.941" y="210.333"/>
      <point x="184.667" y="258.359"/>
      <point x="184.667" y="323.667" type="curve" smooth="yes"/>
      <point x="184.667" y="389.327"/>
      <point x="231.059" y="437.333"/>
      <point x="294.333" y="437.333" type="curve" smooth="yes"/>
      <point x="358.059" y="437.333"/>
      <point x="404.667" y="389.108"/>
      <point x="404.667" y="323.667" type="curve" smooth="yes"/>
      <point x="404.667" y="258.789"/>
      <point x="357.972" y="210.333"/>
    </contour>
  </outline>
</glyph>
<glyph name="yen" format="2">
  <advance width="411"/>
  <unicode hex="00A5"/>
  <outline>
    <contour>
      <point x="40" y="125.667" type="line"/>
      <point x="151.333" y="125.667" type="line"/>
      <point x="151.333" y="0" type="line"/>
      <point x="260.333" y="0" type="line"/>
      <point x="260.333" y="125.667" type="line"/>
      <point x="372" y="125.667" type="line"/>
      <point x="372" y="203.667" type="line"/>
      <point x="260.333" y="203.667" type="line"/>
      <point x="260.333" y="262.667" type="line"/>
      <point x="372" y="262.667" type="line"/>
      <point x="372" y="341" type="line"/>
      <point x="274" y="341" type="line"/>
      <point x="406" y="707" type="line"/>
      <point x="291" y="707" type="line"/>
      <point x="208.333" y="416.667" type="line"/>
      <point x="123" y="707" type="line"/>
      <point x="6" y="707" type="line"/>
      <point x="138" y="341" type="line"/>
      <point x="40" y="341" type="line"/>
      <point x="40" y="262.667" type="line"/>
      <point x="151.333" y="262.667" type="line"/>
      <point x="151.333" y="203.667" type="line"/>
      <point x="40" y="203.667" type="line"/>
    </contour>
  </outline>
</glyph>
<glyph name="section" format="2">
  <advance width="425"/>
  <unicode hex="00A7"/>
  <outline>
    <contour>
      <point x="62.333" y="0.667" type="line"/>
      <point x="62.333" y="-120.96"/>
      <point x="106.273" y="-172"/>
      <point x="211" y="-172" type="curve" smooth="yes"/>
      <point x="312.807" y="-172"/>
      <point x="365" y="-118.216"/>
      <point x="365" y="-13.333" type="curve" smooth="yes"/>
      <point x="365" y="62.881"/>
      <point x="342.975" y="105.996"/>
      <point x="293.667" y="126.333" type="curve"/>
      <point x="349.091" y="146.285"/>
      <point x="376.333" y="197.133"/>
      <point x="376.333" y="280.667" type="curve" smooth="yes"/>
      <point x="376.333" y="389.474"/>
      <point x="340.522" y="446.669"/>
      <point x="259" y="468" type="curve" smooth="yes"/>
      <point x="185.68" y="487.178"/>
      <point x="165.333" y="514.294"/>
      <point x="165.333" y="573" type="curve" smooth="yes"/>
      <point x="165.333" y="623.689"/>
      <point x="179.506" y="644"/>
      <point x="214.667" y="644" type="curve" smooth="yes"/>
      <point x="249.938" y="644"/>
      <point x="264.667" y="618.416"/>
      <point x="264.667" y="557.667" type="curve"/>
      <point x="359.333" y="557.667" type="line"/>
      <point x="359.333" y="678.546"/>
      <point x="316.657" y="728.667"/>
      <point x="213.667" y="728.667" type="curve" smooth="yes"/>
      <point x="115.609" y="728.667"/>
      <point x="63.667" y="674.749"/>
      <point x="63.667" y="573" type="curve" smooth="yes"/>
      <point x="63.667" y="498.636"/>
      <point x="85.878" y="454.382"/>
      <point x="132.667" y="435.667" type="curve"/>
      <point x="75.201" y="413.481"/>
      <point x="49" y="365.022"/>
      <point x="49" y="280.667" type="curve" smooth="yes"/>
      <point x="49" y="177.74"/>
      <point x="83.221" y="114.864"/>
      <point x="167" y="93" type="curve" smooth="yes"/>
      <point x="246.436" y="72.268"/>
      <point x="264" y="46.809"/>
      <point x="264" y="-16.667" type="curve" smooth="yes"/>
      <point x="264" y="-64.738"/>
      <point x="246.936" y="-87.333"/>
      <point x="210.667" y="-87.333" type="curve" smooth="yes"/>
      <point x="173.665" y="-87.333"/>
      <point x="157.667" y="-60.383"/>
      <point x="157.667" y="0.667" type="curve"/>
    </contour>
    <contour>
      <point x="212.667" y="175.667" type="curve" smooth="yes"/>
      <point x="167.004" y="175.667"/>
      <point x="149" y="204.958"/>
      <point x="149" y="280.667" type="curve" smooth="yes"/>
      <point x="149" y="356.575"/>
      <point x="166.731" y="385.333"/>
      <point x="212.667" y="385.333" type="curve" smooth="yes"/>
      <point x="258.528" y="385.333"/>
      <point x="276.333" y="356.31"/>
      <point x="276.333" y="280.667" type="curve" smooth="yes"/>
      <point x="276.333" y="205.833"/>
      <point x="257.833" y="175.667"/>
    </contour>
  </outline>
</glyph>
<glyph name="dieresis" format="2">
  <advance width="512"/>
  <unicode hex="00A8"/>
  <outline>
    <contour>
      <point x="132" y="601" type="line"/>
      <point x="221" y="601" type="line"/>
      <point x="221" y="708.333" type="line"/>
      <point x="132" y="708.333" type="line"/>
    </contour>
    <contour>
      <point x="290.667" y="601" type="line"/>
      <point x="379.667" y="601" type="line"/>
      <point x="379.667" y="708.333" type="line"/>
      <point x="290.667" y="708.333" type="line"/>
    </contour>
  </outline>
</glyph>
<glyph name="copyright" format="2">
  <advance width="734"/>
  <unicode hex="00A9"/>
  <outline>
    <contour>
      <point x="367.333" y="-7.333" type="curve" smooth="yes"/>
      <point x="570" y="-7.333"/>
      <point x="691" y="126"/>
      <point x="691" y="350" type="curve" smooth="yes"/>
      <point x="691" y="575"/>
      <point x="570.333" y="708.333"/>
      <point x="367.333" y="708.333" type="curve" smooth="yes"/>
      <point x="163.667" y="708.333"/>
      <point x="43.667" y="575.333"/>
      <point x="43.667" y="350" type="curve" smooth="yes"/>
      <point x="43.667" y="126.333"/>
      <point x="165" y="-7.333"/>
    </contour>
    <contour>
      <point x="367.333" y="55.333" type="curve" smooth="yes"/>
      <point x="205.667" y="55.333"/>
      <point x="114.667" y="161.333"/>
      <point x="114.667" y="350" type="curve" smooth="yes"/>
      <point x="114.667" y="539.667"/>
      <point x="204.667" y="644.667"/>
      <point x="367.333" y="644.667" type="curve" smooth="yes"/>
      <point x="530" y="644.667"/>
      <point x="620.333" y="539.667"/>
      <point x="620.333" y="350" type="curve" smooth="yes"/>
      <point x="620.333" y="160.667"/>
      <point x="530" y="55.333"/>
    </contour>
    <contour>
      <point x="415" y="291.667" type="line"/>
      <point x="415" y="279.667" type="line" smooth="yes"/>
      <point x="415" y="238.333"/>
      <point x="399.333" y="217.667"/>
      <point x="369" y="217.667" type="curve" smooth="yes"/>
      <point x="337" y="217.667"/>
      <point x="322" y="241.333"/>
      <point x="322" y="291.333" type="curve" smooth="yes"/>
      <point x="322" y="412.333" type="line" smooth="yes"/>
      <point x="322" y="461"/>
      <point x="337.667" y="485"/>
      <point x="369" y="485" type="curve" smooth="yes"/>
      <point x="398.667" y="485"/>
      <point x="415" y="463.667"/>
      <point x="415" y="424" type="curve" smooth="yes"/>
      <point x="415" y="412.667" type="line"/>
      <point x="488" y="412.667" type="line"/>
      <point x="488" y="425.667" type="line" smooth="yes"/>
      <point x="488" y="508.333"/>
      <point x="447.667" y="551"/>
      <point x="368.667" y="551" type="curve" smooth="yes"/>
      <point x="286.667" y="551"/>
      <point x="247.333" y="506.667"/>
      <point x="247.333" y="413.667" type="curve" smooth="yes"/>
      <point x="247.333" y="290" type="line" smooth="yes"/>
      <point x="247.333" y="196.667"/>
      <point x="286.667" y="151.333"/>
      <point x="368.667" y="151.333" type="curve" smooth="yes"/>
      <point x="447.333" y="151.333"/>
      <point x="488" y="195.333"/>
      <point x="488" y="279.667" type="curve" smooth="yes"/>
      <point x="488" y="291.667" type="line"/>
    </contour>
  </outline>
</glyph>
<glyph name="ordfeminine" format="2">
  <advance width="310"/>
  <unicode hex="00AA"/>
  <outline>
    <contour>
      <point x="190.333" y="440" type="line"/>
      <point x="261" y="440" type="line"/>
      <point x="261" y="660" type="line" smooth="yes"/>
      <point x="261" y="726.333"/>
      <point x="221" y="764.667"/>
      <point x="152.333" y="764.667" type="curve" smooth="yes"/>
      <point x="84.667" y="764.667"/>
      <point x="46.667" y="729.333"/>
      <point x="46.667" y="668" type="curve" smooth="yes"/>
      <point x="46.667" y="665" type="line"/>
      <point x="116" y="665" type="line"/>
      <point x="116" y="668.667" type="line" smooth="yes"/>
      <point x="116" y="686.333"/>
      <point x="130" y="698.333"/>
      <point x="151.333" y="698.333" type="curve" smooth="yes"/>
      <point x="175" y="698.333"/>
      <point x="186.667" y="687.667"/>
      <point x="186.667" y="665" type="curve" smooth="yes"/>
      <point x="186.667" y="630" type="line"/>
      <point x="152.333" y="630" type="line" smooth="yes"/>
      <point x="78.667" y="630"/>
      <point x="37.667" y="596.667"/>
      <point x="37.667" y="535.667" type="curve" smooth="yes"/>
      <point x="37.667" y="470"/>
      <point x="69.333" y="435"/>
      <point x="127.667" y="435" type="curve" smooth="yes"/>
      <point x="154" y="435"/>
      <point x="170.667" y="443.667"/>
      <point x="190.333" y="467" type="curve"/>
    </contour>
    <contour>
      <point x="186.667" y="576.333" type="line"/>
      <point x="186.667" y="539.333" type="line" smooth="yes"/>
      <point x="186.667" y="516.333"/>
      <point x="172" y="502"/>
      <point x="148.667" y="502" type="curve" smooth="yes"/>
      <point x="126" y="502"/>
      <point x="112.333" y="515.333"/>
      <point x="112.333" y="538.333" type="curve" smooth="yes"/>
      <point x="112.333" y="563.667"/>
      <point x="128.333" y="576.333"/>
      <point x="161.667" y="576.333" type="curve" smooth="yes"/>
    </contour>
  </outline>
</glyph>
<glyph name="guillemotleft" format="2">
  <advance width="445"/>
  <unicode hex="00AB"/>
  <outline>
    <contour>
      <point x="210" y="73" type="line"/>
      <point x="210" y="173.667" type="line"/>
      <point x="115.667" y="270" type="line"/>
      <point x="210" y="366.667" type="line"/>
      <point x="210" y="468" type="line"/>
      <point x="16" y="270" type="line"/>
    </contour>
    <contour>
      <point x="398" y="73" type="line"/>
      <point x="398" y="173.667" type="line"/>
      <point x="303.333" y="270" type="line"/>
      <point x="398" y="366.667" type="line"/>
      <point x="398" y="468" type="line"/>
      <point x="204.333" y="270" type="line"/>
    </contour>
  </outline>
</glyph>
<glyph name="logicalnot" format="2">
  <advance width="429"/>
  <unicode hex="00AC"/>
  <outline>
    <contour>
      <point x="38.333" y="264.667" type="line"/>
      <point x="288" y="264.667" type="line"/>
      <point x="288" y="159" type="line"/>
      <point x="390.667" y="159" type="line"/>
      <point x="390.667" y="357" type="line"/>
      <point x="38.333" y="357" type="line"/>
    </contour>
  </outline>
</glyph>
<glyph name="registered" format="2">
  <advance width="453"/>
  <unicode hex="00AE"/>
  <outline>
    <contour>
      <point x="226" y="320" type="curve" smooth="yes"/>
      <point x="337.459" y="320"/>
      <point x="404" y="392.895"/>
      <point x="404" y="515" type="curve" smooth="yes"/>
      <point x="404" y="635.522"/>
      <point x="336.389" y="709.333"/>
      <point x="226" y="709.333" type="curve" smooth="yes"/>
      <point x="116.271" y="709.333"/>
      <point x="49" y="635.497"/>
      <point x="49" y="515" type="curve" smooth="yes"/>
      <point x="49" y="393.674"/>
      <point x="115.887" y="320"/>
    </contour>
    <contour>
      <point x="226" y="356.333" type="curve" smooth="yes"/>
      <point x="137.972" y="356.333"/>
      <point x="89" y="413.033"/>
      <point x="89" y="515" type="curve" smooth="yes"/>
      <point x="89" y="615.54"/>
      <point x="138.48" y="672.333"/>
      <point x="226" y="672.333" type="curve" smooth="yes"/>
      <point x="313.17" y="672.333"/>
      <point x="362.667" y="615.381"/>
      <point x="362.667" y="515" type="curve" smooth="yes"/>
      <point x="362.667" y="413.609"/>
      <point x="313.311" y="356.333"/>
    </contour>
    <contour>
      <point x="168.333" y="407.667" type="line"/>
      <point x="210.667" y="407.667" type="line"/>
      <point x="210.667" y="494.333" type="line"/>
      <point x="227" y="494.333" type="line"/>
      <point x="255.333" y="407.667" type="line"/>
      <point x="300" y="407.667" type="line"/>
      <point x="267" y="504.333" type="line"/>
      <point x="284.943" y="516.006"/>
      <point x="293.581" y="534.359"/>
      <point x="293.333" y="560.333" type="curve" smooth="yes"/>
      <point x="292.916" y="603.322"/>
      <point x="271.574" y="625"/>
      <point x="229.667" y="625" type="curve" smooth="yes"/>
      <point x="168.333" y="625" type="line"/>
    </contour>
    <contour>
      <point x="210.667" y="532" type="line"/>
      <point x="210.667" y="586.667" type="line"/>
      <point x="225.333" y="586.667" type="line" smooth="yes"/>
      <point x="244.654" y="586.667"/>
      <point x="251" y="580.075"/>
      <point x="251" y="560" type="curve" smooth="yes"/>
      <point x="251" y="539.466"/>
      <point x="244.159" y="532"/>
      <point x="225.333" y="532" type="curve" smooth="yes"/>
    </contour>
  </outline>
</glyph>
<glyph name="macron" format="2">
  <advance width="512"/>
  <unicode hex="00AF"/>
  <outline>
    <contour>
      <point x="135.333" y="608" type="line"/>
      <point x="376.333" y="608" type="line"/>
      <point x="376.333" y="700.333" type="line"/>
      <point x="135.333" y="700.333" type="line"/>
    </contour>
  </outline>
</glyph>
<glyph name="degree" format="2">
  <advance width="341"/>
  <unicode hex="00B0"/>
  <outline>
    <contour>
      <point x="43.667" y="590.667" type="curve" smooth="yes"/>
      <point x="43.667" y="518.789"/>
      <point x="98.6" y="464"/>
      <point x="170.667" y="464" type="curve" smooth="yes"/>
      <point x="243.566" y="464"/>
      <point x="298.333" y="517.958"/>
      <point x="298.333" y="590.667" type="curve" smooth="yes"/>
      <point x="298.333" y="664.14"/>
      <point x="244.14" y="717.667"/>
      <point x="170.667" y="717.667" type="curve" smooth="yes"/>
      <point x="98.526" y="717.667"/>
      <point x="43.667" y="662.807"/>
    </contour>
    <contour>
      <point x="170.667" y="524.333" type="curve" smooth="yes"/>
      <point x="133.849" y="524.333"/>
      <point x="108" y="551.926"/>
      <point x="108" y="590.667" type="curve" smooth="yes"/>
      <point x="108" y="629.506"/>
      <point x="133.275" y="656.667"/>
      <point x="170.667" y="656.667" type="curve" smooth="yes"/>
      <point x="207.488" y="656.667"/>
      <point x="234.333" y="628.737"/>
      <point x="234.333" y="590.667" type="curve" smooth="yes"/>
      <point x="234.333" y="552.487"/>
      <point x="207.783" y="524.333"/>
    </contour>
  </outline>
</glyph>
<glyph name="plusminus" format="2">
  <advance width="429"/>
  <unicode hex="00B1"/>
  <outline>
    <contour>
      <point x="119" y="210" type="line"/>
      <point x="241.333" y="210" type="line"/>
      <point x="241.333" y="246.667" type="line"/>
      <point x="347" y="246.667" type="line"/>
      <point x="347" y="369.333" type="line"/>
      <point x="310.667" y="369.333" type="line"/>
      <point x="310.667" y="475" type="line"/>
      <point x="188.333" y="475" type="line"/>
      <point x="188.333" y="438.667" type="line"/>
      <point x="82.667" y="438.667" type="line"/>
      <point x="82.667" y="315.667" type="line"/>
      <point x="119" y="315.667" type="line"/>
    </contour>
    <contour>
      <point x="35.667" y="14.333" type="line"/>
      <point x="394" y="14.333" type="line"/>
      <point x="394" y="112.667" type="line"/>
      <point x="35.667" y="112.667" type="line"/>
    </contour>
  </outline>
</glyph>
<glyph name="acute" format="2">
  <advance width="512"/>
  <unicode hex="00B4"/>
  <outline>
    <contour>
      <point x="154.667" y="599.333" type="line"/>
      <point x="242" y="599.333" type="line"/>
      <point x="363" y="736" type="line"/>
      <point x="253.667" y="736" type="line"/>
    </contour>
  </outline>
</glyph>
<glyph name="mu" format="2">
  <advance width="420"/>
  <unicode hex="00B5"/>
  <outline>
    <contour>
      <point x="48" y="-160.667" type="line"/>
      <point x="146" y="-160.667" type="line"/>
      <point x="146" y="8.667" type="line"/>
      <point x="159.111" y="-1.111"/>
      <point x="176.111" y="-6"/>
      <point x="197" y="-6" type="curve" smooth="yes"/>
      <point x="230.421" y="-6"/>
      <point x="261.193" y="12.983"/>
      <point x="274.667" y="42.667" type="curve"/>
      <point x="274.667" y="0" type="line"/>
      <point x="372.667" y="0" type="line"/>
      <point x="372.667" y="537" type="line"/>
      <point x="270.333" y="537" type="line"/>
      <point x="270.333" y="153" type="line" smooth="yes"/>
      <point x="270.333" y="109.487"/>
      <point x="247.616" y="83"/>
      <point x="210.333" y="83" type="curve" smooth="yes"/>
      <point x="173.056" y="83"/>
      <point x="150.333" y="109.516"/>
      <point x="150.333" y="153" type="curve" smooth="yes"/>
      <point x="150.333" y="537" type="line"/>
      <point x="48" y="537" type="line"/>
    </contour>
  </outline>
</glyph>
<glyph name="paragraph" format="2">
  <advance width="555"/>
  <unicode hex="00B6"/>
  <outline>
    <contour>
      <point x="219" y="-160" type="line"/>
      <point x="317.667" y="-160" type="line"/>
      <point x="317.667" y="620" type="line"/>
      <point x="383.667" y="620" type="line"/>
      <point x="383.667" y="-160" type="line"/>
      <point x="481.333" y="-160" type="line"/>
      <point x="481.333" y="707" type="line"/>
      <point x="253.333" y="707" type="line" smooth="yes"/>
      <point x="134.22" y="707"/>
      <point x="49" y="615.947"/>
      <point x="49" y="488.667" type="curve" smooth="yes"/>
      <point x="49" y="369.065"/>
      <point x="120.66" y="276.732"/>
      <point x="219" y="269.667" type="curve"/>
    </contour>
  </outline>
</glyph>
<glyph name="ordmasculine" format="2">
  <advance width="312"/>
  <unicode hex="00BA"/>
  <outline>
    <contour>
      <point x="43.333" y="554" type="line" smooth="yes"/>
      <point x="43.333" y="472.77"/>
      <point x="79.453" y="435"/>
      <point x="157.333" y="435" type="curve" smooth="yes"/>
      <point x="232.56" y="435"/>
      <point x="268.667" y="473.579"/>
      <point x="268.667" y="554" type="curve" smooth="yes"/>
      <point x="268.667" y="646" type="line" smooth="yes"/>
      <point x="268.667" y="726.991"/>
      <point x="233.32" y="764.667"/>
      <point x="157.333" y="764.667" type="curve" smooth="yes"/>
      <point x="79.204" y="764.667"/>
      <point x="43.333" y="727.317"/>
      <point x="43.333" y="646" type="curve" smooth="yes"/>
    </contour>
    <contour>
      <point x="156.667" y="503.333" type="curve" smooth="yes"/>
      <point x="131.111" y="503.333"/>
      <point x="118.333" y="520.778"/>
      <point x="118.333" y="555.667" type="curve" smooth="yes"/>
      <point x="118.333" y="644.333" type="line" smooth="yes"/>
      <point x="118.333" y="678.722"/>
      <point x="131.653" y="697"/>
      <point x="156.667" y="697" type="curve" smooth="yes"/>
      <point x="181.704" y="697"/>
      <point x="194" y="679.64"/>
      <point x="194" y="644.333" type="curve" smooth="yes"/>
      <point x="194" y="555.667" type="line" smooth="yes"/>
      <point x="194" y="520.473"/>
      <point x="181.778" y="503.333"/>
    </contour>
  </outline>
</glyph>
<glyph name="guillemotright" format="2">
  <advance width="445"/>
  <unicode hex="00BB"/>
  <outline>
    <contour>
      <point x="48" y="73" type="line"/>
      <point x="242" y="270" type="line"/>
      <point x="48" y="468" type="line"/>
      <point x="48" y="366.667" type="line"/>
      <point x="142.333" y="270" type="line"/>
      <point x="48" y="173.667" type="line"/>
    </contour>
    <contour>
      <point x="236.333" y="73" type="line"/>
      <point x="429.333" y="270" type="line"/>
      <point x="236.333" y="468" type="line"/>
      <point x="236.333" y="366.667" type="line"/>
      <point x="330.667" y="270" type="line"/>
      <point x="236.333" y="173.667" type="line"/>
    </contour>
  </outline>
</glyph>
<glyph name="onequarter" format="2">
  <advance width="691"/>
  <unicode hex="00BC"/>
  <outline>
    <contour>
      <point x="142" y="0" type="line"/>
      <point x="219.667" y="0" type="line"/>
      <point x="481.667" y="712.333" type="line"/>
      <point x="404" y="712.333" type="line"/>
    </contour>
    <contour>
      <point x="88.333" y="280" type="line"/>
      <point x="169.333" y="280" type="line"/>
      <point x="169.333" y="707.333" type="line"/>
      <point x="88.333" y="707.333" type="line"/>
      <point x="24" y="661.333" type="line"/>
      <point x="24" y="569" type="line"/>
      <point x="88.333" y="615.333" type="line"/>
    </contour>
    <contour>
      <point x="419.667" y="69" type="line"/>
      <point x="560" y="69" type="line"/>
      <point x="560" y="-0.333" type="line"/>
      <point x="639.667" y="-0.333" type="line"/>
      <point x="639.667" y="69" type="line"/>
      <point x="669.667" y="69" type="line"/>
      <point x="669.667" y="141" type="line"/>
      <point x="639.667" y="141" type="line"/>
      <point x="639.667" y="229" type="line"/>
      <point x="560" y="229" type="line"/>
      <point x="560" y="141" type="line"/>
      <point x="500" y="141" type="line"/>
      <point x="593.333" y="427" type="line"/>
      <point x="513.667" y="427" type="line"/>
      <point x="419.667" y="141" type="line"/>
    </contour>
  </outline>
</glyph>
<glyph name="onehalf" format="2">
  <advance width="692"/>
  <unicode hex="00BD"/>
  <outline>
    <contour>
      <point x="142" y="0" type="line"/>
      <point x="219.667" y="0" type="line"/>
      <point x="481.667" y="712.333" type="line"/>
      <point x="404" y="712.333" type="line"/>
    </contour>
    <contour>
      <point x="88.333" y="280" type="line"/>
      <point x="169.333" y="280" type="line"/>
      <point x="169.333" y="707.333" type="line"/>
      <point x="88.333" y="707.333" type="line"/>
      <point x="24" y="661.333" type="line"/>
      <point x="24" y="569" type="line"/>
      <point x="88.333" y="615.333" type="line"/>
    </contour>
    <contour>
      <point x="439.667" y="0" type="line"/>
      <point x="660" y="0" type="line"/>
      <point x="660" y="72" type="line"/>
      <point x="529.667" y="72" type="line"/>
      <point x="626" y="212.667" type="line" smooth="yes"/>
      <point x="652.481" y="251.213"/>
      <point x="659.333" y="272.683"/>
      <point x="659.333" y="308.333" type="curve" smooth="yes"/>
      <point x="659.333" y="337" type="line" smooth="yes"/>
      <point x="659.333" y="396.9"/>
      <point x="618.099" y="434"/>
      <point x="551.333" y="434" type="curve" smooth="yes"/>
      <point x="484.81" y="434"/>
      <point x="442.333" y="396.584"/>
      <point x="442.333" y="338.667" type="curve" smooth="yes"/>
      <point x="442.333" y="301.667" type="line"/>
      <point x="519.667" y="301.667" type="line"/>
      <point x="519.667" y="330.667" type="line" smooth="yes"/>
      <point x="519.667" y="352.566"/>
      <point x="530.168" y="363"/>
      <point x="549.333" y="363" type="curve" smooth="yes"/>
      <point x="569.202" y="363"/>
      <point x="581" y="351.921"/>
      <point x="581" y="330.333" type="curve" smooth="yes"/>
      <point x="581" y="309" type="line" smooth="yes"/>
      <point x="581" y="285.353"/>
      <point x="577.198" y="273.197"/>
      <point x="559.667" y="247.333" type="curve" smooth="yes"/>
      <point x="439.667" y="67.333" type="line"/>
    </contour>
  </outline>
</glyph>
<glyph name="threequarters" format="2">
  <advance width="713"/>
  <unicode hex="00BE"/>
  <outline>
    <contour>
      <point x="202.667" y="0" type="line"/>
      <point x="280.333" y="0" type="line"/>
      <point x="542.333" y="712.333" type="line"/>
      <point x="464.667" y="712.333" type="line"/>
    </contour>
    <contour>
      <point x="29.667" y="400.667" type="line"/>
      <point x="29.667" y="371" type="line" smooth="yes"/>
      <point x="29.667" y="308.746"/>
      <point x="68.989" y="273"/>
      <point x="138.333" y="273" type="curve" smooth="yes"/>
      <point x="207.889" y="273"/>
      <point x="249.333" y="312.444"/>
      <point x="249.333" y="379.333" type="curve" smooth="yes"/>
      <point x="249.333" y="422.667" type="line" smooth="yes"/>
      <point x="249.333" y="467.678"/>
      <point x="237.491" y="488.121"/>
      <point x="202.333" y="502.667" type="curve"/>
      <point x="235.99" y="519.604"/>
      <point x="248.667" y="540.689"/>
      <point x="248.667" y="580.333" type="curve" smooth="yes"/>
      <point x="248.667" y="612" type="line" smooth="yes"/>
      <point x="248.667" y="675.778"/>
      <point x="208.111" y="713"/>
      <point x="138.333" y="713" type="curve" smooth="yes"/>
      <point x="71.141" y="713"/>
      <point x="29.667" y="675.248"/>
      <point x="29.667" y="613.333" type="curve" smooth="yes"/>
      <point x="29.667" y="584" type="line"/>
      <point x="107" y="584" type="line"/>
      <point x="107" y="609" type="line" smooth="yes"/>
      <point x="107" y="631.019"/>
      <point x="116.415" y="641.333"/>
      <point x="137.333" y="641.333" type="curve" smooth="yes"/>
      <point x="160.396" y="641.333"/>
      <point x="169" y="629.671"/>
      <point x="169" y="605" type="curve" smooth="yes"/>
      <point x="169" y="572.667" type="line" smooth="yes"/>
      <point x="169" y="547.084"/>
      <point x="159.126" y="534.333"/>
      <point x="134" y="534.333" type="curve" smooth="yes"/>
      <point x="116" y="534.333" type="line"/>
      <point x="116" y="463.667" type="line"/>
      <point x="132.667" y="463.667" type="line" smooth="yes"/>
      <point x="162.917" y="463.667"/>
      <point x="169.667" y="451.345"/>
      <point x="169.667" y="420.667" type="curve" smooth="yes"/>
      <point x="169.667" y="381.667" type="line" smooth="yes"/>
      <point x="169.667" y="355.647"/>
      <point x="161.809" y="344.667"/>
      <point x="137.333" y="344.667" type="curve" smooth="yes"/>
      <point x="117.182" y="344.667"/>
      <point x="106.667" y="355.809"/>
      <point x="106.667" y="377" type="curve" smooth="yes"/>
      <point x="106.667" y="400.667" type="line"/>
    </contour>
    <contour>
      <point x="441.333" y="69.333" type="line"/>
      <point x="581.667" y="69.333" type="line"/>
      <point x="581.667" y="0" type="line"/>
      <point x="661.333" y="0" type="line"/>
      <point x="661.333" y="69.333" type="line"/>
      <point x="691.333" y="69.333" type="line"/>
      <point x="691.333" y="141.333" type="line"/>
      <point x="661.333" y="141.333" type="line"/>
      <point x="661.333" y="229.333" type="line"/>
      <point x="581.667" y="229.333" type="line"/>
      <point x="581.667" y="141.333" type="line"/>
      <point x="521.667" y="141.333" type="line"/>
      <point x="615" y="427.333" type="line"/>
      <point x="535.333" y="427.333" type="line"/>
      <point x="441.333" y="141.333" type="line"/>
    </contour>
  </outline>
</glyph>
<glyph name="questiondown" format="2">
  <advance width="380"/>
  <unicode hex="00BF"/>
  <outline>
    <contour>
      <point x="142.667" y="417.333" type="line"/>
      <point x="244" y="417.333" type="line"/>
      <point x="244" y="537" type="line"/>
      <point x="142.667" y="537" type="line"/>
    </contour>
    <contour>
      <point x="252.667" y="32.333" type="line"/>
      <point x="252.667" y="-40.526"/>
      <point x="233.456" y="-77"/>
      <point x="194" y="-77" type="curve" smooth="yes"/>
      <point x="155.308" y="-77"/>
      <point x="135.667" y="-51.189"/>
      <point x="135.667" y="-0.333" type="curve" smooth="yes"/>
      <point x="135.667" y="39.027"/>
      <point x="143.756" y="66.141"/>
      <point x="166.333" y="102.333" type="curve" smooth="yes"/>
      <point x="204" y="162.667" type="line" smooth="yes"/>
      <point x="236.929" y="215.332"/>
      <point x="243.333" y="237.292"/>
      <point x="243.333" y="298" type="curve" smooth="yes"/>
      <point x="243.333" y="338.667" type="line"/>
      <point x="144" y="338.667" type="line"/>
      <point x="144" y="299.333" type="line" smooth="yes"/>
      <point x="144" y="253.115"/>
      <point x="138.967" y="235.078"/>
      <point x="116.667" y="201.333" type="curve" smooth="yes"/>
      <point x="77.667" y="142.667" type="line" smooth="yes"/>
      <point x="42.252" y="88.858"/>
      <point x="30.667" y="53.237"/>
      <point x="30.667" y="-1.667" type="curve" smooth="yes"/>
      <point x="30.667" y="-107.323"/>
      <point x="91.819" y="-170.667"/>
      <point x="193.667" y="-170.667" type="curve" smooth="yes"/>
      <point x="303.521" y="-170.667"/>
      <point x="356.556" y="-104.735"/>
      <point x="357" y="32.333" type="curve"/>
    </contour>
  </outline>
</glyph>
<glyph name="AE" format="2">
  <advance width="698"/>
  <unicode hex="00C6"/>
  <anchor x="424" y="766.667" name="top"/>
  <outline>
    <contour>
      <point x="7" y="0" type="line"/>
      <point x="120.333" y="0" type="line"/>
      <point x="179" y="149.333" type="line"/>
      <point x="356.667" y="149.333" type="line"/>
      <point x="356.667" y="0" type="line"/>
      <point x="669.333" y="0" type="line"/>
      <point x="669.333" y="97.667" type="line"/>
      <point x="465.333" y="97.667" type="line"/>
      <point x="465.333" y="310.667" type="line"/>
      <point x="640.667" y="310.667" type="line"/>
      <point x="640.667" y="408.333" type="line"/>
      <point x="465.333" y="408.333" type="line"/>
      <point x="465.333" y="608.667" type="line"/>
      <point x="669.333" y="608.667" type="line"/>
      <point x="669.333" y="707" type="line"/>
      <point x="287" y="707" type="line"/>
    </contour>
    <contour>
      <point x="215.333" y="246.667" type="line"/>
      <point x="356.667" y="610" type="line"/>
      <point x="356.667" y="246.667" type="line"/>
    </contour>
  </outline>
</glyph>
<glyph name="multiply" format="2">
  <advance width="429"/>
  <unicode hex="00D7"/>
  <outline>
    <contour>
      <point x="50.333" y="182" type="line"/>
      <point x="115.333" y="118" type="line"/>
      <point x="215.333" y="218.333" type="line"/>
      <point x="314.667" y="118" type="line"/>
      <point x="379.333" y="182" type="line"/>
      <point x="280" y="283" type="line"/>
      <point x="379.333" y="382.333" type="line"/>
      <point x="314.667" y="447" type="line"/>
      <point x="215.333" y="347.333" type="line"/>
      <point x="115.333" y="447" type="line"/>
      <point x="50.333" y="382.333" type="line"/>
      <point x="150.333" y="283" type="line"/>
    </contour>
  </outline>
</glyph>
<glyph name="Thorn" format="2">
  <advance width="446"/>
  <unicode hex="00DE"/>
  <outline>
    <contour>
      <point x="49" y="0" type="line"/>
      <point x="157" y="0" type="line"/>
      <point x="157" y="154.667" type="line"/>
      <point x="235.667" y="154.667" type="line" smooth="yes"/>
      <point x="364.778" y="154.667"/>
      <point x="425.667" y="223.778"/>
      <point x="425.667" y="371.333" type="curve" smooth="yes"/>
      <point x="425.667" y="520.852"/>
      <point x="366.471" y="588"/>
      <point x="235.667" y="588" type="curve" smooth="yes"/>
      <point x="157" y="588" type="line"/>
      <point x="157" y="707" type="line"/>
      <point x="49" y="707" type="line"/>
    </contour>
    <contour>
      <point x="157" y="252" type="line"/>
      <point x="157" y="489.667" type="line"/>
      <point x="231.667" y="489.667" type="line" smooth="yes"/>
      <point x="290.621" y="489.667"/>
      <point x="316.667" y="453.417"/>
      <point x="316.667" y="371.333" type="curve" smooth="yes"/>
      <point x="316.667" y="288.757"/>
      <point x="290.499" y="252"/>
      <point x="231.667" y="252" type="curve" smooth="yes"/>
    </contour>
  </outline>
</glyph>
<glyph name="germandbls" format="2">
  <advance width="427"/>
  <unicode hex="00DF"/>
  <outline>
    <contour>
      <point x="48" y="0" type="line"/>
      <point x="151" y="0" type="line"/>
      <point x="151" y="550.667" type="line" smooth="yes"/>
      <point x="151" y="598.889"/>
      <point x="173" y="624"/>
      <point x="215" y="624" type="curve" smooth="yes"/>
      <point x="262.727" y="624"/>
      <point x="276.667" y="590.821"/>
      <point x="276.667" y="543.667" type="curve" smooth="yes"/>
      <point x="276.667" y="477.492"/>
      <point x="265.88" y="454.333"/>
      <point x="231.667" y="454.333" type="curve" smooth="yes"/>
      <point x="214" y="454.333" type="line"/>
      <point x="214" y="367" type="line"/>
      <point x="233" y="367" type="line" smooth="yes"/>
      <point x="274.481" y="367"/>
      <point x="281.667" y="319.371"/>
      <point x="281.667" y="228.333" type="curve" smooth="yes"/>
      <point x="281.667" y="128.374"/>
      <point x="273.769" y="83"/>
      <point x="233.333" y="83" type="curve" smooth="yes"/>
      <point x="216.333" y="83" type="line"/>
      <point x="216.333" y="-4.667" type="line"/>
      <point x="243.667" y="-4.667" type="line" smooth="yes"/>
      <point x="371.125" y="-4.667"/>
      <point x="384.667" y="61.29"/>
      <point x="384.667" y="228.333" type="curve" smooth="yes"/>
      <point x="384.667" y="335.871"/>
      <point x="381.986" y="389.562"/>
      <point x="322.333" y="419" type="curve"/>
      <point x="365.996" y="446.169"/>
      <point x="379.667" y="478.398"/>
      <point x="379.667" y="552.667" type="curve" smooth="yes"/>
      <point x="379.667" y="655.155"/>
      <point x="318.383" y="716.667"/>
      <point x="215.333" y="716.667" type="curve" smooth="yes"/>
      <point x="103.173" y="716.667"/>
      <point x="48" y="655.511"/>
      <point x="48" y="532.333" type="curve" smooth="yes"/>
    </contour>
  </outline>
</glyph>
<glyph name="ae" format="2">
  <advance width="639"/>
  <unicode hex="00E6"/>
  <anchor x="315.667" y="599.333" name="top"/>
  <outline>
    <contour>
      <point x="48" y="385.333" type="line"/>
      <point x="143.333" y="385.333" type="line"/>
      <point x="143.333" y="393.333" type="line" smooth="yes"/>
      <point x="143.333" y="431.893"/>
      <point x="164.895" y="454.667"/>
      <point x="202.333" y="454.667" type="curve" smooth="yes"/>
      <point x="245.346" y="454.667"/>
      <point x="263" y="428.712"/>
      <point x="263" y="386.333" type="curve" smooth="yes"/>
      <point x="263" y="310.667" type="line"/>
      <point x="205.667" y="310.667" type="line" smooth="yes"/>
      <point x="95.38" y="310.667"/>
      <point x="34.333" y="255.131"/>
      <point x="34.333" y="155" type="curve" smooth="yes"/>
      <point x="34.333" y="54.149"/>
      <point x="93.935" y="-8"/>
      <point x="190.667" y="-8" type="curve" smooth="yes"/>
      <point x="239.096" y="-8"/>
      <point x="279.21" y="7.588"/>
      <point x="309.333" y="38.333" type="curve"/>
      <point x="336.667" y="7.222"/>
      <point x="377.111" y="-8"/>
      <point x="432" y="-8" type="curve" smooth="yes"/>
      <point x="537.231" y="-8"/>
      <point x="594.667" y="51.631"/>
      <point x="594.667" y="162.333" type="curve" smooth="yes"/>
      <point x="594.667" y="167.333" type="line"/>
      <point x="494.333" y="167.333" type="line"/>
      <point x="494.333" y="162.667" type="line" smooth="yes"/>
      <point x="494.333" y="108.638"/>
      <point x="473.4" y="81.333"/>
      <point x="431.333" y="81.333" type="curve" smooth="yes"/>
      <point x="387.128" y="81.333"/>
      <point x="365.333" y="113.734"/>
      <point x="365.333" y="179.667" type="curve" smooth="yes"/>
      <point x="365.333" y="233.667" type="line"/>
      <point x="597" y="233.667" type="line"/>
      <point x="597" y="341" type="line" smooth="yes"/>
      <point x="597" y="474.118"/>
      <point x="537.827" y="545.333"/>
      <point x="428" y="545.333" type="curve" smooth="yes"/>
      <point x="379.999" y="545.333"/>
      <point x="342.778" y="532.111"/>
      <point x="315.667" y="506.333" type="curve"/>
      <point x="288.778" y="532.333"/>
      <point x="251.444" y="545.333"/>
      <point x="204.333" y="545.333" type="curve" smooth="yes"/>
      <point x="106.599" y="545.333"/>
      <point x="48" y="487.504"/>
      <point x="48" y="391" type="curve" smooth="yes"/>
    </contour>
    <contour>
      <point x="365.333" y="308.667" type="line"/>
      <point x="365.333" y="399.493"/>
      <point x="370.153" y="453"/>
      <point x="430.333" y="453" type="curve" smooth="yes"/>
      <point x="473.122" y="453"/>
      <point x="494.333" y="420.02"/>
      <point x="494.333" y="353" type="curve" smooth="yes"/>
      <point x="494.333" y="308.667" type="line"/>
    </contour>
    <contour>
      <point x="263" y="238" type="line"/>
      <point x="263" y="159" type="line" smooth="yes"/>
      <point x="263" y="110.288"/>
      <point x="238.96" y="80.667"/>
      <point x="199" y="80.667" type="curve" smooth="yes"/>
      <point x="158.111" y="80.667"/>
      <point x="137" y="107.333"/>
      <point x="137" y="158.667" type="curve" smooth="yes"/>
      <point x="137" y="212.444"/>
      <point x="162.889" y="238"/>
      <point x="217.333" y="238" type="curve" smooth="yes"/>
    </contour>
  </outline>
</glyph>
<glyph name="eth" format="2">
  <advance width="410"/>
  <unicode hex="00F0"/>
  <outline>
    <contour>
      <point x="97" y="529.333" type="line"/>
      <point x="183" y="557" type="line"/>
      <point x="232.333" y="465.667" type="line"/>
      <point x="217.222" y="473"/>
      <point x="199.333" y="476.333"/>
      <point x="178" y="476.333" type="curve" smooth="yes"/>
      <point x="89.778" y="476.333"/>
      <point x="43" y="413.111"/>
      <point x="43" y="294" type="curve" smooth="yes"/>
      <point x="43" y="181.333" type="line" smooth="yes"/>
      <point x="43" y="56.222"/>
      <point x="98.333" y="-9.667"/>
      <point x="204.333" y="-9.667" type="curve" smooth="yes"/>
      <point x="312.112" y="-9.667"/>
      <point x="368.333" y="55.556"/>
      <point x="368.333" y="182" type="curve" smooth="yes"/>
      <point x="368.333" y="286.333" type="line" smooth="yes"/>
      <point x="368.333" y="373.02"/>
      <point x="352.84" y="428.476"/>
      <point x="300.667" y="525.667" type="curve" smooth="yes"/>
      <point x="269" y="584.333" type="line"/>
      <point x="335.333" y="605" type="line"/>
      <point x="313.333" y="674" type="line"/>
      <point x="235.667" y="648.333" type="line"/>
      <point x="201.333" y="713.333" type="line"/>
      <point x="99.667" y="713.333" type="line"/>
      <point x="148.667" y="621" type="line"/>
      <point x="75" y="597.333" type="line"/>
    </contour>
    <contour>
      <point x="206" y="87.333" type="curve" smooth="yes"/>
      <point x="166.667" y="87.333"/>
      <point x="145.667" y="116.222"/>
      <point x="145.667" y="169.333" type="curve" smooth="yes"/>
      <point x="145.667" y="304.333" type="line" smooth="yes"/>
      <point x="145.667" y="355"/>
      <point x="166" y="381"/>
      <point x="206" y="381" type="curve" smooth="yes"/>
      <point x="245.333" y="381"/>
      <point x="265.667" y="354.889"/>
      <point x="265.667" y="304" type="curve" smooth="yes"/>
      <point x="265.667" y="169.333" type="line" smooth="yes"/>
      <point x="265.667" y="122.805"/>
      <point x="250.44" y="87.333"/>
    </contour>
  </outline>
</glyph>
<glyph name="divide" format="2">
  <advance width="429"/>
  <unicode hex="00F7"/>
  <outline>
    <contour>
      <point x="214.667" y="381" type="curve" smooth="yes"/>
      <point x="247.687" y="381"/>
      <point x="274.667" y="408.125"/>
      <point x="274.667" y="441.333" type="curve" smooth="yes"/>
      <point x="274.667" y="474.222"/>
      <point x="248.222" y="500"/>
      <point x="214.667" y="500" type="curve" smooth="yes"/>
      <point x="181.685" y="500"/>
      <point x="155.667" y="474.132"/>
      <point x="155.667" y="441.333" type="curve" smooth="yes"/>
      <point x="155.667" y="408.314"/>
      <point x="182.314" y="381"/>
    </contour>
    <contour>
      <point x="35.667" y="233" type="line"/>
      <point x="394" y="233" type="line"/>
      <point x="394" y="331.333" type="line"/>
      <point x="35.667" y="331.333" type="line"/>
    </contour>
    <contour>
      <point x="214.667" y="68" type="curve" smooth="yes"/>
      <point x="248.354" y="68"/>
      <point x="274.667" y="93.792"/>
      <point x="274.667" y="127.667" type="curve" smooth="yes"/>
      <point x="274.667" y="161.537"/>
      <point x="248.349" y="187.333"/>
      <point x="214.667" y="187.333" type="curve" smooth="yes"/>
      <point x="181.778" y="187.333"/>
      <point x="155.667" y="160.556"/>
      <point x="155.667" y="127.667" type="curve" smooth="yes"/>
      <point x="155.667" y="95.029"/>
      <point x="182.029" y="68"/>
    </contour>
  </outline>
</glyph>
<glyph name="oslash" format="2">
  <advance width="419"/>
  <unicode hex="00F8"/>
  <anchor x="211" y="599.333" name="top"/>
  <outline>
    <component base="o"/>
    <contour>
      <point x="43" y="-30.333" type="line"/>
      <point x="93.333" y="-30.333" type="line"/>
      <point x="377.333" y="564.333" type="line"/>
      <point x="327" y="564.333" type="line"/>
    </contour>
  </outline>
</glyph>
<glyph name="dcaron" format="2">
  <advance width="511"/>
  <unicode hex="010F"/>
  <outline>
    <component base="d"/>
    <contour>
      <point x="425.667" y="532" type="line"/>
      <point x="511" y="606" type="line"/>
      <point x="511" y="707" type="line"/>
      <point x="425.667" y="707" type="line"/>
    </contour>
  </outline>
</glyph>
<glyph name="Dcroat" format="2">
  <advance width="502"/>
  <unicode hex="0110"/>
  <outline>
    <component base="D" xOffset="23.667"/>
    <contour>
      <point x="23.667" y="410.667" type="line"/>
      <point x="23.667" y="313.333" type="line"/>
      <point x="275.333" y="313.333" type="line"/>
      <point x="275.333" y="410.667" type="line"/>
    </contour>
  </outline>
</glyph>
<glyph name="dcroat" format="2">
  <advance width="420"/>
  <unicode hex="0111"/>
  <outline>
    <component base="d"/>
    <contour>
      <point x="185.333" y="585.333" type="line"/>
      <point x="426.333" y="585.333" type="line"/>
      <point x="426.333" y="651" type="line"/>
      <point x="185.333" y="651" type="line"/>
    </contour>
  </outline>
</glyph>
<glyph name="gcommaaccent" format="2">
  <advance width="420"/>
  <unicode hex="0123"/>
  <outline>
    <component base="g"/>
    <contour>
      <point x="157.333" y="567.333" type="line"/>
      <point x="242" y="567.333" type="line"/>
      <point x="242" y="707" type="line"/>
      <point x="157.333" y="633" type="line"/>
    </contour>
  </outline>
</glyph>
<glyph name="Hbar" format="2">
  <advance width="477"/>
  <unicode hex="0126"/>
  <outline>
    <contour>
      <point x="16.333" y="516.333" type="line"/>
      <point x="461.667" y="516.333" type="line"/>
      <point x="461.667" y="613.667" type="line"/>
      <point x="16.333" y="613.667" type="line"/>
    </contour>
    <contour>
      <point x="137.64" y="311" type="line"/>
      <point x="339.36" y="311" type="line"/>
      <point x="339.36" y="408.333" type="line"/>
      <point x="137.64" y="408.333" type="line"/>
    </contour>
    <contour>
      <point x="319" y="0" type="line"/>
      <point x="428" y="0" type="line"/>
      <point x="428" y="707" type="line"/>
      <point x="319" y="707" type="line"/>
    </contour>
    <contour>
      <point x="49" y="0" type="line"/>
      <point x="158" y="0" type="line"/>
      <point x="158" y="707" type="line"/>
      <point x="49" y="707" type="line"/>
    </contour>
  </outline>
</glyph>
<glyph name="hbar" format="2">
  <advance width="421"/>
  <unicode hex="0127"/>
  <outline>
    <component base="h"/>
    <contour>
      <point x="3.667" y="596.333" type="line"/>
      <point x="285.667" y="596.333" type="line"/>
      <point x="285.667" y="653.667" type="line"/>
      <point x="3.667" y="653.667" type="line"/>
    </contour>
  </outline>
</glyph>
<glyph name="IJ" format="2">
  <advance width="478"/>
  <unicode hex="0132"/>
  <outline>
    <contour>
      <point x="53" y="139.667" type="line"/>
      <point x="71.387" y="49.306"/>
      <point x="143.649" y="-8"/>
      <point x="239.333" y="-8" type="curve" smooth="yes"/>
      <point x="352.081" y="-8"/>
      <point x="428.667" y="69.12"/>
      <point x="428.667" y="183.333" type="curve" smooth="yes"/>
      <point x="428.667" y="707" type="line"/>
      <point x="319.667" y="707" type="line"/>
      <point x="319.667" y="186.667" type="line" smooth="yes"/>
      <point x="319.667" y="129.295"/>
      <point x="296.259" y="89.667"/>
      <point x="239.333" y="89.667" type="curve" smooth="yes"/>
      <point x="201.989" y="89.667"/>
      <point x="174.455" y="108.062"/>
      <point x="165.333" y="139.667" type="curve"/>
    </contour>
    <contour>
      <point x="49" y="278.667" type="line"/>
      <point x="158" y="278.667" type="line"/>
      <point x="158" y="707" type="line"/>
      <point x="49" y="707" type="line"/>
    </contour>
  </outline>
</glyph>
<glyph name="ij" format="2">
  <advance width="417"/>
  <unicode hex="0133"/>
  <outline>
    <contour>
      <point x="47.333" y="609" type="line"/>
      <point x="150" y="609" type="line"/>
      <point x="150" y="706.667" type="line"/>
      <point x="47.333" y="706.667" type="line"/>
    </contour>
    <contour>
      <point x="269.667" y="609" type="line"/>
      <point x="370" y="609" type="line"/>
      <point x="370" y="706.667" type="line"/>
      <point x="269.667" y="706.667" type="line"/>
    </contour>
    <contour>
      <point x="55.333" y="-22.667" type="line"/>
      <point x="57.324" y="-114.97"/>
      <point x="114.348" y="-170"/>
      <point x="209.667" y="-170" type="curve" smooth="yes"/>
      <point x="314.155" y="-170"/>
      <point x="370" y="-107.956"/>
      <point x="370" y="9.333" type="curve" smooth="yes"/>
      <point x="370" y="537" type="line"/>
      <point x="269.667" y="537" type="line"/>
      <point x="269.667" y="231.333" type="line" smooth="yes"/>
      <point x="269.667" y="164.081"/>
      <point x="251.279" y="133.667"/>
      <point x="209" y="133.667" type="curve" smooth="yes"/>
      <point x="166.478" y="133.667"/>
      <point x="150" y="160.822"/>
      <point x="150" y="231.333" type="curve" smooth="yes"/>
      <point x="150" y="537" type="line"/>
      <point x="47.333" y="537" type="line"/>
      <point x="47.333" y="215.333" type="line" smooth="yes"/>
      <point x="47.333" y="111.1"/>
      <point x="88.476" y="42.333"/>
      <point x="178.333" y="42.333" type="curve" smooth="yes"/>
      <point x="214.198" y="42.333"/>
      <point x="249.486" y="59.485"/>
      <point x="271" y="88" type="curve"/>
      <point x="271" y="0" type="line" smooth="yes"/>
      <point x="271" y="-56.046"/>
      <point x="251.535" y="-81.667"/>
      <point x="210.333" y="-81.667" type="curve" smooth="yes"/>
      <point x="172.103" y="-81.667"/>
      <point x="152.401" y="-61.858"/>
      <point x="151.667" y="-22.667" type="curve"/>
    </contour>
  </outline>
</glyph>
<glyph name="kgreenlandic" format="2">
  <advance width="425"/>
  <unicode hex="0138"/>
  <anchor x="203" y="766.667" name="top"/>
  <anchor x="219.667" y="-86" name="bottom"/>
  <outline>
    <contour>
      <point x="48" y="0" type="line"/>
      <point x="150.667" y="0" type="line"/>
      <point x="150.667" y="537" type="line"/>
      <point x="48" y="510.333" type="line"/>
    </contour>
    <contour>
      <point x="142.186" y="141.527" type="line"/>
      <point x="404" y="537" type="line"/>
      <point x="295.667" y="537" type="line"/>
      <point x="142.716" y="285.528" type="line"/>
    </contour>
    <contour>
      <point x="300" y="0" type="line"/>
      <point x="413.667" y="0" type="line"/>
      <point x="258.661" y="341.988" type="line"/>
      <point x="196.036" y="244.816" type="line"/>
    </contour>
  </outline>
</glyph>
<glyph name="Lcaron" format="2">
  <advance width="383"/>
  <unicode hex="013D"/>
  <outline>
    <component base="L"/>
    <contour>
      <point x="244.333" y="532" type="line"/>
      <point x="329.667" y="606" type="line"/>
      <point x="329.667" y="707" type="line"/>
      <point x="244.333" y="707" type="line"/>
    </contour>
  </outline>
</glyph>
<glyph name="lcaron" format="2">
  <advance width="304"/>
  <unicode hex="013E"/>
  <outline>
    <component base="l"/>
    <contour>
      <point x="219" y="532" type="line"/>
      <point x="304.333" y="606" type="line"/>
      <point x="304.333" y="707" type="line"/>
      <point x="219" y="707" type="line"/>
    </contour>
  </outline>
</glyph>
<glyph name="Lslash" format="2">
  <advance width="383"/>
  <unicode hex="0141"/>
  <outline>
    <component base="L"/>
    <contour>
      <point x="21.167" y="302.667" type="line"/>
      <point x="248.333" y="404" type="line"/>
      <point x="248.333" y="498.667" type="line"/>
      <point x="21.167" y="397.333" type="line"/>
    </contour>
  </outline>
</glyph>
<glyph name="lslash" format="2">
  <advance width="243"/>
  <unicode hex="0142"/>
  <outline>
    <component base="l"/>
    <contour>
      <point x="9.333" y="303.333" type="line"/>
      <point x="201.333" y="389" type="line"/>
      <point x="200.667" y="483" type="line"/>
      <point x="9.333" y="398" type="line"/>
    </contour>
  </outline>
</glyph>
<glyph name="Eng" format="2">
  <advance width="495"/>
  <unicode hex="014A"/>
  <outline>
    <contour>
      <point x="49" y="0" type="line"/>
      <point x="158" y="0" type="line"/>
      <point x="158" y="432.333" type="line"/>
      <point x="336.667" y="0" type="line"/>
      <point x="336.667" y="-14" type="line" smooth="yes"/>
      <point x="336.667" y="-63.254"/>
      <point x="319.5" y="-82.333"/>
      <point x="275" y="-82.333" type="curve" smooth="yes"/>
      <point x="266.667" y="-82.333" type="line"/>
      <point x="266.667" y="-173.667" type="line"/>
      <point x="276.333" y="-173.667" type="line" smooth="yes"/>
      <point x="388.225" y="-173.667"/>
      <point x="445.667" y="-119.795"/>
      <point x="445.667" y="-15" type="curve" smooth="yes"/>
      <point x="445.667" y="707" type="line"/>
      <point x="336.667" y="707" type="line"/>
      <point x="336.667" y="263" type="line"/>
      <point x="158" y="707" type="line"/>
      <point x="49" y="707" type="line"/>
    </contour>
  </outline>
</glyph>
<glyph name="eng" format="2">
  <advance width="421"/>
  <unicode hex="014B"/>
  <outline>
    <contour>
      <point x="48" y="0" type="line"/>
      <point x="150.667" y="0" type="line"/>
      <point x="150.667" y="383.333" type="line" smooth="yes"/>
      <point x="150.667" y="424.549"/>
      <point x="170.129" y="453"/>
      <point x="211" y="453" type="curve" smooth="yes"/>
      <point x="251.417" y="453"/>
      <point x="271.333" y="424.481"/>
      <point x="271.333" y="383.333" type="curve" smooth="yes"/>
      <point x="271.333" y="-14" type="line" smooth="yes"/>
      <point x="271.333" y="-61.098"/>
      <point x="250.556" y="-82.333"/>
      <point x="203.333" y="-82.333" type="curve" smooth="yes"/>
      <point x="195" y="-82.333" type="line"/>
      <point x="195" y="-173.667" type="line"/>
      <point x="204.667" y="-173.667" type="line" smooth="yes"/>
      <point x="316.558" y="-173.667"/>
      <point x="374" y="-119.795"/>
      <point x="374" y="-15" type="curve" smooth="yes"/>
      <point x="374" y="385" type="line" smooth="yes"/>
      <point x="374" y="490.178"/>
      <point x="328.106" y="545.333"/>
      <point x="241.333" y="545.333" type="curve" smooth="yes"/>
      <point x="203.19" y="545.333"/>
      <point x="170.38" y="527.646"/>
      <point x="146.667" y="494.333" type="curve"/>
      <point x="146.667" y="537" type="line"/>
      <point x="48" y="537" type="line"/>
    </contour>
  </outline>
</glyph>
<glyph name="OE" format="2">
  <advance width="670"/>
  <unicode hex="0152"/>
  <outline>
    <contour>
      <point x="344.333" y="0" type="line"/>
      <point x="641.667" y="0" type="line"/>
      <point x="641.667" y="97.667" type="line"/>
      <point x="438.333" y="97.667" type="line"/>
      <point x="438.667" y="310.667" type="line"/>
      <point x="612.333" y="310.667" type="line"/>
      <point x="612.333" y="408.333" type="line"/>
      <point x="438.667" y="408.333" type="line"/>
      <point x="438.333" y="608.667" type="line"/>
      <point x="641.667" y="608.667" type="line"/>
      <point x="641.667" y="707" type="line"/>
      <point x="344.333" y="707" type="line"/>
      <point x="344.333" y="679.333" type="line"/>
      <point x="311.667" y="704.222"/>
      <point x="273.889" y="717"/>
      <point x="230.333" y="717" type="curve" smooth="yes"/>
      <point x="108.934" y="717"/>
      <point x="43.667" y="644.313"/>
      <point x="43.667" y="509.333" type="curve" smooth="yes"/>
      <point x="43.667" y="198.667" type="line" smooth="yes"/>
      <point x="43.667" y="63.345"/>
      <point x="107.029" y="-8"/>
      <point x="226.333" y="-8" type="curve" smooth="yes"/>
      <point x="273.444" y="-8"/>
      <point x="312.556" y="5.667"/>
      <point x="344.333" y="33.667" type="curve"/>
    </contour>
    <contour>
      <point x="242.667" y="89.667" type="curve" smooth="yes"/>
      <point x="182.437" y="89.667"/>
      <point x="152.667" y="129.444"/>
      <point x="152.667" y="207.667" type="curve" smooth="yes"/>
      <point x="152.667" y="493.667" type="line" smooth="yes"/>
      <point x="152.667" y="577.444"/>
      <point x="182.274" y="618.333"/>
      <point x="242.667" y="618.333" type="curve" smooth="yes"/>
      <point x="300.055" y="618.333"/>
      <point x="329.667" y="575.665"/>
      <point x="329.667" y="493.667" type="curve" smooth="yes"/>
      <point x="329.667" y="207.667" type="line" smooth="yes"/>
      <point x="329.667" y="131.261"/>
      <point x="299" y="89.667"/>
    </contour>
  </outline>
</glyph>
<glyph name="oe" format="2">
  <advance width="652"/>
  <unicode hex="0153"/>
  <outline>
    <contour>
      <point x="377.333" y="233.667" type="line"/>
      <point x="608.667" y="233.667" type="line"/>
      <point x="608.667" y="341" type="line" smooth="yes"/>
      <point x="608.667" y="474.241"/>
      <point x="549.718" y="545.333"/>
      <point x="440" y="545.333" type="curve" smooth="yes"/>
      <point x="391.999" y="545.333"/>
      <point x="354.444" y="531.667"/>
      <point x="328" y="505" type="curve"/>
      <point x="300.889" y="531.889"/>
      <point x="261.889" y="545.333"/>
      <point x="211" y="545.333" type="curve" smooth="yes"/>
      <point x="97.842" y="545.333"/>
      <point x="43" y="482.772"/>
      <point x="43" y="354.333" type="curve" smooth="yes"/>
      <point x="43" y="182" type="line" smooth="yes"/>
      <point x="43" y="55"/>
      <point x="98.407" y="-8"/>
      <point x="211" y="-8" type="curve" smooth="yes"/>
      <point x="261.444" y="-8"/>
      <point x="300.444" y="5.222"/>
      <point x="328" y="31.667" type="curve"/>
      <point x="354.222" y="5.222"/>
      <point x="392.667" y="-8"/>
      <point x="442.667" y="-8" type="curve" smooth="yes"/>
      <point x="548.008" y="-8"/>
      <point x="605.667" y="51.744"/>
      <point x="605.667" y="162.333" type="curve" smooth="yes"/>
      <point x="605.667" y="167.333" type="line"/>
      <point x="506.333" y="167.333" type="line"/>
      <point x="506.333" y="162.667" type="line" smooth="yes"/>
      <point x="506.333" y="108.638"/>
      <point x="485.4" y="81.333"/>
      <point x="443.333" y="81.333" type="curve" smooth="yes"/>
      <point x="399.128" y="81.333"/>
      <point x="377.333" y="113.734"/>
      <point x="377.333" y="179.667" type="curve" smooth="yes"/>
    </contour>
    <contour>
      <point x="210" y="83.333" type="curve" smooth="yes"/>
      <point x="166.947" y="83.333"/>
      <point x="145.667" y="116.472"/>
      <point x="145.667" y="184" type="curve" smooth="yes"/>
      <point x="145.667" y="352.333" type="line" smooth="yes"/>
      <point x="145.667" y="419.861"/>
      <point x="166.947" y="453"/>
      <point x="210" y="453" type="curve" smooth="yes"/>
      <point x="253.443" y="453"/>
      <point x="274.667" y="419.793"/>
      <point x="274.667" y="352.333" type="curve" smooth="yes"/>
      <point x="274.667" y="184" type="line" smooth="yes"/>
      <point x="274.667" y="117.225"/>
      <point x="252.965" y="83.333"/>
    </contour>
    <contour>
      <point x="377.333" y="308.667" type="line"/>
      <point x="377.333" y="352.333" type="line" smooth="yes"/>
      <point x="377.333" y="419.539"/>
      <point x="398.841" y="453"/>
      <point x="441.667" y="453" type="curve" smooth="yes"/>
      <point x="485.122" y="453"/>
      <point x="506.333" y="420.02"/>
      <point x="506.333" y="353" type="curve" smooth="yes"/>
      <point x="506.333" y="308.667" type="line"/>
    </contour>
  </outline>
</glyph>
<glyph name="Rcommaaccent" format="2">
  <advance width="473"/>
  <unicode hex="0156"/>
  <outline>
    <contour>
      <point x="49" y="0" type="line"/>
      <point x="158" y="0" type="line"/>
      <point x="158" y="292.333" type="line"/>
      <point x="236" y="292.333" type="line"/>
      <point x="334.333" y="0" type="line"/>
      <point x="448.667" y="0" type="line"/>
      <point x="336.667" y="311.667" type="line"/>
      <point x="397.778" y="339.889"/>
      <point x="426.667" y="400.556"/>
      <point x="426.667" y="499.667" type="curve" smooth="yes"/>
      <point x="426.667" y="645.332"/>
      <point x="371.309" y="707"/>
      <point x="240" y="707" type="curve" smooth="yes"/>
      <point x="49" y="707" type="line"/>
    </contour>
    <contour>
      <point x="158" y="389" type="line"/>
      <point x="158" y="609.333" type="line"/>
      <point x="238.333" y="609.333" type="line" smooth="yes"/>
      <point x="294.42" y="609.333"/>
      <point x="317.667" y="577.137"/>
      <point x="317.667" y="499.667" type="curve" smooth="yes"/>
      <point x="317.667" y="422.436"/>
      <point x="293.222" y="389"/>
      <point x="238.333" y="389" type="curve" smooth="yes"/>
    </contour>
    <contour>
      <point x="193.667" y="-173" type="line"/>
      <point x="279" y="-99" type="line"/>
      <point x="279" y="-33.333" type="line"/>
      <point x="193.667" y="-33.333" type="line"/>
    </contour>
  </outline>
</glyph>
<glyph name="rcommaaccent" format="2">
  <advance width="307"/>
  <unicode hex="0157"/>
  <outline>
    <contour>
      <point x="48" y="0" type="line"/>
      <point x="150.667" y="0" type="line"/>
      <point x="150.667" y="352" type="line" smooth="yes"/>
      <point x="150.667" y="409.949"/>
      <point x="184.524" y="446.333"/>
      <point x="238.333" y="446.333" type="curve" smooth="yes"/>
      <point x="256.111" y="446.333"/>
      <point x="273.778" y="443.333"/>
      <point x="291.333" y="436.667" type="curve"/>
      <point x="291.333" y="542.667" type="line"/>
      <point x="282" y="545.556"/>
      <point x="269.889" y="546.667"/>
      <point x="254.333" y="546.667" type="curve" smooth="yes"/>
      <point x="205.576" y="546.667"/>
      <point x="169.895" y="526.182"/>
      <point x="146.667" y="485.667" type="curve"/>
      <point x="146.667" y="537" type="line"/>
      <point x="48" y="537" type="line"/>
    </contour>
    <contour>
      <point x="55.667" y="-173" type="line"/>
      <point x="141" y="-99" type="line"/>
      <point x="141" y="-33.333" type="line"/>
      <point x="55.667" y="-33.333" type="line"/>
    </contour>
  </outline>
</glyph>
<glyph name="tcaron" format="2">
  <advance width="331"/>
  <unicode hex="0165"/>
  <outline>
    <component base="t"/>
    <contour>
      <point x="242.333" y="565.333" type="line"/>
      <point x="327.667" y="639.333" type="line"/>
      <point x="327.667" y="740.333" type="line"/>
      <point x="242.333" y="740.333" type="line"/>
    </contour>
  </outline>
</glyph>
<glyph name="Tbar" format="2">
  <advance width="377"/>
  <unicode hex="0166"/>
  <outline>
    <component base="T"/>
    <contour>
      <point x="70" y="315" type="line"/>
      <point x="311" y="315" type="line"/>
      <point x="311" y="407.333" type="line"/>
      <point x="70" y="407.333" type="line"/>
    </contour>
  </outline>
</glyph>
<glyph name="tbar" format="2">
  <advance width="307"/>
  <unicode hex="0167"/>
  <outline>
    <component base="t"/>
    <contour>
      <point x="22" y="317.333" type="line"/>
      <point x="275.333" y="317.333" type="line"/>
      <point x="275.333" y="394" type="line"/>
      <point x="22" y="394" type="line"/>
    </contour>
  </outline>
</glyph>
<glyph name="longs" format="2">
  <advance width="252"/>
  <unicode hex="017F"/>
  <anchor x="116.667" y="766.667" name="top"/>
  <outline>
    <contour>
      <point x="48" y="0" type="line"/>
      <point x="150" y="0" type="line"/>
      <point x="150" y="463.667" type="line"/>
      <point x="228.333" y="463.667" type="line"/>
      <point x="228.333" y="537" type="line"/>
      <point x="150" y="537" type="line"/>
      <point x="150" y="568" type="line" smooth="yes"/>
      <point x="150" y="613.53"/>
      <point x="166.248" y="632.333"/>
      <point x="211.667" y="632.333" type="curve" smooth="yes"/>
      <point x="228.333" y="632.333" type="line"/>
      <point x="228.333" y="707" type="line"/>
      <point x="185.667" y="707" type="line" smooth="yes"/>
      <point x="94.32" y="707"/>
      <point x="48" y="660.212"/>
      <point x="48" y="570" type="curve" smooth="yes"/>
    </contour>
  </outline>
</glyph>
<glyph name="Schwa" format="2">
  <advance width="482"/>
  <unicode hex="018F"/>
  <outline>
    <contour>
      <point x="152.666" y="495.334" type="line"/>
      <point x="152.666" y="510.334" type="line" smooth="yes"/>
      <point x="152.666" y="580.813"/>
      <point x="183.372" y="619"/>
      <point x="239.333" y="619" type="curve" smooth="yes"/>
      <point x="299.785" y="619"/>
      <point x="329.666" y="579.223"/>
      <point x="329.666" y="501" type="curve" smooth="yes"/>
      <point x="329.666" y="215.334" type="line" smooth="yes"/>
      <point x="329.666" y="131.477"/>
      <point x="300.01" y="90.6667"/>
      <point x="239.333" y="90.6667" type="curve" smooth="yes"/>
      <point x="183.901" y="90.6667"/>
      <point x="152.666" y="130.254"/>
      <point x="152.666" y="200" type="curve" smooth="yes"/>
      <point x="152.666" y="391.005" type="line"/>
      <point x="43.6663" y="391.005" type="line"/>
      <point x="43.6663" y="198.667" type="line" smooth="yes"/>
      <point x="43.6663" y="67.5397"/>
      <point x="114.555" y="-8.00033"/>
      <point x="237.666" y="-8.00033" type="curve" smooth="yes"/>
      <point x="363.877" y="-8.00033"/>
      <point x="438.666" y="68.7967"/>
      <point x="438.666" y="199.667" type="curve" smooth="yes"/>
      <point x="438.666" y="510" type="line" smooth="yes"/>
      <point x="438.666" y="641.484"/>
      <point x="366.628" y="716.667"/>
      <point x="242" y="716.667" type="curve" smooth="yes"/>
      <point x="118.111" y="716.667"/>
      <point x="45.0003" y="640.122"/>
      <point x="45.0003" y="511.334" type="curve" smooth="yes"/>
      <point x="45.0003" y="495.334" type="line"/>
    </contour>
    <contour>
      <point x="82.5943" y="391" type="line"/>
      <point x="82.5943" y="293.667" type="line"/>
      <point x="368.502" y="293.667" type="line"/>
      <point x="368.502" y="391" type="line"/>
    </contour>
  </outline>
</glyph>
<glyph name="florin" format="2">
  <advance width="397"/>
  <unicode hex="0192"/>
  <outline>
    <contour>
      <point x="8" y="-160" type="line"/>
      <point x="38.667" y="-160" type="line" smooth="yes"/>
      <point x="144.667" y="-160"/>
      <point x="195.579" y="-111.187"/>
      <point x="211" y="4.333" type="curve" smooth="yes"/>
      <point x="256" y="334.667" type="line"/>
      <point x="348.333" y="334.667" type="line"/>
      <point x="348.333" y="428" type="line"/>
      <point x="269.667" y="428" type="line"/>
      <point x="284" y="536" type="line" smooth="yes"/>
      <point x="292.013" y="595.466"/>
      <point x="310.066" y="612.667"/>
      <point x="360.333" y="612.667" type="curve" smooth="yes"/>
      <point x="388.667" y="612.667" type="line"/>
      <point x="388.667" y="707" type="line"/>
      <point x="351" y="707" type="line" smooth="yes"/>
      <point x="245.655" y="707"/>
      <point x="193.38" y="658.032"/>
      <point x="178.333" y="543" type="curve" smooth="yes"/>
      <point x="163.333" y="428" type="line"/>
      <point x="76.667" y="428" type="line"/>
      <point x="76.667" y="334.667" type="line"/>
      <point x="150.333" y="334.667" type="line"/>
      <point x="106" y="11.667" type="line" smooth="yes"/>
      <point x="97.853" y="-47.585"/>
      <point x="80.688" y="-65.667"/>
      <point x="30.333" y="-65.667" type="curve" smooth="yes"/>
      <point x="8" y="-65.667" type="line"/>
    </contour>
  </outline>
</glyph>
<glyph name="lbar" format="2">
  <advance width="243"/>
  <unicode hex="019A"/>
  <outline>
    <component base="l"/>
    <contour>
      <point x="9.667" y="333" type="line"/>
      <point x="225" y="333" type="line"/>
      <point x="225" y="430.333" type="line"/>
      <point x="9.667" y="430.333" type="line"/>
    </contour>
  </outline>
</glyph>
<glyph name="Ocenteredtilde" format="2">
  <advance width="482"/>
  <unicode hex="019F"/>
  <outline>
    <component base="O"/>
    <contour>
      <point x="136.76" y="306.333" type="line"/>
      <point x="350.573" y="306.333" type="line"/>
      <point x="350.573" y="403.667" type="line"/>
      <point x="136.76" y="403.667" type="line"/>
    </contour>
  </outline>
</glyph>
<glyph name="kcaron" format="2">
  <advance width="425"/>
  <unicode hex="01E9"/>
  <outline>
    <contour>
      <point x="48" y="0" type="line"/>
      <point x="150.667" y="0" type="line"/>
      <point x="150.667" y="154.333" type="line"/>
      <point x="202" y="230.667" type="line"/>
      <point x="300" y="0" type="line"/>
      <point x="413.667" y="0" type="line"/>
      <point x="265" y="328" type="line"/>
      <point x="404" y="537" type="line"/>
      <point x="295.667" y="537" type="line"/>
      <point x="150.667" y="298.667" type="line"/>
      <point x="150.667" y="707" type="line"/>
      <point x="48" y="707" type="line"/>
    </contour>
    <contour>
      <point x="58.333" y="778.333" type="line"/>
      <point x="137" y="778.333" type="line"/>
      <point x="241" y="927.667" type="line"/>
      <point x="159" y="927.667" type="line"/>
      <point x="99.333" y="843.667" type="line"/>
      <point x="39" y="927.667" type="line"/>
      <point x="-43.333" y="927.667" type="line"/>
    </contour>
  </outline>
</glyph>
<glyph name="dotlessj" format="2">
  <advance width="206"/>
  <unicode hex="0237"/>
  <anchor x="102.667" y="599.333" name="top"/>
  <outline>
    <contour>
      <point x="-25.333" y="-160" type="line"/>
      <point x="-14.667" y="-160" type="line" smooth="yes"/>
      <point x="97.111" y="-160"/>
      <point x="154.333" y="-106.111"/>
      <point x="154.333" y="-1" type="curve" smooth="yes"/>
      <point x="154.333" y="537" type="line"/>
      <point x="51.333" y="537" type="line"/>
      <point x="51.333" y="4.667" type="line" smooth="yes"/>
      <point x="51.333" y="-44.001"/>
      <point x="29.556" y="-67.667"/>
      <point x="-16" y="-67.667" type="curve" smooth="yes"/>
      <point x="-25.333" y="-67.667" type="line"/>
    </contour>
  </outline>
</glyph>
<glyph name="Lbar" format="2">
  <advance width="383"/>
  <unicode hex="023D"/>
  <outline>
    <component base="L"/>
    <contour>
      <point x="9.667" y="346.333" type="line"/>
      <point x="291.667" y="346.333" type="line"/>
      <point x="291.667" y="443.667" type="line"/>
      <point x="9.667" y="443.667" type="line"/>
    </contour>
  </outline>
</glyph>
<glyph name="obarred" format="2">
  <advance width="419"/>
  <unicode hex="0275"/>
  <outline>
    <component base="o"/>
    <contour>
      <point x="117.427" y="223" type="line"/>
      <point x="301.907" y="223" type="line"/>
      <point x="301.907" y="320.333" type="line"/>
      <point x="117.427" y="320.333" type="line"/>
    </contour>
  </outline>
</glyph>
<glyph name="apostrophemod" format="2">
  <unicode hex="02BC"/>
  <anchor x="49.667" y="707" name="_dot"/>
  <outline>
    <contour>
      <point x="-50.333" y="427" type="line"/>
      <point x="49.667" y="509" type="line"/>
      <point x="49.667" y="707" type="line"/>
      <point x="-50.333" y="707" type="line"/>
    </contour>
  </outline>
</glyph>
<glyph name="circumflex" format="2">
  <advance width="512"/>
  <unicode hex="02C6"/>
  <outline>
    <contour>
      <point x="113.667" y="592.667" type="line"/>
      <point x="195.667" y="592.667" type="line"/>
      <point x="256.333" y="678" type="line"/>
      <point x="316" y="592.667" type="line"/>
      <point x="398" y="592.667" type="line"/>
      <point x="294" y="742.667" type="line"/>
      <point x="215.333" y="742.667" type="line"/>
    </contour>
  </outline>
</glyph>
<glyph name="caron" format="2">
  <advance width="519"/>
  <unicode hex="02C7"/>
  <outline>
    <contour>
      <point x="218.667" y="593.333" type="line"/>
      <point x="297.333" y="593.333" type="line"/>
      <point x="401.333" y="742.667" type="line"/>
      <point x="319.333" y="742.667" type="line"/>
      <point x="259.667" y="658.667" type="line"/>
      <point x="199.333" y="742.667" type="line"/>
      <point x="117" y="742.667" type="line"/>
    </contour>
  </outline>
</glyph>
<glyph name="breve" format="2">
  <advance width="410"/>
  <unicode hex="02D8"/>
  <outline>
    <contour>
      <point x="77.333" y="739.333" type="line"/>
      <point x="77.333" y="721.333" type="line" smooth="yes"/>
      <point x="77.333" y="634.404"/>
      <point x="122.249" y="587.333"/>
      <point x="204.333" y="587.333" type="curve" smooth="yes"/>
      <point x="286.418" y="587.333"/>
      <point x="331.333" y="634.404"/>
      <point x="331.333" y="721.333" type="curve" smooth="yes"/>
      <point x="331.333" y="739.333" type="line"/>
      <point x="261.333" y="739.333" type="line"/>
      <point x="261.333" y="722.667" type="line" smooth="yes"/>
      <point x="261.333" y="672.044"/>
      <point x="244.703" y="650.667"/>
      <point x="204.333" y="650.667" type="curve" smooth="yes"/>
      <point x="163.964" y="650.667"/>
      <point x="147.333" y="672.044"/>
      <point x="147.333" y="722.667" type="curve" smooth="yes"/>
      <point x="147.333" y="739.333" type="line"/>
    </contour>
  </outline>
</glyph>
<glyph name="ring" format="2">
  <advance width="516"/>
  <unicode hex="02DA"/>
  <outline>
    <contour>
      <point x="193.667" y="645" type="curve"/>
      <point x="211.317" y="608.831"/>
      <point x="252.164" y="593.874"/>
      <point x="288.333" y="611.333" type="curve" smooth="yes"/>
      <point x="325" y="628.889"/>
      <point x="339.222" y="669.333"/>
      <point x="321.667" y="706" type="curve" smooth="yes"/>
      <point x="304.522" y="743.828"/>
      <point x="265.105" y="757.526"/>
      <point x="227.667" y="740" type="curve" smooth="yes"/>
      <point x="190.859" y="723.002"/>
      <point x="176.855" y="682.191"/>
    </contour>
    <contour>
      <point x="257.667" y="627.667" type="curve" smooth="yes"/>
      <point x="232.089" y="627.667"/>
      <point x="210.667" y="649.365"/>
      <point x="210.667" y="675.333" type="curve" smooth="yes"/>
      <point x="210.667" y="703.928"/>
      <point x="230.244" y="724.333"/>
      <point x="257.667" y="724.333" type="curve" smooth="yes"/>
      <point x="284.883" y="724.333"/>
      <point x="304.333" y="703.914"/>
      <point x="304.333" y="675.333" type="curve" smooth="yes"/>
      <point x="304.333" y="648.368"/>
      <point x="284.067" y="627.667"/>
    </contour>
  </outline>
</glyph>
<glyph name="ogonek" format="2">
  <advance width="265"/>
  <unicode hex="02DB"/>
  <outline>
    <contour>
      <point x="60" y="-56" type="line"/>
      <point x="77.742" y="-147.026"/>
      <point x="121.848" y="-214.789"/>
      <point x="205.333" y="-217.667" type="curve"/>
      <point x="205.333" y="-109.333" type="line"/>
      <point x="175.873" y="-108.55"/>
      <point x="148.231" y="-99.41"/>
      <point x="132.667" y="-70.667" type="curve"/>
      <point x="205.333" y="0.667" type="line"/>
      <point x="205.333" y="16.667" type="line"/>
      <point x="150" y="16.667" type="line"/>
    </contour>
  </outline>
</glyph>
<glyph name="tilde" format="2">
  <advance width="512"/>
  <unicode hex="02DC"/>
  <outline>
    <contour>
      <point x="142" y="596.333" type="line"/>
      <point x="166.808" y="625.98"/>
      <point x="182.731" y="636"/>
      <point x="205" y="636" type="curve" smooth="yes"/>
      <point x="241.96" y="636"/>
      <point x="258.734" y="600"/>
      <point x="304" y="600" type="curve" smooth="yes"/>
      <point x="330.708" y="600"/>
      <point x="344.418" y="607.717"/>
      <point x="369.667" y="637" type="curve"/>
      <point x="369.667" y="723.333" type="line"/>
      <point x="347.976" y="700.685"/>
      <point x="333.368" y="684"/>
      <point x="308.667" y="684" type="curve" smooth="yes"/>
      <point x="268.309" y="684"/>
      <point x="255.865" y="720.333"/>
      <point x="208.667" y="720.333" type="curve" smooth="yes"/>
      <point x="181.904" y="720.333"/>
      <point x="165.749" y="711.53"/>
      <point x="142" y="684" type="curve"/>
    </contour>
  </outline>
</glyph>
<glyph name="hungarumlaut" format="2">
  <advance width="512"/>
  <unicode hex="02DD"/>
  <outline>
    <contour>
      <point x="130.667" y="599.333" type="line"/>
      <point x="218" y="599.333" type="line"/>
      <point x="339" y="736" type="line"/>
      <point x="229.667" y="736" type="line"/>
    </contour>
    <contour>
      <point x="290.667" y="599.333" type="line"/>
      <point x="378" y="599.333" type="line"/>
      <point x="499" y="736" type="line"/>
      <point x="389.667" y="736" type="line"/>
    </contour>
  </outline>
</glyph>
<glyph name="uni0300" format="2">
  <unicode hex="0300"/>
  <anchor x="0" y="599.333" name="_top"/>
  <outline>
    <contour>
      <point x="-29.667" y="599.333" type="line"/>
      <point x="57.667" y="599.333" type="line"/>
      <point x="-41.333" y="736" type="line"/>
      <point x="-150.667" y="736" type="line"/>
    </contour>
  </outline>
</glyph>
<glyph name="uni0301" format="2">
  <unicode hex="0301"/>
  <anchor x="0" y="599.333" name="_top"/>
  <outline>
    <contour>
      <point x="-78.167" y="599.333" type="line"/>
      <point x="9.167" y="599.333" type="line"/>
      <point x="130.167" y="736" type="line"/>
      <point x="20.833" y="736" type="line"/>
    </contour>
  </outline>
</glyph>
<glyph name="uni0302" format="2">
  <unicode hex="0302"/>
  <anchor x="0" y="599.333" name="_top"/>
  <outline>
    <contour>
      <point x="-142.167" y="592.667" type="line"/>
      <point x="-60.167" y="592.667" type="line"/>
      <point x="0.5" y="678" type="line"/>
      <point x="60.167" y="592.667" type="line"/>
      <point x="142.167" y="592.667" type="line"/>
      <point x="38.167" y="742.667" type="line"/>
      <point x="-40.5" y="742.667" type="line"/>
    </contour>
  </outline>
</glyph>
<glyph name="uni0303" format="2">
  <unicode hex="0303"/>
  <anchor x="0" y="599.333" name="_top"/>
  <outline>
    <contour>
      <point x="-113.833" y="596.333" type="line"/>
      <point x="-89.026" y="625.98"/>
      <point x="-73.102" y="636"/>
      <point x="-50.833" y="636" type="curve" smooth="yes"/>
      <point x="-13.874" y="636"/>
      <point x="2.9" y="600"/>
      <point x="48.167" y="600" type="curve" smooth="yes"/>
      <point x="74.875" y="600"/>
      <point x="88.585" y="607.717"/>
      <point x="113.833" y="637" type="curve"/>
      <point x="113.833" y="723.333" type="line"/>
      <point x="92.142" y="700.685"/>
      <point x="77.534" y="684"/>
      <point x="52.833" y="684" type="curve" smooth="yes"/>
      <point x="12.476" y="684"/>
      <point x="0.032" y="720.333"/>
      <point x="-47.167" y="720.333" type="curve" smooth="yes"/>
      <point x="-73.929" y="720.333"/>
      <point x="-90.085" y="711.53"/>
      <point x="-113.833" y="684" type="curve"/>
    </contour>
  </outline>
</glyph>
<glyph name="uni0304" format="2">
  <unicode hex="0304"/>
  <anchor x="0" y="599.333" name="_top"/>
  <outline>
    <contour>
      <point x="-120.5" y="608" type="line"/>
      <point x="120.5" y="608" type="line"/>
      <point x="120.5" y="700.333" type="line"/>
      <point x="-120.5" y="700.333" type="line"/>
    </contour>
  </outline>
</glyph>
<glyph name="uni0307" format="2">
  <unicode hex="0307"/>
  <anchor x="0" y="599.333" name="_top"/>
  <outline>
    <contour>
      <point x="-53.167" y="613" type="line"/>
      <point x="53.167" y="613" type="line"/>
      <point x="53.167" y="710.333" type="line"/>
      <point x="-53.167" y="710.333" type="line"/>
    </contour>
  </outline>
</glyph>
<glyph name="uni030B" format="2">
  <unicode hex="030B"/>
  <anchor x="0" y="599.333" name="_top"/>
  <outline>
    <contour>
      <point x="-125.333" y="599.333" type="line"/>
      <point x="-38" y="599.333" type="line"/>
      <point x="83" y="736" type="line"/>
      <point x="-26.333" y="736" type="line"/>
    </contour>
    <contour>
      <point x="34.667" y="599.333" type="line"/>
      <point x="122" y="599.333" type="line"/>
      <point x="243" y="736" type="line"/>
      <point x="133.667" y="736" type="line"/>
    </contour>
  </outline>
</glyph>
<glyph name="uni030C" format="2">
  <unicode hex="030C"/>
  <anchor x="0" y="599.333" name="_top"/>
  <outline>
    <contour>
      <point x="-40.5" y="593.333" type="line"/>
      <point x="38.167" y="593.333" type="line"/>
      <point x="142.167" y="742.667" type="line"/>
      <point x="60.167" y="742.667" type="line"/>
      <point x="0.5" y="658.667" type="line"/>
      <point x="-59.833" y="742.667" type="line"/>
      <point x="-142.167" y="742.667" type="line"/>
    </contour>
  </outline>
</glyph>
<glyph name="uni030F" format="2">
  <unicode hex="030F"/>
  <anchor x="0" y="597.667" name="_top"/>
  <outline>
    <contour>
      <point x="-90.0404" y="599.333" type="line"/>
      <point x="-2.70644" y="599.333" type="line"/>
      <point x="-101.706" y="736" type="line"/>
      <point x="-211.04" y="736" type="line"/>
    </contour>
    <contour>
      <point x="74.4183" y="599.333" type="line"/>
      <point x="161.752" y="599.333" type="line"/>
      <point x="62.7523" y="736" type="line"/>
      <point x="-46.5817" y="736" type="line"/>
    </contour>
  </outline>
</glyph>
<glyph name="uni0312" format="2">
  <unicode hex="0312"/>
  <outline>
    <contour>
      <point x="-77.333" y="599.333" type="line"/>
      <point x="31.667" y="599.333" type="line"/>
      <point x="130.333" y="736" type="line"/>
      <point x="43.667" y="736" type="line"/>
    </contour>
  </outline>
</glyph>
<glyph name="uni0323" format="2">
  <unicode hex="0323"/>
  <anchor x="0" y="-86" name="_bottom"/>
  <anchor x="0" y="-134.667" name="_dot"/>
  <outline>
    <contour>
      <point x="-51.333" y="-183.333" type="line"/>
      <point x="55.333" y="-183.333" type="line"/>
      <point x="55.333" y="-86" type="line"/>
      <point x="-51.333" y="-86" type="line"/>
    </contour>
  </outline>
</glyph>
<glyph name="uni0326" format="2">
  <unicode hex="0326"/>
  <anchor x="0" y="-33.333" name="_bottom"/>
  <outline>
    <contour>
      <point x="-43" y="-173" type="line"/>
      <point x="42.333" y="-99" type="line"/>
      <point x="42.333" y="-33.333" type="line"/>
      <point x="-43" y="-33.333" type="line"/>
    </contour>
  </outline>
</glyph>
<glyph name="alpha" format="2">
  <advance width="489"/>
  <unicode hex="03B1"/>
  <outline>
    <contour>
      <point x="446.333" y="101.667" type="line"/>
      <point x="408.322" y="102.334"/>
      <point x="385.333" y="136.715"/>
      <point x="385.333" y="192" type="curve" smooth="yes"/>
      <point x="385.333" y="344.333" type="line" smooth="yes"/>
      <point x="385.333" y="400.038"/>
      <point x="407.996" y="433.986"/>
      <point x="446.333" y="434.667" type="curve"/>
      <point x="446.333" y="523.333" type="line"/>
      <point x="402.637" y="523.333"/>
      <point x="370.765" y="512.765"/>
      <point x="342.333" y="489.667" type="curve"/>
      <point x="314.907" y="525.413"/>
      <point x="267.891" y="545.333"/>
      <point x="211" y="545.333" type="curve" smooth="yes"/>
      <point x="97.909" y="545.333"/>
      <point x="43" y="482.696"/>
      <point x="43" y="354.333" type="curve" smooth="yes"/>
      <point x="43" y="182" type="line" smooth="yes"/>
      <point x="43" y="55.269"/>
      <point x="98.646" y="-8"/>
      <point x="211" y="-8" type="curve" smooth="yes"/>
      <point x="267.016" y="-8"/>
      <point x="316.463" y="12.836"/>
      <point x="342.333" y="47.667" type="curve"/>
      <point x="371.376" y="23.958"/>
      <point x="402.638" y="14"/>
      <point x="446.333" y="14" type="curve"/>
    </contour>
    <contour>
      <point x="210" y="83.333" type="curve" smooth="yes"/>
      <point x="167.451" y="83.333"/>
      <point x="145.667" y="117.186"/>
      <point x="145.667" y="184" type="curve" smooth="yes"/>
      <point x="145.667" y="352.333" type="line" smooth="yes"/>
      <point x="145.667" y="419.59"/>
      <point x="167.139" y="453"/>
      <point x="210" y="453" type="curve" smooth="yes"/>
      <point x="253.267" y="453"/>
      <point x="274.667" y="419.541"/>
      <point x="274.667" y="352.333" type="curve" smooth="yes"/>
      <point x="274.667" y="184" type="line" smooth="yes"/>
      <point x="274.667" y="117.105"/>
      <point x="253.048" y="83.333"/>
    </contour>
  </outline>
</glyph>
<glyph name="Djecyr" format="2">
  <advance width="551"/>
  <unicode hex="0402"/>
  <anchor x="188.667" y="-86" name="bottom"/>
  <anchor x="181.167" y="766.667" name="top"/>
  <anchor x="156" y="0" name="b.cedilla"/>
  <outline>
    <contour>
      <point x="135.333" y="0" type="line"/>
      <point x="243" y="0" type="line"/>
      <point x="243" y="608.667" type="line"/>
      <point x="373" y="608.667" type="line"/>
      <point x="373" y="707" type="line"/>
      <point x="4.667" y="707" type="line"/>
      <point x="4.667" y="608.667" type="line"/>
      <point x="135.333" y="608.667" type="line"/>
    </contour>
    <contour>
      <point x="291.733" y="0" type="line"/>
      <point x="318" y="0" type="line" smooth="yes"/>
      <point x="449.064" y="0"/>
      <point x="507.667" y="67.141"/>
      <point x="507.667" y="217.333" type="curve" smooth="yes"/>
      <point x="507.667" y="364.899"/>
      <point x="447.547" y="433.333"/>
      <point x="318" y="433.333" type="curve" smooth="yes"/>
      <point x="218.153" y="433.333" type="line"/>
      <point x="218.153" y="335" type="line"/>
      <point x="314" y="335" type="line" smooth="yes"/>
      <point x="372.874" y="335"/>
      <point x="399" y="298.879"/>
      <point x="399" y="217.333" type="curve" smooth="yes"/>
      <point x="399" y="134.19"/>
      <point x="373.024" y="97.992"/>
      <point x="314" y="97.78" type="curve"/>
      <point x="291.733" y="97.687" type="line"/>
    </contour>
  </outline>
</glyph>
<glyph name="Eukrcyr" format="2">
  <advance width="482"/>
  <unicode hex="0404"/>
  <anchor x="244.333" y="766.667" name="top"/>
  <outline>
    <contour>
      <point x="329.667" y="213.333" type="line"/>
      <point x="329.667" y="198.333" type="line" smooth="yes"/>
      <point x="329.667" y="127.854"/>
      <point x="298.961" y="89.667"/>
      <point x="243" y="89.667" type="curve" smooth="yes"/>
      <point x="182.548" y="89.667"/>
      <point x="152.667" y="129.444"/>
      <point x="152.667" y="207.667" type="curve" smooth="yes"/>
      <point x="152.667" y="493.333" type="line" smooth="yes"/>
      <point x="152.667" y="577.19"/>
      <point x="182.323" y="618"/>
      <point x="243" y="618" type="curve" smooth="yes"/>
      <point x="298.432" y="618"/>
      <point x="329.667" y="578.413"/>
      <point x="329.667" y="508.667" type="curve" smooth="yes"/>
      <point x="329.667" y="492.333" type="line"/>
      <point x="438.667" y="492.333" type="line"/>
      <point x="438.667" y="510" type="line" smooth="yes"/>
      <point x="438.667" y="641.127"/>
      <point x="367.778" y="716.667"/>
      <point x="244.667" y="716.667" type="curve" smooth="yes"/>
      <point x="118.456" y="716.667"/>
      <point x="43.667" y="639.87"/>
      <point x="43.667" y="509" type="curve" smooth="yes"/>
      <point x="43.667" y="198.667" type="line" smooth="yes"/>
      <point x="43.667" y="67.183"/>
      <point x="115.705" y="-8"/>
      <point x="240.333" y="-8" type="curve" smooth="yes"/>
      <point x="364.222" y="-8"/>
      <point x="437.333" y="68.545"/>
      <point x="437.333" y="197.333" type="curve" smooth="yes"/>
      <point x="437.333" y="213.333" type="line"/>
    </contour>
    <contour>
      <point x="315.551" y="311" type="line"/>
      <point x="113.831" y="311" type="line"/>
      <point x="113.831" y="408.333" type="line"/>
      <point x="315.551" y="408.333" type="line"/>
    </contour>
  </outline>
</glyph>
<glyph name="Ljecyr" format="2">
  <advance width="760"/>
  <unicode hex="0409"/>
  <outline>
    <component base="Elcyr"/>
    <contour>
      <point x="427.153" y="0" type="line"/>
      <point x="527" y="0" type="line" smooth="yes"/>
      <point x="658.064" y="0"/>
      <point x="716.667" y="67.141"/>
      <point x="716.667" y="217.333" type="curve" smooth="yes"/>
      <point x="716.667" y="364.899"/>
      <point x="656.547" y="433.333"/>
      <point x="527" y="433.333" type="curve" smooth="yes"/>
      <point x="427.153" y="433.333" type="line"/>
      <point x="427.153" y="335" type="line"/>
      <point x="523" y="335" type="line" smooth="yes"/>
      <point x="581.874" y="335"/>
      <point x="608" y="298.879"/>
      <point x="608" y="217.333" type="curve" smooth="yes"/>
      <point x="608" y="134.19"/>
      <point x="582.025" y="97.585"/>
      <point x="523" y="97.667" type="curve" smooth="yes"/>
      <point x="427.153" y="97.8" type="line"/>
    </contour>
  </outline>
</glyph>
<glyph name="Njecyr" format="2">
  <advance width="733"/>
  <unicode hex="040A"/>
  <outline>
    <component base="H"/>
    <contour>
      <point x="400.486" y="0" type="line"/>
      <point x="500.333" y="0" type="line" smooth="yes"/>
      <point x="631.397" y="0"/>
      <point x="690" y="67.141"/>
      <point x="690" y="217.333" type="curve" smooth="yes"/>
      <point x="690" y="364.899"/>
      <point x="629.88" y="433.333"/>
      <point x="500.333" y="433.333" type="curve" smooth="yes"/>
      <point x="400.486" y="433.333" type="line"/>
      <point x="400.486" y="335" type="line"/>
      <point x="496.333" y="335" type="line" smooth="yes"/>
      <point x="555.207" y="335"/>
      <point x="581.333" y="298.879"/>
      <point x="581.333" y="217.333" type="curve" smooth="yes"/>
      <point x="581.333" y="134.19"/>
      <point x="555.358" y="97.585"/>
      <point x="496.333" y="97.667" type="curve" smooth="yes"/>
      <point x="400.486" y="97.8" type="line"/>
    </contour>
  </outline>
</glyph>
<glyph name="Tshecyr" format="2">
  <advance width="560"/>
  <unicode hex="040B"/>
  <outline>
    <contour>
      <point x="135.333" y="0" type="line"/>
      <point x="243" y="0" type="line"/>
      <point x="243" y="608.667" type="line"/>
      <point x="373" y="608.667" type="line"/>
      <point x="373" y="707" type="line"/>
      <point x="4.667" y="707" type="line"/>
      <point x="4.667" y="608.667" type="line"/>
      <point x="135.333" y="608.667" type="line"/>
    </contour>
    <contour>
      <point x="516.667" y="0" type="line"/>
      <point x="516.667" y="217.333" type="line" smooth="yes"/>
      <point x="516.667" y="364.899"/>
      <point x="456.547" y="453.333"/>
      <point x="327" y="453.333" type="curve" smooth="yes"/>
      <point x="299.325" y="453.333"/>
      <point x="270.811" y="447.333"/>
      <point x="243.136" y="433.333" type="curve"/>
      <point x="227.153" y="433.333" type="line"/>
      <point x="227.153" y="335" type="line"/>
      <point x="243.136" y="335" type="line"/>
      <point x="269.491" y="349"/>
      <point x="296.645" y="355"/>
      <point x="323" y="355" type="curve" smooth="yes"/>
      <point x="381.874" y="355"/>
      <point x="408" y="298.879"/>
      <point x="408" y="217.333" type="curve" smooth="yes"/>
      <point x="408" y="-0.064" type="line"/>
    </contour>
  </outline>
</glyph>
<glyph name="Dzhecyr" format="2">
  <advance width="492"/>
  <unicode hex="040F"/>
  <outline>
    <contour>
      <point x="191.333" y="-170" type="line"/>
      <point x="300.333" y="-170" type="line"/>
      <point x="300.333" y="98.333" type="line"/>
      <point x="191.333" y="98.333" type="line"/>
    </contour>
    <contour>
      <point x="133" y="0" type="line"/>
      <point x="355.667" y="0" type="line"/>
      <point x="355.667" y="98.333" type="line"/>
      <point x="133" y="98.333" type="line"/>
    </contour>
    <contour>
      <point x="333.667" y="0" type="line"/>
      <point x="442.667" y="0" type="line"/>
      <point x="442.667" y="707" type="line"/>
      <point x="333.667" y="707" type="line"/>
    </contour>
    <contour>
      <point x="48.9997" y="0" type="line"/>
      <point x="158" y="0" type="line"/>
      <point x="158" y="707" type="line"/>
      <point x="48.9997" y="707" type="line"/>
    </contour>
  </outline>
</glyph>
<glyph name="Gecyr" format="2">
  <advance width="388"/>
  <unicode hex="0413"/>
  <anchor x="220.333" y="766.667" name="top"/>
  <outline>
    <contour>
      <point x="138.153" y="608.667" type="line"/>
      <point x="364" y="608.667" type="line"/>
      <point x="364" y="707" type="line"/>
      <point x="138.153" y="707" type="line"/>
    </contour>
    <contour>
      <point x="49" y="0" type="line"/>
      <point x="158" y="0" type="line"/>
      <point x="158" y="707.039" type="line"/>
      <point x="49" y="707" type="line"/>
    </contour>
  </outline>
</glyph>
